%TF.GenerationSoftware,KiCad,Pcbnew,9.0.4*%
%TF.CreationDate,2025-12-08T11:00:42+07:00*%
%TF.ProjectId,05_sulfurmonitoring_design_v4_no_display,30355f73-756c-4667-9572-6d6f6e69746f,rev?*%
%TF.SameCoordinates,Original*%
%TF.FileFunction,Drillmap*%
%TF.FilePolarity,Positive*%
%FSLAX45Y45*%
G04 Gerber Fmt 4.5, Leading zero omitted, Abs format (unit mm)*
G04 Created by KiCad (PCBNEW 9.0.4) date 2025-12-08 11:00:42*
%MOMM*%
%LPD*%
G01*
G04 APERTURE LIST*
%ADD10C,0.200000*%
%ADD11C,0.100000*%
G04 APERTURE END LIST*
D10*
X4550000Y-2800000D02*
G75*
G02*
X4250000Y-2800000I-150000J0D01*
G01*
X4250000Y-2800000D02*
G75*
G02*
X4550000Y-2800000I150000J0D01*
G01*
X4550000Y-17200000D02*
G75*
G02*
X4250000Y-17200000I-150000J0D01*
G01*
X4250000Y-17200000D02*
G75*
G02*
X4550000Y-17200000I150000J0D01*
G01*
X4100000Y-2500000D02*
X13100000Y-2500000D01*
X13100000Y-17500000D01*
X4100000Y-17500000D01*
X4100000Y-2500000D01*
X12950000Y-17205000D02*
G75*
G02*
X12650000Y-17205000I-150000J0D01*
G01*
X12650000Y-17205000D02*
G75*
G02*
X12950000Y-17205000I150000J0D01*
G01*
X12950000Y-2800000D02*
G75*
G02*
X12650000Y-2800000I-150000J0D01*
G01*
X12650000Y-2800000D02*
G75*
G02*
X12950000Y-2800000I150000J0D01*
G01*
D11*
X4795520Y-7589520D02*
X4856480Y-7650480D01*
X4856480Y-7589520D02*
X4795520Y-7650480D01*
X5303520Y-7640320D02*
X5364480Y-7701280D01*
X5364480Y-7640320D02*
X5303520Y-7701280D01*
X7462520Y-7589520D02*
X7523480Y-7650480D01*
X7523480Y-7589520D02*
X7462520Y-7650480D01*
X9367520Y-8478520D02*
X9428480Y-8539480D01*
X9428480Y-8478520D02*
X9367520Y-8539480D01*
X11526520Y-6319520D02*
X11587480Y-6380480D01*
X11587480Y-6319520D02*
X11526520Y-6380480D01*
X5115500Y-16746000D02*
G75*
G02*
X5020500Y-16746000I-47500J0D01*
G01*
X5020500Y-16746000D02*
G75*
G02*
X5115500Y-16746000I47500J0D01*
G01*
X5365500Y-16746000D02*
G75*
G02*
X5270500Y-16746000I-47500J0D01*
G01*
X5270500Y-16746000D02*
G75*
G02*
X5365500Y-16746000I47500J0D01*
G01*
X5615500Y-16746000D02*
G75*
G02*
X5520500Y-16746000I-47500J0D01*
G01*
X5520500Y-16746000D02*
G75*
G02*
X5615500Y-16746000I47500J0D01*
G01*
X5865500Y-16746000D02*
G75*
G02*
X5770500Y-16746000I-47500J0D01*
G01*
X5770500Y-16746000D02*
G75*
G02*
X5865500Y-16746000I47500J0D01*
G01*
X6639500Y-16755000D02*
G75*
G02*
X6544500Y-16755000I-47500J0D01*
G01*
X6544500Y-16755000D02*
G75*
G02*
X6639500Y-16755000I47500J0D01*
G01*
X6889500Y-16755000D02*
G75*
G02*
X6794500Y-16755000I-47500J0D01*
G01*
X6794500Y-16755000D02*
G75*
G02*
X6889500Y-16755000I47500J0D01*
G01*
X7139500Y-16755000D02*
G75*
G02*
X7044500Y-16755000I-47500J0D01*
G01*
X7044500Y-16755000D02*
G75*
G02*
X7139500Y-16755000I47500J0D01*
G01*
X7389500Y-16755000D02*
G75*
G02*
X7294500Y-16755000I-47500J0D01*
G01*
X7294500Y-16755000D02*
G75*
G02*
X7389500Y-16755000I47500J0D01*
G01*
X8163500Y-16755000D02*
G75*
G02*
X8068500Y-16755000I-47500J0D01*
G01*
X8068500Y-16755000D02*
G75*
G02*
X8163500Y-16755000I47500J0D01*
G01*
X8413500Y-16755000D02*
G75*
G02*
X8318500Y-16755000I-47500J0D01*
G01*
X8318500Y-16755000D02*
G75*
G02*
X8413500Y-16755000I47500J0D01*
G01*
X8663500Y-16755000D02*
G75*
G02*
X8568500Y-16755000I-47500J0D01*
G01*
X8568500Y-16755000D02*
G75*
G02*
X8663500Y-16755000I47500J0D01*
G01*
X8913500Y-16755000D02*
G75*
G02*
X8818500Y-16755000I-47500J0D01*
G01*
X8818500Y-16755000D02*
G75*
G02*
X8913500Y-16755000I47500J0D01*
G01*
X9699500Y-16764000D02*
G75*
G02*
X9604500Y-16764000I-47500J0D01*
G01*
X9604500Y-16764000D02*
G75*
G02*
X9699500Y-16764000I47500J0D01*
G01*
X9949500Y-16764000D02*
G75*
G02*
X9854500Y-16764000I-47500J0D01*
G01*
X9854500Y-16764000D02*
G75*
G02*
X9949500Y-16764000I47500J0D01*
G01*
X10199500Y-16764000D02*
G75*
G02*
X10104500Y-16764000I-47500J0D01*
G01*
X10104500Y-16764000D02*
G75*
G02*
X10199500Y-16764000I47500J0D01*
G01*
X10449500Y-16764000D02*
G75*
G02*
X10354500Y-16764000I-47500J0D01*
G01*
X10354500Y-16764000D02*
G75*
G02*
X10449500Y-16764000I47500J0D01*
G01*
X11219500Y-16755000D02*
G75*
G02*
X11124500Y-16755000I-47500J0D01*
G01*
X11124500Y-16755000D02*
G75*
G02*
X11219500Y-16755000I47500J0D01*
G01*
X11350500Y-9652000D02*
G75*
G02*
X11255500Y-9652000I-47500J0D01*
G01*
X11255500Y-9652000D02*
G75*
G02*
X11350500Y-9652000I47500J0D01*
G01*
X11350500Y-9902000D02*
G75*
G02*
X11255500Y-9902000I-47500J0D01*
G01*
X11255500Y-9902000D02*
G75*
G02*
X11350500Y-9902000I47500J0D01*
G01*
X11350500Y-10152000D02*
G75*
G02*
X11255500Y-10152000I-47500J0D01*
G01*
X11255500Y-10152000D02*
G75*
G02*
X11350500Y-10152000I47500J0D01*
G01*
X11350500Y-10402000D02*
G75*
G02*
X11255500Y-10402000I-47500J0D01*
G01*
X11255500Y-10402000D02*
G75*
G02*
X11350500Y-10402000I47500J0D01*
G01*
X11350500Y-11176000D02*
G75*
G02*
X11255500Y-11176000I-47500J0D01*
G01*
X11255500Y-11176000D02*
G75*
G02*
X11350500Y-11176000I47500J0D01*
G01*
X11350500Y-11426000D02*
G75*
G02*
X11255500Y-11426000I-47500J0D01*
G01*
X11255500Y-11426000D02*
G75*
G02*
X11350500Y-11426000I47500J0D01*
G01*
X11350500Y-11676000D02*
G75*
G02*
X11255500Y-11676000I-47500J0D01*
G01*
X11255500Y-11676000D02*
G75*
G02*
X11350500Y-11676000I47500J0D01*
G01*
X11350500Y-11926000D02*
G75*
G02*
X11255500Y-11926000I-47500J0D01*
G01*
X11255500Y-11926000D02*
G75*
G02*
X11350500Y-11926000I47500J0D01*
G01*
X11469500Y-16755000D02*
G75*
G02*
X11374500Y-16755000I-47500J0D01*
G01*
X11374500Y-16755000D02*
G75*
G02*
X11469500Y-16755000I47500J0D01*
G01*
X11719500Y-16755000D02*
G75*
G02*
X11624500Y-16755000I-47500J0D01*
G01*
X11624500Y-16755000D02*
G75*
G02*
X11719500Y-16755000I47500J0D01*
G01*
X11969500Y-16755000D02*
G75*
G02*
X11874500Y-16755000I-47500J0D01*
G01*
X11874500Y-16755000D02*
G75*
G02*
X11969500Y-16755000I47500J0D01*
G01*
X12366500Y-9652000D02*
G75*
G02*
X12271500Y-9652000I-47500J0D01*
G01*
X12271500Y-9652000D02*
G75*
G02*
X12366500Y-9652000I47500J0D01*
G01*
X12366500Y-9902000D02*
G75*
G02*
X12271500Y-9902000I-47500J0D01*
G01*
X12271500Y-9902000D02*
G75*
G02*
X12366500Y-9902000I47500J0D01*
G01*
X12366500Y-10152000D02*
G75*
G02*
X12271500Y-10152000I-47500J0D01*
G01*
X12271500Y-10152000D02*
G75*
G02*
X12366500Y-10152000I47500J0D01*
G01*
X12366500Y-10402000D02*
G75*
G02*
X12271500Y-10402000I-47500J0D01*
G01*
X12271500Y-10402000D02*
G75*
G02*
X12366500Y-10402000I47500J0D01*
G01*
X12366500Y-11176000D02*
G75*
G02*
X12271500Y-11176000I-47500J0D01*
G01*
X12271500Y-11176000D02*
G75*
G02*
X12366500Y-11176000I47500J0D01*
G01*
X12366500Y-11426000D02*
G75*
G02*
X12271500Y-11426000I-47500J0D01*
G01*
X12271500Y-11426000D02*
G75*
G02*
X12366500Y-11426000I47500J0D01*
G01*
X12366500Y-11676000D02*
G75*
G02*
X12271500Y-11676000I-47500J0D01*
G01*
X12271500Y-11676000D02*
G75*
G02*
X12366500Y-11676000I47500J0D01*
G01*
X12366500Y-11926000D02*
G75*
G02*
X12271500Y-11926000I-47500J0D01*
G01*
X12271500Y-11926000D02*
G75*
G02*
X12366500Y-11926000I47500J0D01*
G01*
X4826000Y-9983000D02*
X4826000Y-10083000D01*
X4776000Y-10033000D02*
X4876000Y-10033000D01*
X4826000Y-10233000D02*
X4826000Y-10333000D01*
X4776000Y-10283000D02*
X4876000Y-10283000D01*
X5080000Y-11253000D02*
X5080000Y-11353000D01*
X5030000Y-11303000D02*
X5130000Y-11303000D01*
X5080000Y-13539000D02*
X5080000Y-13639000D01*
X5030000Y-13589000D02*
X5130000Y-13589000D01*
X5080000Y-15571000D02*
X5080000Y-15671000D01*
X5030000Y-15621000D02*
X5130000Y-15621000D01*
X5334000Y-11253000D02*
X5334000Y-11353000D01*
X5284000Y-11303000D02*
X5384000Y-11303000D01*
X5334000Y-13539000D02*
X5334000Y-13639000D01*
X5284000Y-13589000D02*
X5384000Y-13589000D01*
X5334000Y-15571000D02*
X5334000Y-15671000D01*
X5284000Y-15621000D02*
X5384000Y-15621000D01*
X5588000Y-11253000D02*
X5588000Y-11353000D01*
X5538000Y-11303000D02*
X5638000Y-11303000D01*
X5588000Y-13539000D02*
X5588000Y-13639000D01*
X5538000Y-13589000D02*
X5638000Y-13589000D01*
X5588000Y-15571000D02*
X5588000Y-15671000D01*
X5538000Y-15621000D02*
X5638000Y-15621000D01*
X5715000Y-9411500D02*
X5715000Y-9511500D01*
X5665000Y-9461500D02*
X5765000Y-9461500D01*
X5715000Y-9665500D02*
X5715000Y-9765500D01*
X5665000Y-9715500D02*
X5765000Y-9715500D01*
X5715000Y-10427500D02*
X5715000Y-10527500D01*
X5665000Y-10477500D02*
X5765000Y-10477500D01*
X5715000Y-10681500D02*
X5715000Y-10781500D01*
X5665000Y-10731500D02*
X5765000Y-10731500D01*
X5842000Y-11253000D02*
X5842000Y-11353000D01*
X5792000Y-11303000D02*
X5892000Y-11303000D01*
X5842000Y-13539000D02*
X5842000Y-13639000D01*
X5792000Y-13589000D02*
X5892000Y-13589000D01*
X5842000Y-15571000D02*
X5842000Y-15671000D01*
X5792000Y-15621000D02*
X5892000Y-15621000D01*
X6096000Y-11253000D02*
X6096000Y-11353000D01*
X6046000Y-11303000D02*
X6146000Y-11303000D01*
X6096000Y-13539000D02*
X6096000Y-13639000D01*
X6046000Y-13589000D02*
X6146000Y-13589000D01*
X6096000Y-15571000D02*
X6096000Y-15671000D01*
X6046000Y-15621000D02*
X6146000Y-15621000D01*
X6350000Y-11253000D02*
X6350000Y-11353000D01*
X6300000Y-11303000D02*
X6400000Y-11303000D01*
X6350000Y-13539000D02*
X6350000Y-13639000D01*
X6300000Y-13589000D02*
X6400000Y-13589000D01*
X6350000Y-15571000D02*
X6350000Y-15671000D01*
X6300000Y-15621000D02*
X6400000Y-15621000D01*
X6604000Y-13539000D02*
X6604000Y-13639000D01*
X6554000Y-13589000D02*
X6654000Y-13589000D01*
X6604000Y-15571000D02*
X6604000Y-15671000D01*
X6554000Y-15621000D02*
X6654000Y-15621000D01*
X6858000Y-13539000D02*
X6858000Y-13639000D01*
X6808000Y-13589000D02*
X6908000Y-13589000D01*
X6858000Y-15571000D02*
X6858000Y-15671000D01*
X6808000Y-15621000D02*
X6908000Y-15621000D01*
X7112000Y-13539000D02*
X7112000Y-13639000D01*
X7062000Y-13589000D02*
X7162000Y-13589000D01*
X7112000Y-15571000D02*
X7112000Y-15671000D01*
X7062000Y-15621000D02*
X7162000Y-15621000D01*
X7366000Y-13539000D02*
X7366000Y-13639000D01*
X7316000Y-13589000D02*
X7416000Y-13589000D01*
X7366000Y-15571000D02*
X7366000Y-15671000D01*
X7316000Y-15621000D02*
X7416000Y-15621000D01*
X7493000Y-9411500D02*
X7493000Y-9511500D01*
X7443000Y-9461500D02*
X7543000Y-9461500D01*
X7493000Y-9665500D02*
X7493000Y-9765500D01*
X7443000Y-9715500D02*
X7543000Y-9715500D01*
X7493000Y-10427500D02*
X7493000Y-10527500D01*
X7443000Y-10477500D02*
X7543000Y-10477500D01*
X7493000Y-10681500D02*
X7493000Y-10781500D01*
X7443000Y-10731500D02*
X7543000Y-10731500D01*
X7620000Y-13539000D02*
X7620000Y-13639000D01*
X7570000Y-13589000D02*
X7670000Y-13589000D01*
X7620000Y-15571000D02*
X7620000Y-15671000D01*
X7570000Y-15621000D02*
X7670000Y-15621000D01*
X7874000Y-13539000D02*
X7874000Y-13639000D01*
X7824000Y-13589000D02*
X7924000Y-13589000D01*
X7874000Y-15571000D02*
X7874000Y-15671000D01*
X7824000Y-15621000D02*
X7924000Y-15621000D01*
X8128000Y-13539000D02*
X8128000Y-13639000D01*
X8078000Y-13589000D02*
X8178000Y-13589000D01*
X8128000Y-15571000D02*
X8128000Y-15671000D01*
X8078000Y-15621000D02*
X8178000Y-15621000D01*
X8382000Y-13539000D02*
X8382000Y-13639000D01*
X8332000Y-13589000D02*
X8432000Y-13589000D01*
X8382000Y-15571000D02*
X8382000Y-15671000D01*
X8332000Y-15621000D02*
X8432000Y-15621000D01*
X8445500Y-12967500D02*
X8445500Y-13067500D01*
X8395500Y-13017500D02*
X8495500Y-13017500D01*
X8636000Y-13539000D02*
X8636000Y-13639000D01*
X8586000Y-13589000D02*
X8686000Y-13589000D01*
X8636000Y-15571000D02*
X8636000Y-15671000D01*
X8586000Y-15621000D02*
X8686000Y-15621000D01*
X8699500Y-9411500D02*
X8699500Y-9511500D01*
X8649500Y-9461500D02*
X8749500Y-9461500D01*
X8699500Y-12967500D02*
X8699500Y-13067500D01*
X8649500Y-13017500D02*
X8749500Y-13017500D01*
X8890000Y-13539000D02*
X8890000Y-13639000D01*
X8840000Y-13589000D02*
X8940000Y-13589000D01*
X8890000Y-15571000D02*
X8890000Y-15671000D01*
X8840000Y-15621000D02*
X8940000Y-15621000D01*
X8953500Y-9411500D02*
X8953500Y-9511500D01*
X8903500Y-9461500D02*
X9003500Y-9461500D01*
X8953500Y-12967500D02*
X8953500Y-13067500D01*
X8903500Y-13017500D02*
X9003500Y-13017500D01*
X9144000Y-13539000D02*
X9144000Y-13639000D01*
X9094000Y-13589000D02*
X9194000Y-13589000D01*
X9144000Y-15571000D02*
X9144000Y-15671000D01*
X9094000Y-15621000D02*
X9194000Y-15621000D01*
X9207500Y-9411500D02*
X9207500Y-9511500D01*
X9157500Y-9461500D02*
X9257500Y-9461500D01*
X9207500Y-12967500D02*
X9207500Y-13067500D01*
X9157500Y-13017500D02*
X9257500Y-13017500D01*
X9398000Y-13539000D02*
X9398000Y-13639000D01*
X9348000Y-13589000D02*
X9448000Y-13589000D01*
X9398000Y-15571000D02*
X9398000Y-15671000D01*
X9348000Y-15621000D02*
X9448000Y-15621000D01*
X9461500Y-9411500D02*
X9461500Y-9511500D01*
X9411500Y-9461500D02*
X9511500Y-9461500D01*
X9461500Y-12967500D02*
X9461500Y-13067500D01*
X9411500Y-13017500D02*
X9511500Y-13017500D01*
X9652000Y-13539000D02*
X9652000Y-13639000D01*
X9602000Y-13589000D02*
X9702000Y-13589000D01*
X9652000Y-15571000D02*
X9652000Y-15671000D01*
X9602000Y-15621000D02*
X9702000Y-15621000D01*
X9715500Y-12967500D02*
X9715500Y-13067500D01*
X9665500Y-13017500D02*
X9765500Y-13017500D01*
X9906000Y-13539000D02*
X9906000Y-13639000D01*
X9856000Y-13589000D02*
X9956000Y-13589000D01*
X9906000Y-15571000D02*
X9906000Y-15671000D01*
X9856000Y-15621000D02*
X9956000Y-15621000D01*
X10922000Y-13412000D02*
X10922000Y-13512000D01*
X10872000Y-13462000D02*
X10972000Y-13462000D01*
X11176000Y-13412000D02*
X11176000Y-13512000D01*
X11126000Y-13462000D02*
X11226000Y-13462000D01*
X11430000Y-13412000D02*
X11430000Y-13512000D01*
X11380000Y-13462000D02*
X11480000Y-13462000D01*
X11684000Y-13412000D02*
X11684000Y-13512000D01*
X11634000Y-13462000D02*
X11734000Y-13462000D01*
X11938000Y-13412000D02*
X11938000Y-13512000D01*
X11888000Y-13462000D02*
X11988000Y-13462000D01*
X12192000Y-13412000D02*
X12192000Y-13512000D01*
X12142000Y-13462000D02*
X12242000Y-13462000D01*
D10*
X4350777Y-17821484D02*
X4350777Y-17621484D01*
X4350777Y-17621484D02*
X4398396Y-17621484D01*
X4398396Y-17621484D02*
X4426967Y-17631008D01*
X4426967Y-17631008D02*
X4446015Y-17650055D01*
X4446015Y-17650055D02*
X4455539Y-17669103D01*
X4455539Y-17669103D02*
X4465063Y-17707198D01*
X4465063Y-17707198D02*
X4465063Y-17735770D01*
X4465063Y-17735770D02*
X4455539Y-17773865D01*
X4455539Y-17773865D02*
X4446015Y-17792912D01*
X4446015Y-17792912D02*
X4426967Y-17811960D01*
X4426967Y-17811960D02*
X4398396Y-17821484D01*
X4398396Y-17821484D02*
X4350777Y-17821484D01*
X4550777Y-17821484D02*
X4550777Y-17688150D01*
X4550777Y-17726246D02*
X4560301Y-17707198D01*
X4560301Y-17707198D02*
X4569824Y-17697674D01*
X4569824Y-17697674D02*
X4588872Y-17688150D01*
X4588872Y-17688150D02*
X4607920Y-17688150D01*
X4674586Y-17821484D02*
X4674586Y-17688150D01*
X4674586Y-17621484D02*
X4665063Y-17631008D01*
X4665063Y-17631008D02*
X4674586Y-17640531D01*
X4674586Y-17640531D02*
X4684110Y-17631008D01*
X4684110Y-17631008D02*
X4674586Y-17621484D01*
X4674586Y-17621484D02*
X4674586Y-17640531D01*
X4798396Y-17821484D02*
X4779348Y-17811960D01*
X4779348Y-17811960D02*
X4769824Y-17792912D01*
X4769824Y-17792912D02*
X4769824Y-17621484D01*
X4903158Y-17821484D02*
X4884110Y-17811960D01*
X4884110Y-17811960D02*
X4874586Y-17792912D01*
X4874586Y-17792912D02*
X4874586Y-17621484D01*
X5131729Y-17821484D02*
X5131729Y-17621484D01*
X5131729Y-17621484D02*
X5198396Y-17764341D01*
X5198396Y-17764341D02*
X5265063Y-17621484D01*
X5265063Y-17621484D02*
X5265063Y-17821484D01*
X5446015Y-17821484D02*
X5446015Y-17716722D01*
X5446015Y-17716722D02*
X5436491Y-17697674D01*
X5436491Y-17697674D02*
X5417444Y-17688150D01*
X5417444Y-17688150D02*
X5379348Y-17688150D01*
X5379348Y-17688150D02*
X5360301Y-17697674D01*
X5446015Y-17811960D02*
X5426967Y-17821484D01*
X5426967Y-17821484D02*
X5379348Y-17821484D01*
X5379348Y-17821484D02*
X5360301Y-17811960D01*
X5360301Y-17811960D02*
X5350777Y-17792912D01*
X5350777Y-17792912D02*
X5350777Y-17773865D01*
X5350777Y-17773865D02*
X5360301Y-17754817D01*
X5360301Y-17754817D02*
X5379348Y-17745293D01*
X5379348Y-17745293D02*
X5426967Y-17745293D01*
X5426967Y-17745293D02*
X5446015Y-17735770D01*
X5541253Y-17688150D02*
X5541253Y-17888150D01*
X5541253Y-17697674D02*
X5560301Y-17688150D01*
X5560301Y-17688150D02*
X5598396Y-17688150D01*
X5598396Y-17688150D02*
X5617443Y-17697674D01*
X5617443Y-17697674D02*
X5626967Y-17707198D01*
X5626967Y-17707198D02*
X5636491Y-17726246D01*
X5636491Y-17726246D02*
X5636491Y-17783389D01*
X5636491Y-17783389D02*
X5626967Y-17802436D01*
X5626967Y-17802436D02*
X5617443Y-17811960D01*
X5617443Y-17811960D02*
X5598396Y-17821484D01*
X5598396Y-17821484D02*
X5560301Y-17821484D01*
X5560301Y-17821484D02*
X5541253Y-17811960D01*
X5722205Y-17802436D02*
X5731729Y-17811960D01*
X5731729Y-17811960D02*
X5722205Y-17821484D01*
X5722205Y-17821484D02*
X5712682Y-17811960D01*
X5712682Y-17811960D02*
X5722205Y-17802436D01*
X5722205Y-17802436D02*
X5722205Y-17821484D01*
X5722205Y-17697674D02*
X5731729Y-17707198D01*
X5731729Y-17707198D02*
X5722205Y-17716722D01*
X5722205Y-17716722D02*
X5712682Y-17707198D01*
X5712682Y-17707198D02*
X5722205Y-17697674D01*
X5722205Y-17697674D02*
X5722205Y-17716722D01*
D11*
X4029040Y-18119520D02*
X4090000Y-18180480D01*
X4090000Y-18119520D02*
X4029040Y-18180480D01*
D10*
X4388872Y-18041484D02*
X4407920Y-18041484D01*
X4407920Y-18041484D02*
X4426967Y-18051008D01*
X4426967Y-18051008D02*
X4436491Y-18060531D01*
X4436491Y-18060531D02*
X4446015Y-18079579D01*
X4446015Y-18079579D02*
X4455539Y-18117674D01*
X4455539Y-18117674D02*
X4455539Y-18165293D01*
X4455539Y-18165293D02*
X4446015Y-18203389D01*
X4446015Y-18203389D02*
X4436491Y-18222436D01*
X4436491Y-18222436D02*
X4426967Y-18231960D01*
X4426967Y-18231960D02*
X4407920Y-18241484D01*
X4407920Y-18241484D02*
X4388872Y-18241484D01*
X4388872Y-18241484D02*
X4369824Y-18231960D01*
X4369824Y-18231960D02*
X4360301Y-18222436D01*
X4360301Y-18222436D02*
X4350777Y-18203389D01*
X4350777Y-18203389D02*
X4341253Y-18165293D01*
X4341253Y-18165293D02*
X4341253Y-18117674D01*
X4341253Y-18117674D02*
X4350777Y-18079579D01*
X4350777Y-18079579D02*
X4360301Y-18060531D01*
X4360301Y-18060531D02*
X4369824Y-18051008D01*
X4369824Y-18051008D02*
X4388872Y-18041484D01*
X4541253Y-18222436D02*
X4550777Y-18231960D01*
X4550777Y-18231960D02*
X4541253Y-18241484D01*
X4541253Y-18241484D02*
X4531729Y-18231960D01*
X4531729Y-18231960D02*
X4541253Y-18222436D01*
X4541253Y-18222436D02*
X4541253Y-18241484D01*
X4722205Y-18041484D02*
X4684110Y-18041484D01*
X4684110Y-18041484D02*
X4665063Y-18051008D01*
X4665063Y-18051008D02*
X4655539Y-18060531D01*
X4655539Y-18060531D02*
X4636491Y-18089103D01*
X4636491Y-18089103D02*
X4626967Y-18127198D01*
X4626967Y-18127198D02*
X4626967Y-18203389D01*
X4626967Y-18203389D02*
X4636491Y-18222436D01*
X4636491Y-18222436D02*
X4646015Y-18231960D01*
X4646015Y-18231960D02*
X4665063Y-18241484D01*
X4665063Y-18241484D02*
X4703158Y-18241484D01*
X4703158Y-18241484D02*
X4722205Y-18231960D01*
X4722205Y-18231960D02*
X4731729Y-18222436D01*
X4731729Y-18222436D02*
X4741253Y-18203389D01*
X4741253Y-18203389D02*
X4741253Y-18155770D01*
X4741253Y-18155770D02*
X4731729Y-18136722D01*
X4731729Y-18136722D02*
X4722205Y-18127198D01*
X4722205Y-18127198D02*
X4703158Y-18117674D01*
X4703158Y-18117674D02*
X4665063Y-18117674D01*
X4665063Y-18117674D02*
X4646015Y-18127198D01*
X4646015Y-18127198D02*
X4636491Y-18136722D01*
X4636491Y-18136722D02*
X4626967Y-18155770D01*
X4931729Y-18241484D02*
X4817444Y-18241484D01*
X4874586Y-18241484D02*
X4874586Y-18041484D01*
X4874586Y-18041484D02*
X4855539Y-18070055D01*
X4855539Y-18070055D02*
X4836491Y-18089103D01*
X4836491Y-18089103D02*
X4817444Y-18098627D01*
X5055539Y-18041484D02*
X5074586Y-18041484D01*
X5074586Y-18041484D02*
X5093634Y-18051008D01*
X5093634Y-18051008D02*
X5103158Y-18060531D01*
X5103158Y-18060531D02*
X5112682Y-18079579D01*
X5112682Y-18079579D02*
X5122205Y-18117674D01*
X5122205Y-18117674D02*
X5122205Y-18165293D01*
X5122205Y-18165293D02*
X5112682Y-18203389D01*
X5112682Y-18203389D02*
X5103158Y-18222436D01*
X5103158Y-18222436D02*
X5093634Y-18231960D01*
X5093634Y-18231960D02*
X5074586Y-18241484D01*
X5074586Y-18241484D02*
X5055539Y-18241484D01*
X5055539Y-18241484D02*
X5036491Y-18231960D01*
X5036491Y-18231960D02*
X5026967Y-18222436D01*
X5026967Y-18222436D02*
X5017444Y-18203389D01*
X5017444Y-18203389D02*
X5007920Y-18165293D01*
X5007920Y-18165293D02*
X5007920Y-18117674D01*
X5007920Y-18117674D02*
X5017444Y-18079579D01*
X5017444Y-18079579D02*
X5026967Y-18060531D01*
X5026967Y-18060531D02*
X5036491Y-18051008D01*
X5036491Y-18051008D02*
X5055539Y-18041484D01*
X5207920Y-18241484D02*
X5207920Y-18108150D01*
X5207920Y-18127198D02*
X5217444Y-18117674D01*
X5217444Y-18117674D02*
X5236491Y-18108150D01*
X5236491Y-18108150D02*
X5265063Y-18108150D01*
X5265063Y-18108150D02*
X5284110Y-18117674D01*
X5284110Y-18117674D02*
X5293634Y-18136722D01*
X5293634Y-18136722D02*
X5293634Y-18241484D01*
X5293634Y-18136722D02*
X5303158Y-18117674D01*
X5303158Y-18117674D02*
X5322205Y-18108150D01*
X5322205Y-18108150D02*
X5350777Y-18108150D01*
X5350777Y-18108150D02*
X5369825Y-18117674D01*
X5369825Y-18117674D02*
X5379348Y-18136722D01*
X5379348Y-18136722D02*
X5379348Y-18241484D01*
X5474586Y-18241484D02*
X5474586Y-18108150D01*
X5474586Y-18127198D02*
X5484110Y-18117674D01*
X5484110Y-18117674D02*
X5503158Y-18108150D01*
X5503158Y-18108150D02*
X5531729Y-18108150D01*
X5531729Y-18108150D02*
X5550777Y-18117674D01*
X5550777Y-18117674D02*
X5560301Y-18136722D01*
X5560301Y-18136722D02*
X5560301Y-18241484D01*
X5560301Y-18136722D02*
X5569825Y-18117674D01*
X5569825Y-18117674D02*
X5588872Y-18108150D01*
X5588872Y-18108150D02*
X5617443Y-18108150D01*
X5617443Y-18108150D02*
X5636491Y-18117674D01*
X5636491Y-18117674D02*
X5646015Y-18136722D01*
X5646015Y-18136722D02*
X5646015Y-18241484D01*
X6036491Y-18031960D02*
X5865063Y-18289103D01*
X6293634Y-18041484D02*
X6312682Y-18041484D01*
X6312682Y-18041484D02*
X6331729Y-18051008D01*
X6331729Y-18051008D02*
X6341253Y-18060531D01*
X6341253Y-18060531D02*
X6350777Y-18079579D01*
X6350777Y-18079579D02*
X6360301Y-18117674D01*
X6360301Y-18117674D02*
X6360301Y-18165293D01*
X6360301Y-18165293D02*
X6350777Y-18203389D01*
X6350777Y-18203389D02*
X6341253Y-18222436D01*
X6341253Y-18222436D02*
X6331729Y-18231960D01*
X6331729Y-18231960D02*
X6312682Y-18241484D01*
X6312682Y-18241484D02*
X6293634Y-18241484D01*
X6293634Y-18241484D02*
X6274586Y-18231960D01*
X6274586Y-18231960D02*
X6265063Y-18222436D01*
X6265063Y-18222436D02*
X6255539Y-18203389D01*
X6255539Y-18203389D02*
X6246015Y-18165293D01*
X6246015Y-18165293D02*
X6246015Y-18117674D01*
X6246015Y-18117674D02*
X6255539Y-18079579D01*
X6255539Y-18079579D02*
X6265063Y-18060531D01*
X6265063Y-18060531D02*
X6274586Y-18051008D01*
X6274586Y-18051008D02*
X6293634Y-18041484D01*
X6446015Y-18222436D02*
X6455539Y-18231960D01*
X6455539Y-18231960D02*
X6446015Y-18241484D01*
X6446015Y-18241484D02*
X6436491Y-18231960D01*
X6436491Y-18231960D02*
X6446015Y-18222436D01*
X6446015Y-18222436D02*
X6446015Y-18241484D01*
X6579348Y-18041484D02*
X6598396Y-18041484D01*
X6598396Y-18041484D02*
X6617444Y-18051008D01*
X6617444Y-18051008D02*
X6626967Y-18060531D01*
X6626967Y-18060531D02*
X6636491Y-18079579D01*
X6636491Y-18079579D02*
X6646015Y-18117674D01*
X6646015Y-18117674D02*
X6646015Y-18165293D01*
X6646015Y-18165293D02*
X6636491Y-18203389D01*
X6636491Y-18203389D02*
X6626967Y-18222436D01*
X6626967Y-18222436D02*
X6617444Y-18231960D01*
X6617444Y-18231960D02*
X6598396Y-18241484D01*
X6598396Y-18241484D02*
X6579348Y-18241484D01*
X6579348Y-18241484D02*
X6560301Y-18231960D01*
X6560301Y-18231960D02*
X6550777Y-18222436D01*
X6550777Y-18222436D02*
X6541253Y-18203389D01*
X6541253Y-18203389D02*
X6531729Y-18165293D01*
X6531729Y-18165293D02*
X6531729Y-18117674D01*
X6531729Y-18117674D02*
X6541253Y-18079579D01*
X6541253Y-18079579D02*
X6550777Y-18060531D01*
X6550777Y-18060531D02*
X6560301Y-18051008D01*
X6560301Y-18051008D02*
X6579348Y-18041484D01*
X6722206Y-18060531D02*
X6731729Y-18051008D01*
X6731729Y-18051008D02*
X6750777Y-18041484D01*
X6750777Y-18041484D02*
X6798396Y-18041484D01*
X6798396Y-18041484D02*
X6817444Y-18051008D01*
X6817444Y-18051008D02*
X6826967Y-18060531D01*
X6826967Y-18060531D02*
X6836491Y-18079579D01*
X6836491Y-18079579D02*
X6836491Y-18098627D01*
X6836491Y-18098627D02*
X6826967Y-18127198D01*
X6826967Y-18127198D02*
X6712682Y-18241484D01*
X6712682Y-18241484D02*
X6836491Y-18241484D01*
X7007920Y-18108150D02*
X7007920Y-18241484D01*
X6960301Y-18031960D02*
X6912682Y-18174817D01*
X6912682Y-18174817D02*
X7036491Y-18174817D01*
X7150777Y-18041484D02*
X7169825Y-18041484D01*
X7169825Y-18041484D02*
X7188872Y-18051008D01*
X7188872Y-18051008D02*
X7198396Y-18060531D01*
X7198396Y-18060531D02*
X7207920Y-18079579D01*
X7207920Y-18079579D02*
X7217444Y-18117674D01*
X7217444Y-18117674D02*
X7217444Y-18165293D01*
X7217444Y-18165293D02*
X7207920Y-18203389D01*
X7207920Y-18203389D02*
X7198396Y-18222436D01*
X7198396Y-18222436D02*
X7188872Y-18231960D01*
X7188872Y-18231960D02*
X7169825Y-18241484D01*
X7169825Y-18241484D02*
X7150777Y-18241484D01*
X7150777Y-18241484D02*
X7131729Y-18231960D01*
X7131729Y-18231960D02*
X7122206Y-18222436D01*
X7122206Y-18222436D02*
X7112682Y-18203389D01*
X7112682Y-18203389D02*
X7103158Y-18165293D01*
X7103158Y-18165293D02*
X7103158Y-18117674D01*
X7103158Y-18117674D02*
X7112682Y-18079579D01*
X7112682Y-18079579D02*
X7122206Y-18060531D01*
X7122206Y-18060531D02*
X7131729Y-18051008D01*
X7131729Y-18051008D02*
X7150777Y-18041484D01*
X7293634Y-18041484D02*
X7293634Y-18079579D01*
X7369825Y-18041484D02*
X7369825Y-18079579D01*
X7665063Y-18317674D02*
X7655539Y-18308150D01*
X7655539Y-18308150D02*
X7636491Y-18279579D01*
X7636491Y-18279579D02*
X7626968Y-18260531D01*
X7626968Y-18260531D02*
X7617444Y-18231960D01*
X7617444Y-18231960D02*
X7607920Y-18184341D01*
X7607920Y-18184341D02*
X7607920Y-18146246D01*
X7607920Y-18146246D02*
X7617444Y-18098627D01*
X7617444Y-18098627D02*
X7626968Y-18070055D01*
X7626968Y-18070055D02*
X7636491Y-18051008D01*
X7636491Y-18051008D02*
X7655539Y-18022436D01*
X7655539Y-18022436D02*
X7665063Y-18012912D01*
X7836491Y-18041484D02*
X7741253Y-18041484D01*
X7741253Y-18041484D02*
X7731729Y-18136722D01*
X7731729Y-18136722D02*
X7741253Y-18127198D01*
X7741253Y-18127198D02*
X7760301Y-18117674D01*
X7760301Y-18117674D02*
X7807920Y-18117674D01*
X7807920Y-18117674D02*
X7826968Y-18127198D01*
X7826968Y-18127198D02*
X7836491Y-18136722D01*
X7836491Y-18136722D02*
X7846015Y-18155770D01*
X7846015Y-18155770D02*
X7846015Y-18203389D01*
X7846015Y-18203389D02*
X7836491Y-18222436D01*
X7836491Y-18222436D02*
X7826968Y-18231960D01*
X7826968Y-18231960D02*
X7807920Y-18241484D01*
X7807920Y-18241484D02*
X7760301Y-18241484D01*
X7760301Y-18241484D02*
X7741253Y-18231960D01*
X7741253Y-18231960D02*
X7731729Y-18222436D01*
X8084110Y-18241484D02*
X8084110Y-18041484D01*
X8169825Y-18241484D02*
X8169825Y-18136722D01*
X8169825Y-18136722D02*
X8160301Y-18117674D01*
X8160301Y-18117674D02*
X8141253Y-18108150D01*
X8141253Y-18108150D02*
X8112682Y-18108150D01*
X8112682Y-18108150D02*
X8093634Y-18117674D01*
X8093634Y-18117674D02*
X8084110Y-18127198D01*
X8293634Y-18241484D02*
X8274587Y-18231960D01*
X8274587Y-18231960D02*
X8265063Y-18222436D01*
X8265063Y-18222436D02*
X8255539Y-18203389D01*
X8255539Y-18203389D02*
X8255539Y-18146246D01*
X8255539Y-18146246D02*
X8265063Y-18127198D01*
X8265063Y-18127198D02*
X8274587Y-18117674D01*
X8274587Y-18117674D02*
X8293634Y-18108150D01*
X8293634Y-18108150D02*
X8322206Y-18108150D01*
X8322206Y-18108150D02*
X8341253Y-18117674D01*
X8341253Y-18117674D02*
X8350777Y-18127198D01*
X8350777Y-18127198D02*
X8360301Y-18146246D01*
X8360301Y-18146246D02*
X8360301Y-18203389D01*
X8360301Y-18203389D02*
X8350777Y-18222436D01*
X8350777Y-18222436D02*
X8341253Y-18231960D01*
X8341253Y-18231960D02*
X8322206Y-18241484D01*
X8322206Y-18241484D02*
X8293634Y-18241484D01*
X8474587Y-18241484D02*
X8455539Y-18231960D01*
X8455539Y-18231960D02*
X8446015Y-18212912D01*
X8446015Y-18212912D02*
X8446015Y-18041484D01*
X8626968Y-18231960D02*
X8607920Y-18241484D01*
X8607920Y-18241484D02*
X8569825Y-18241484D01*
X8569825Y-18241484D02*
X8550777Y-18231960D01*
X8550777Y-18231960D02*
X8541253Y-18212912D01*
X8541253Y-18212912D02*
X8541253Y-18136722D01*
X8541253Y-18136722D02*
X8550777Y-18117674D01*
X8550777Y-18117674D02*
X8569825Y-18108150D01*
X8569825Y-18108150D02*
X8607920Y-18108150D01*
X8607920Y-18108150D02*
X8626968Y-18117674D01*
X8626968Y-18117674D02*
X8636492Y-18136722D01*
X8636492Y-18136722D02*
X8636492Y-18155770D01*
X8636492Y-18155770D02*
X8541253Y-18174817D01*
X8712682Y-18231960D02*
X8731730Y-18241484D01*
X8731730Y-18241484D02*
X8769825Y-18241484D01*
X8769825Y-18241484D02*
X8788873Y-18231960D01*
X8788873Y-18231960D02*
X8798396Y-18212912D01*
X8798396Y-18212912D02*
X8798396Y-18203389D01*
X8798396Y-18203389D02*
X8788873Y-18184341D01*
X8788873Y-18184341D02*
X8769825Y-18174817D01*
X8769825Y-18174817D02*
X8741253Y-18174817D01*
X8741253Y-18174817D02*
X8722206Y-18165293D01*
X8722206Y-18165293D02*
X8712682Y-18146246D01*
X8712682Y-18146246D02*
X8712682Y-18136722D01*
X8712682Y-18136722D02*
X8722206Y-18117674D01*
X8722206Y-18117674D02*
X8741253Y-18108150D01*
X8741253Y-18108150D02*
X8769825Y-18108150D01*
X8769825Y-18108150D02*
X8788873Y-18117674D01*
X8865063Y-18317674D02*
X8874587Y-18308150D01*
X8874587Y-18308150D02*
X8893634Y-18279579D01*
X8893634Y-18279579D02*
X8903158Y-18260531D01*
X8903158Y-18260531D02*
X8912682Y-18231960D01*
X8912682Y-18231960D02*
X8922206Y-18184341D01*
X8922206Y-18184341D02*
X8922206Y-18146246D01*
X8922206Y-18146246D02*
X8912682Y-18098627D01*
X8912682Y-18098627D02*
X8903158Y-18070055D01*
X8903158Y-18070055D02*
X8893634Y-18051008D01*
X8893634Y-18051008D02*
X8874587Y-18022436D01*
X8874587Y-18022436D02*
X8865063Y-18012912D01*
D11*
X4090000Y-18414000D02*
G75*
G02*
X3995000Y-18414000I-47500J0D01*
G01*
X3995000Y-18414000D02*
G75*
G02*
X4090000Y-18414000I47500J0D01*
G01*
D10*
X4388872Y-18305484D02*
X4407920Y-18305484D01*
X4407920Y-18305484D02*
X4426967Y-18315008D01*
X4426967Y-18315008D02*
X4436491Y-18324531D01*
X4436491Y-18324531D02*
X4446015Y-18343579D01*
X4446015Y-18343579D02*
X4455539Y-18381674D01*
X4455539Y-18381674D02*
X4455539Y-18429293D01*
X4455539Y-18429293D02*
X4446015Y-18467389D01*
X4446015Y-18467389D02*
X4436491Y-18486436D01*
X4436491Y-18486436D02*
X4426967Y-18495960D01*
X4426967Y-18495960D02*
X4407920Y-18505484D01*
X4407920Y-18505484D02*
X4388872Y-18505484D01*
X4388872Y-18505484D02*
X4369824Y-18495960D01*
X4369824Y-18495960D02*
X4360301Y-18486436D01*
X4360301Y-18486436D02*
X4350777Y-18467389D01*
X4350777Y-18467389D02*
X4341253Y-18429293D01*
X4341253Y-18429293D02*
X4341253Y-18381674D01*
X4341253Y-18381674D02*
X4350777Y-18343579D01*
X4350777Y-18343579D02*
X4360301Y-18324531D01*
X4360301Y-18324531D02*
X4369824Y-18315008D01*
X4369824Y-18315008D02*
X4388872Y-18305484D01*
X4541253Y-18486436D02*
X4550777Y-18495960D01*
X4550777Y-18495960D02*
X4541253Y-18505484D01*
X4541253Y-18505484D02*
X4531729Y-18495960D01*
X4531729Y-18495960D02*
X4541253Y-18486436D01*
X4541253Y-18486436D02*
X4541253Y-18505484D01*
X4646015Y-18505484D02*
X4684110Y-18505484D01*
X4684110Y-18505484D02*
X4703158Y-18495960D01*
X4703158Y-18495960D02*
X4712682Y-18486436D01*
X4712682Y-18486436D02*
X4731729Y-18457865D01*
X4731729Y-18457865D02*
X4741253Y-18419770D01*
X4741253Y-18419770D02*
X4741253Y-18343579D01*
X4741253Y-18343579D02*
X4731729Y-18324531D01*
X4731729Y-18324531D02*
X4722205Y-18315008D01*
X4722205Y-18315008D02*
X4703158Y-18305484D01*
X4703158Y-18305484D02*
X4665063Y-18305484D01*
X4665063Y-18305484D02*
X4646015Y-18315008D01*
X4646015Y-18315008D02*
X4636491Y-18324531D01*
X4636491Y-18324531D02*
X4626967Y-18343579D01*
X4626967Y-18343579D02*
X4626967Y-18391198D01*
X4626967Y-18391198D02*
X4636491Y-18410246D01*
X4636491Y-18410246D02*
X4646015Y-18419770D01*
X4646015Y-18419770D02*
X4665063Y-18429293D01*
X4665063Y-18429293D02*
X4703158Y-18429293D01*
X4703158Y-18429293D02*
X4722205Y-18419770D01*
X4722205Y-18419770D02*
X4731729Y-18410246D01*
X4731729Y-18410246D02*
X4741253Y-18391198D01*
X4922205Y-18305484D02*
X4826967Y-18305484D01*
X4826967Y-18305484D02*
X4817444Y-18400722D01*
X4817444Y-18400722D02*
X4826967Y-18391198D01*
X4826967Y-18391198D02*
X4846015Y-18381674D01*
X4846015Y-18381674D02*
X4893634Y-18381674D01*
X4893634Y-18381674D02*
X4912682Y-18391198D01*
X4912682Y-18391198D02*
X4922205Y-18400722D01*
X4922205Y-18400722D02*
X4931729Y-18419770D01*
X4931729Y-18419770D02*
X4931729Y-18467389D01*
X4931729Y-18467389D02*
X4922205Y-18486436D01*
X4922205Y-18486436D02*
X4912682Y-18495960D01*
X4912682Y-18495960D02*
X4893634Y-18505484D01*
X4893634Y-18505484D02*
X4846015Y-18505484D01*
X4846015Y-18505484D02*
X4826967Y-18495960D01*
X4826967Y-18495960D02*
X4817444Y-18486436D01*
X5055539Y-18305484D02*
X5074586Y-18305484D01*
X5074586Y-18305484D02*
X5093634Y-18315008D01*
X5093634Y-18315008D02*
X5103158Y-18324531D01*
X5103158Y-18324531D02*
X5112682Y-18343579D01*
X5112682Y-18343579D02*
X5122205Y-18381674D01*
X5122205Y-18381674D02*
X5122205Y-18429293D01*
X5122205Y-18429293D02*
X5112682Y-18467389D01*
X5112682Y-18467389D02*
X5103158Y-18486436D01*
X5103158Y-18486436D02*
X5093634Y-18495960D01*
X5093634Y-18495960D02*
X5074586Y-18505484D01*
X5074586Y-18505484D02*
X5055539Y-18505484D01*
X5055539Y-18505484D02*
X5036491Y-18495960D01*
X5036491Y-18495960D02*
X5026967Y-18486436D01*
X5026967Y-18486436D02*
X5017444Y-18467389D01*
X5017444Y-18467389D02*
X5007920Y-18429293D01*
X5007920Y-18429293D02*
X5007920Y-18381674D01*
X5007920Y-18381674D02*
X5017444Y-18343579D01*
X5017444Y-18343579D02*
X5026967Y-18324531D01*
X5026967Y-18324531D02*
X5036491Y-18315008D01*
X5036491Y-18315008D02*
X5055539Y-18305484D01*
X5207920Y-18505484D02*
X5207920Y-18372150D01*
X5207920Y-18391198D02*
X5217444Y-18381674D01*
X5217444Y-18381674D02*
X5236491Y-18372150D01*
X5236491Y-18372150D02*
X5265063Y-18372150D01*
X5265063Y-18372150D02*
X5284110Y-18381674D01*
X5284110Y-18381674D02*
X5293634Y-18400722D01*
X5293634Y-18400722D02*
X5293634Y-18505484D01*
X5293634Y-18400722D02*
X5303158Y-18381674D01*
X5303158Y-18381674D02*
X5322205Y-18372150D01*
X5322205Y-18372150D02*
X5350777Y-18372150D01*
X5350777Y-18372150D02*
X5369825Y-18381674D01*
X5369825Y-18381674D02*
X5379348Y-18400722D01*
X5379348Y-18400722D02*
X5379348Y-18505484D01*
X5474586Y-18505484D02*
X5474586Y-18372150D01*
X5474586Y-18391198D02*
X5484110Y-18381674D01*
X5484110Y-18381674D02*
X5503158Y-18372150D01*
X5503158Y-18372150D02*
X5531729Y-18372150D01*
X5531729Y-18372150D02*
X5550777Y-18381674D01*
X5550777Y-18381674D02*
X5560301Y-18400722D01*
X5560301Y-18400722D02*
X5560301Y-18505484D01*
X5560301Y-18400722D02*
X5569825Y-18381674D01*
X5569825Y-18381674D02*
X5588872Y-18372150D01*
X5588872Y-18372150D02*
X5617443Y-18372150D01*
X5617443Y-18372150D02*
X5636491Y-18381674D01*
X5636491Y-18381674D02*
X5646015Y-18400722D01*
X5646015Y-18400722D02*
X5646015Y-18505484D01*
X6036491Y-18295960D02*
X5865063Y-18553103D01*
X6293634Y-18305484D02*
X6312682Y-18305484D01*
X6312682Y-18305484D02*
X6331729Y-18315008D01*
X6331729Y-18315008D02*
X6341253Y-18324531D01*
X6341253Y-18324531D02*
X6350777Y-18343579D01*
X6350777Y-18343579D02*
X6360301Y-18381674D01*
X6360301Y-18381674D02*
X6360301Y-18429293D01*
X6360301Y-18429293D02*
X6350777Y-18467389D01*
X6350777Y-18467389D02*
X6341253Y-18486436D01*
X6341253Y-18486436D02*
X6331729Y-18495960D01*
X6331729Y-18495960D02*
X6312682Y-18505484D01*
X6312682Y-18505484D02*
X6293634Y-18505484D01*
X6293634Y-18505484D02*
X6274586Y-18495960D01*
X6274586Y-18495960D02*
X6265063Y-18486436D01*
X6265063Y-18486436D02*
X6255539Y-18467389D01*
X6255539Y-18467389D02*
X6246015Y-18429293D01*
X6246015Y-18429293D02*
X6246015Y-18381674D01*
X6246015Y-18381674D02*
X6255539Y-18343579D01*
X6255539Y-18343579D02*
X6265063Y-18324531D01*
X6265063Y-18324531D02*
X6274586Y-18315008D01*
X6274586Y-18315008D02*
X6293634Y-18305484D01*
X6446015Y-18486436D02*
X6455539Y-18495960D01*
X6455539Y-18495960D02*
X6446015Y-18505484D01*
X6446015Y-18505484D02*
X6436491Y-18495960D01*
X6436491Y-18495960D02*
X6446015Y-18486436D01*
X6446015Y-18486436D02*
X6446015Y-18505484D01*
X6579348Y-18305484D02*
X6598396Y-18305484D01*
X6598396Y-18305484D02*
X6617444Y-18315008D01*
X6617444Y-18315008D02*
X6626967Y-18324531D01*
X6626967Y-18324531D02*
X6636491Y-18343579D01*
X6636491Y-18343579D02*
X6646015Y-18381674D01*
X6646015Y-18381674D02*
X6646015Y-18429293D01*
X6646015Y-18429293D02*
X6636491Y-18467389D01*
X6636491Y-18467389D02*
X6626967Y-18486436D01*
X6626967Y-18486436D02*
X6617444Y-18495960D01*
X6617444Y-18495960D02*
X6598396Y-18505484D01*
X6598396Y-18505484D02*
X6579348Y-18505484D01*
X6579348Y-18505484D02*
X6560301Y-18495960D01*
X6560301Y-18495960D02*
X6550777Y-18486436D01*
X6550777Y-18486436D02*
X6541253Y-18467389D01*
X6541253Y-18467389D02*
X6531729Y-18429293D01*
X6531729Y-18429293D02*
X6531729Y-18381674D01*
X6531729Y-18381674D02*
X6541253Y-18343579D01*
X6541253Y-18343579D02*
X6550777Y-18324531D01*
X6550777Y-18324531D02*
X6560301Y-18315008D01*
X6560301Y-18315008D02*
X6579348Y-18305484D01*
X6712682Y-18305484D02*
X6836491Y-18305484D01*
X6836491Y-18305484D02*
X6769825Y-18381674D01*
X6769825Y-18381674D02*
X6798396Y-18381674D01*
X6798396Y-18381674D02*
X6817444Y-18391198D01*
X6817444Y-18391198D02*
X6826967Y-18400722D01*
X6826967Y-18400722D02*
X6836491Y-18419770D01*
X6836491Y-18419770D02*
X6836491Y-18467389D01*
X6836491Y-18467389D02*
X6826967Y-18486436D01*
X6826967Y-18486436D02*
X6817444Y-18495960D01*
X6817444Y-18495960D02*
X6798396Y-18505484D01*
X6798396Y-18505484D02*
X6741253Y-18505484D01*
X6741253Y-18505484D02*
X6722206Y-18495960D01*
X6722206Y-18495960D02*
X6712682Y-18486436D01*
X6903158Y-18305484D02*
X7036491Y-18305484D01*
X7036491Y-18305484D02*
X6950777Y-18505484D01*
X7198396Y-18372150D02*
X7198396Y-18505484D01*
X7150777Y-18295960D02*
X7103158Y-18438817D01*
X7103158Y-18438817D02*
X7226967Y-18438817D01*
X7293634Y-18305484D02*
X7293634Y-18343579D01*
X7369825Y-18305484D02*
X7369825Y-18343579D01*
X7665063Y-18581674D02*
X7655539Y-18572150D01*
X7655539Y-18572150D02*
X7636491Y-18543579D01*
X7636491Y-18543579D02*
X7626968Y-18524531D01*
X7626968Y-18524531D02*
X7617444Y-18495960D01*
X7617444Y-18495960D02*
X7607920Y-18448341D01*
X7607920Y-18448341D02*
X7607920Y-18410246D01*
X7607920Y-18410246D02*
X7617444Y-18362627D01*
X7617444Y-18362627D02*
X7626968Y-18334055D01*
X7626968Y-18334055D02*
X7636491Y-18315008D01*
X7636491Y-18315008D02*
X7655539Y-18286436D01*
X7655539Y-18286436D02*
X7665063Y-18276912D01*
X7722206Y-18305484D02*
X7846015Y-18305484D01*
X7846015Y-18305484D02*
X7779348Y-18381674D01*
X7779348Y-18381674D02*
X7807920Y-18381674D01*
X7807920Y-18381674D02*
X7826968Y-18391198D01*
X7826968Y-18391198D02*
X7836491Y-18400722D01*
X7836491Y-18400722D02*
X7846015Y-18419770D01*
X7846015Y-18419770D02*
X7846015Y-18467389D01*
X7846015Y-18467389D02*
X7836491Y-18486436D01*
X7836491Y-18486436D02*
X7826968Y-18495960D01*
X7826968Y-18495960D02*
X7807920Y-18505484D01*
X7807920Y-18505484D02*
X7750777Y-18505484D01*
X7750777Y-18505484D02*
X7731729Y-18495960D01*
X7731729Y-18495960D02*
X7722206Y-18486436D01*
X8017444Y-18305484D02*
X7979348Y-18305484D01*
X7979348Y-18305484D02*
X7960301Y-18315008D01*
X7960301Y-18315008D02*
X7950777Y-18324531D01*
X7950777Y-18324531D02*
X7931729Y-18353103D01*
X7931729Y-18353103D02*
X7922206Y-18391198D01*
X7922206Y-18391198D02*
X7922206Y-18467389D01*
X7922206Y-18467389D02*
X7931729Y-18486436D01*
X7931729Y-18486436D02*
X7941253Y-18495960D01*
X7941253Y-18495960D02*
X7960301Y-18505484D01*
X7960301Y-18505484D02*
X7998396Y-18505484D01*
X7998396Y-18505484D02*
X8017444Y-18495960D01*
X8017444Y-18495960D02*
X8026968Y-18486436D01*
X8026968Y-18486436D02*
X8036491Y-18467389D01*
X8036491Y-18467389D02*
X8036491Y-18419770D01*
X8036491Y-18419770D02*
X8026968Y-18400722D01*
X8026968Y-18400722D02*
X8017444Y-18391198D01*
X8017444Y-18391198D02*
X7998396Y-18381674D01*
X7998396Y-18381674D02*
X7960301Y-18381674D01*
X7960301Y-18381674D02*
X7941253Y-18391198D01*
X7941253Y-18391198D02*
X7931729Y-18400722D01*
X7931729Y-18400722D02*
X7922206Y-18419770D01*
X8274587Y-18505484D02*
X8274587Y-18305484D01*
X8360301Y-18505484D02*
X8360301Y-18400722D01*
X8360301Y-18400722D02*
X8350777Y-18381674D01*
X8350777Y-18381674D02*
X8331730Y-18372150D01*
X8331730Y-18372150D02*
X8303158Y-18372150D01*
X8303158Y-18372150D02*
X8284110Y-18381674D01*
X8284110Y-18381674D02*
X8274587Y-18391198D01*
X8484111Y-18505484D02*
X8465063Y-18495960D01*
X8465063Y-18495960D02*
X8455539Y-18486436D01*
X8455539Y-18486436D02*
X8446015Y-18467389D01*
X8446015Y-18467389D02*
X8446015Y-18410246D01*
X8446015Y-18410246D02*
X8455539Y-18391198D01*
X8455539Y-18391198D02*
X8465063Y-18381674D01*
X8465063Y-18381674D02*
X8484111Y-18372150D01*
X8484111Y-18372150D02*
X8512682Y-18372150D01*
X8512682Y-18372150D02*
X8531730Y-18381674D01*
X8531730Y-18381674D02*
X8541253Y-18391198D01*
X8541253Y-18391198D02*
X8550777Y-18410246D01*
X8550777Y-18410246D02*
X8550777Y-18467389D01*
X8550777Y-18467389D02*
X8541253Y-18486436D01*
X8541253Y-18486436D02*
X8531730Y-18495960D01*
X8531730Y-18495960D02*
X8512682Y-18505484D01*
X8512682Y-18505484D02*
X8484111Y-18505484D01*
X8665063Y-18505484D02*
X8646015Y-18495960D01*
X8646015Y-18495960D02*
X8636492Y-18476912D01*
X8636492Y-18476912D02*
X8636492Y-18305484D01*
X8817444Y-18495960D02*
X8798396Y-18505484D01*
X8798396Y-18505484D02*
X8760301Y-18505484D01*
X8760301Y-18505484D02*
X8741253Y-18495960D01*
X8741253Y-18495960D02*
X8731730Y-18476912D01*
X8731730Y-18476912D02*
X8731730Y-18400722D01*
X8731730Y-18400722D02*
X8741253Y-18381674D01*
X8741253Y-18381674D02*
X8760301Y-18372150D01*
X8760301Y-18372150D02*
X8798396Y-18372150D01*
X8798396Y-18372150D02*
X8817444Y-18381674D01*
X8817444Y-18381674D02*
X8826968Y-18400722D01*
X8826968Y-18400722D02*
X8826968Y-18419770D01*
X8826968Y-18419770D02*
X8731730Y-18438817D01*
X8903158Y-18495960D02*
X8922206Y-18505484D01*
X8922206Y-18505484D02*
X8960301Y-18505484D01*
X8960301Y-18505484D02*
X8979349Y-18495960D01*
X8979349Y-18495960D02*
X8988873Y-18476912D01*
X8988873Y-18476912D02*
X8988873Y-18467389D01*
X8988873Y-18467389D02*
X8979349Y-18448341D01*
X8979349Y-18448341D02*
X8960301Y-18438817D01*
X8960301Y-18438817D02*
X8931730Y-18438817D01*
X8931730Y-18438817D02*
X8912682Y-18429293D01*
X8912682Y-18429293D02*
X8903158Y-18410246D01*
X8903158Y-18410246D02*
X8903158Y-18400722D01*
X8903158Y-18400722D02*
X8912682Y-18381674D01*
X8912682Y-18381674D02*
X8931730Y-18372150D01*
X8931730Y-18372150D02*
X8960301Y-18372150D01*
X8960301Y-18372150D02*
X8979349Y-18381674D01*
X9055539Y-18581674D02*
X9065063Y-18572150D01*
X9065063Y-18572150D02*
X9084111Y-18543579D01*
X9084111Y-18543579D02*
X9093634Y-18524531D01*
X9093634Y-18524531D02*
X9103158Y-18495960D01*
X9103158Y-18495960D02*
X9112682Y-18448341D01*
X9112682Y-18448341D02*
X9112682Y-18410246D01*
X9112682Y-18410246D02*
X9103158Y-18362627D01*
X9103158Y-18362627D02*
X9093634Y-18334055D01*
X9093634Y-18334055D02*
X9084111Y-18315008D01*
X9084111Y-18315008D02*
X9065063Y-18286436D01*
X9065063Y-18286436D02*
X9055539Y-18276912D01*
D11*
X4040000Y-18628000D02*
X4040000Y-18728000D01*
X3990000Y-18678000D02*
X4090000Y-18678000D01*
D10*
X4455539Y-18769484D02*
X4341253Y-18769484D01*
X4398396Y-18769484D02*
X4398396Y-18569484D01*
X4398396Y-18569484D02*
X4379348Y-18598055D01*
X4379348Y-18598055D02*
X4360301Y-18617103D01*
X4360301Y-18617103D02*
X4341253Y-18626627D01*
X4541253Y-18750436D02*
X4550777Y-18759960D01*
X4550777Y-18759960D02*
X4541253Y-18769484D01*
X4541253Y-18769484D02*
X4531729Y-18759960D01*
X4531729Y-18759960D02*
X4541253Y-18750436D01*
X4541253Y-18750436D02*
X4541253Y-18769484D01*
X4674586Y-18569484D02*
X4693634Y-18569484D01*
X4693634Y-18569484D02*
X4712682Y-18579008D01*
X4712682Y-18579008D02*
X4722205Y-18588531D01*
X4722205Y-18588531D02*
X4731729Y-18607579D01*
X4731729Y-18607579D02*
X4741253Y-18645674D01*
X4741253Y-18645674D02*
X4741253Y-18693293D01*
X4741253Y-18693293D02*
X4731729Y-18731389D01*
X4731729Y-18731389D02*
X4722205Y-18750436D01*
X4722205Y-18750436D02*
X4712682Y-18759960D01*
X4712682Y-18759960D02*
X4693634Y-18769484D01*
X4693634Y-18769484D02*
X4674586Y-18769484D01*
X4674586Y-18769484D02*
X4655539Y-18759960D01*
X4655539Y-18759960D02*
X4646015Y-18750436D01*
X4646015Y-18750436D02*
X4636491Y-18731389D01*
X4636491Y-18731389D02*
X4626967Y-18693293D01*
X4626967Y-18693293D02*
X4626967Y-18645674D01*
X4626967Y-18645674D02*
X4636491Y-18607579D01*
X4636491Y-18607579D02*
X4646015Y-18588531D01*
X4646015Y-18588531D02*
X4655539Y-18579008D01*
X4655539Y-18579008D02*
X4674586Y-18569484D01*
X4865063Y-18569484D02*
X4884110Y-18569484D01*
X4884110Y-18569484D02*
X4903158Y-18579008D01*
X4903158Y-18579008D02*
X4912682Y-18588531D01*
X4912682Y-18588531D02*
X4922205Y-18607579D01*
X4922205Y-18607579D02*
X4931729Y-18645674D01*
X4931729Y-18645674D02*
X4931729Y-18693293D01*
X4931729Y-18693293D02*
X4922205Y-18731389D01*
X4922205Y-18731389D02*
X4912682Y-18750436D01*
X4912682Y-18750436D02*
X4903158Y-18759960D01*
X4903158Y-18759960D02*
X4884110Y-18769484D01*
X4884110Y-18769484D02*
X4865063Y-18769484D01*
X4865063Y-18769484D02*
X4846015Y-18759960D01*
X4846015Y-18759960D02*
X4836491Y-18750436D01*
X4836491Y-18750436D02*
X4826967Y-18731389D01*
X4826967Y-18731389D02*
X4817444Y-18693293D01*
X4817444Y-18693293D02*
X4817444Y-18645674D01*
X4817444Y-18645674D02*
X4826967Y-18607579D01*
X4826967Y-18607579D02*
X4836491Y-18588531D01*
X4836491Y-18588531D02*
X4846015Y-18579008D01*
X4846015Y-18579008D02*
X4865063Y-18569484D01*
X5055539Y-18569484D02*
X5074586Y-18569484D01*
X5074586Y-18569484D02*
X5093634Y-18579008D01*
X5093634Y-18579008D02*
X5103158Y-18588531D01*
X5103158Y-18588531D02*
X5112682Y-18607579D01*
X5112682Y-18607579D02*
X5122205Y-18645674D01*
X5122205Y-18645674D02*
X5122205Y-18693293D01*
X5122205Y-18693293D02*
X5112682Y-18731389D01*
X5112682Y-18731389D02*
X5103158Y-18750436D01*
X5103158Y-18750436D02*
X5093634Y-18759960D01*
X5093634Y-18759960D02*
X5074586Y-18769484D01*
X5074586Y-18769484D02*
X5055539Y-18769484D01*
X5055539Y-18769484D02*
X5036491Y-18759960D01*
X5036491Y-18759960D02*
X5026967Y-18750436D01*
X5026967Y-18750436D02*
X5017444Y-18731389D01*
X5017444Y-18731389D02*
X5007920Y-18693293D01*
X5007920Y-18693293D02*
X5007920Y-18645674D01*
X5007920Y-18645674D02*
X5017444Y-18607579D01*
X5017444Y-18607579D02*
X5026967Y-18588531D01*
X5026967Y-18588531D02*
X5036491Y-18579008D01*
X5036491Y-18579008D02*
X5055539Y-18569484D01*
X5207920Y-18769484D02*
X5207920Y-18636150D01*
X5207920Y-18655198D02*
X5217444Y-18645674D01*
X5217444Y-18645674D02*
X5236491Y-18636150D01*
X5236491Y-18636150D02*
X5265063Y-18636150D01*
X5265063Y-18636150D02*
X5284110Y-18645674D01*
X5284110Y-18645674D02*
X5293634Y-18664722D01*
X5293634Y-18664722D02*
X5293634Y-18769484D01*
X5293634Y-18664722D02*
X5303158Y-18645674D01*
X5303158Y-18645674D02*
X5322205Y-18636150D01*
X5322205Y-18636150D02*
X5350777Y-18636150D01*
X5350777Y-18636150D02*
X5369825Y-18645674D01*
X5369825Y-18645674D02*
X5379348Y-18664722D01*
X5379348Y-18664722D02*
X5379348Y-18769484D01*
X5474586Y-18769484D02*
X5474586Y-18636150D01*
X5474586Y-18655198D02*
X5484110Y-18645674D01*
X5484110Y-18645674D02*
X5503158Y-18636150D01*
X5503158Y-18636150D02*
X5531729Y-18636150D01*
X5531729Y-18636150D02*
X5550777Y-18645674D01*
X5550777Y-18645674D02*
X5560301Y-18664722D01*
X5560301Y-18664722D02*
X5560301Y-18769484D01*
X5560301Y-18664722D02*
X5569825Y-18645674D01*
X5569825Y-18645674D02*
X5588872Y-18636150D01*
X5588872Y-18636150D02*
X5617443Y-18636150D01*
X5617443Y-18636150D02*
X5636491Y-18645674D01*
X5636491Y-18645674D02*
X5646015Y-18664722D01*
X5646015Y-18664722D02*
X5646015Y-18769484D01*
X6036491Y-18559960D02*
X5865063Y-18817103D01*
X6293634Y-18569484D02*
X6312682Y-18569484D01*
X6312682Y-18569484D02*
X6331729Y-18579008D01*
X6331729Y-18579008D02*
X6341253Y-18588531D01*
X6341253Y-18588531D02*
X6350777Y-18607579D01*
X6350777Y-18607579D02*
X6360301Y-18645674D01*
X6360301Y-18645674D02*
X6360301Y-18693293D01*
X6360301Y-18693293D02*
X6350777Y-18731389D01*
X6350777Y-18731389D02*
X6341253Y-18750436D01*
X6341253Y-18750436D02*
X6331729Y-18759960D01*
X6331729Y-18759960D02*
X6312682Y-18769484D01*
X6312682Y-18769484D02*
X6293634Y-18769484D01*
X6293634Y-18769484D02*
X6274586Y-18759960D01*
X6274586Y-18759960D02*
X6265063Y-18750436D01*
X6265063Y-18750436D02*
X6255539Y-18731389D01*
X6255539Y-18731389D02*
X6246015Y-18693293D01*
X6246015Y-18693293D02*
X6246015Y-18645674D01*
X6246015Y-18645674D02*
X6255539Y-18607579D01*
X6255539Y-18607579D02*
X6265063Y-18588531D01*
X6265063Y-18588531D02*
X6274586Y-18579008D01*
X6274586Y-18579008D02*
X6293634Y-18569484D01*
X6446015Y-18750436D02*
X6455539Y-18759960D01*
X6455539Y-18759960D02*
X6446015Y-18769484D01*
X6446015Y-18769484D02*
X6436491Y-18759960D01*
X6436491Y-18759960D02*
X6446015Y-18750436D01*
X6446015Y-18750436D02*
X6446015Y-18769484D01*
X6579348Y-18569484D02*
X6598396Y-18569484D01*
X6598396Y-18569484D02*
X6617444Y-18579008D01*
X6617444Y-18579008D02*
X6626967Y-18588531D01*
X6626967Y-18588531D02*
X6636491Y-18607579D01*
X6636491Y-18607579D02*
X6646015Y-18645674D01*
X6646015Y-18645674D02*
X6646015Y-18693293D01*
X6646015Y-18693293D02*
X6636491Y-18731389D01*
X6636491Y-18731389D02*
X6626967Y-18750436D01*
X6626967Y-18750436D02*
X6617444Y-18759960D01*
X6617444Y-18759960D02*
X6598396Y-18769484D01*
X6598396Y-18769484D02*
X6579348Y-18769484D01*
X6579348Y-18769484D02*
X6560301Y-18759960D01*
X6560301Y-18759960D02*
X6550777Y-18750436D01*
X6550777Y-18750436D02*
X6541253Y-18731389D01*
X6541253Y-18731389D02*
X6531729Y-18693293D01*
X6531729Y-18693293D02*
X6531729Y-18645674D01*
X6531729Y-18645674D02*
X6541253Y-18607579D01*
X6541253Y-18607579D02*
X6550777Y-18588531D01*
X6550777Y-18588531D02*
X6560301Y-18579008D01*
X6560301Y-18579008D02*
X6579348Y-18569484D01*
X6712682Y-18569484D02*
X6836491Y-18569484D01*
X6836491Y-18569484D02*
X6769825Y-18645674D01*
X6769825Y-18645674D02*
X6798396Y-18645674D01*
X6798396Y-18645674D02*
X6817444Y-18655198D01*
X6817444Y-18655198D02*
X6826967Y-18664722D01*
X6826967Y-18664722D02*
X6836491Y-18683770D01*
X6836491Y-18683770D02*
X6836491Y-18731389D01*
X6836491Y-18731389D02*
X6826967Y-18750436D01*
X6826967Y-18750436D02*
X6817444Y-18759960D01*
X6817444Y-18759960D02*
X6798396Y-18769484D01*
X6798396Y-18769484D02*
X6741253Y-18769484D01*
X6741253Y-18769484D02*
X6722206Y-18759960D01*
X6722206Y-18759960D02*
X6712682Y-18750436D01*
X6931729Y-18769484D02*
X6969825Y-18769484D01*
X6969825Y-18769484D02*
X6988872Y-18759960D01*
X6988872Y-18759960D02*
X6998396Y-18750436D01*
X6998396Y-18750436D02*
X7017444Y-18721865D01*
X7017444Y-18721865D02*
X7026967Y-18683770D01*
X7026967Y-18683770D02*
X7026967Y-18607579D01*
X7026967Y-18607579D02*
X7017444Y-18588531D01*
X7017444Y-18588531D02*
X7007920Y-18579008D01*
X7007920Y-18579008D02*
X6988872Y-18569484D01*
X6988872Y-18569484D02*
X6950777Y-18569484D01*
X6950777Y-18569484D02*
X6931729Y-18579008D01*
X6931729Y-18579008D02*
X6922206Y-18588531D01*
X6922206Y-18588531D02*
X6912682Y-18607579D01*
X6912682Y-18607579D02*
X6912682Y-18655198D01*
X6912682Y-18655198D02*
X6922206Y-18674246D01*
X6922206Y-18674246D02*
X6931729Y-18683770D01*
X6931729Y-18683770D02*
X6950777Y-18693293D01*
X6950777Y-18693293D02*
X6988872Y-18693293D01*
X6988872Y-18693293D02*
X7007920Y-18683770D01*
X7007920Y-18683770D02*
X7017444Y-18674246D01*
X7017444Y-18674246D02*
X7026967Y-18655198D01*
X7198396Y-18636150D02*
X7198396Y-18769484D01*
X7150777Y-18559960D02*
X7103158Y-18702817D01*
X7103158Y-18702817D02*
X7226967Y-18702817D01*
X7293634Y-18569484D02*
X7293634Y-18607579D01*
X7369825Y-18569484D02*
X7369825Y-18607579D01*
X7665063Y-18845674D02*
X7655539Y-18836150D01*
X7655539Y-18836150D02*
X7636491Y-18807579D01*
X7636491Y-18807579D02*
X7626968Y-18788531D01*
X7626968Y-18788531D02*
X7617444Y-18759960D01*
X7617444Y-18759960D02*
X7607920Y-18712341D01*
X7607920Y-18712341D02*
X7607920Y-18674246D01*
X7607920Y-18674246D02*
X7617444Y-18626627D01*
X7617444Y-18626627D02*
X7626968Y-18598055D01*
X7626968Y-18598055D02*
X7636491Y-18579008D01*
X7636491Y-18579008D02*
X7655539Y-18550436D01*
X7655539Y-18550436D02*
X7665063Y-18540912D01*
X7722206Y-18569484D02*
X7855539Y-18569484D01*
X7855539Y-18569484D02*
X7769825Y-18769484D01*
X7922206Y-18588531D02*
X7931729Y-18579008D01*
X7931729Y-18579008D02*
X7950777Y-18569484D01*
X7950777Y-18569484D02*
X7998396Y-18569484D01*
X7998396Y-18569484D02*
X8017444Y-18579008D01*
X8017444Y-18579008D02*
X8026968Y-18588531D01*
X8026968Y-18588531D02*
X8036491Y-18607579D01*
X8036491Y-18607579D02*
X8036491Y-18626627D01*
X8036491Y-18626627D02*
X8026968Y-18655198D01*
X8026968Y-18655198D02*
X7912682Y-18769484D01*
X7912682Y-18769484D02*
X8036491Y-18769484D01*
X8274587Y-18769484D02*
X8274587Y-18569484D01*
X8360301Y-18769484D02*
X8360301Y-18664722D01*
X8360301Y-18664722D02*
X8350777Y-18645674D01*
X8350777Y-18645674D02*
X8331730Y-18636150D01*
X8331730Y-18636150D02*
X8303158Y-18636150D01*
X8303158Y-18636150D02*
X8284110Y-18645674D01*
X8284110Y-18645674D02*
X8274587Y-18655198D01*
X8484111Y-18769484D02*
X8465063Y-18759960D01*
X8465063Y-18759960D02*
X8455539Y-18750436D01*
X8455539Y-18750436D02*
X8446015Y-18731389D01*
X8446015Y-18731389D02*
X8446015Y-18674246D01*
X8446015Y-18674246D02*
X8455539Y-18655198D01*
X8455539Y-18655198D02*
X8465063Y-18645674D01*
X8465063Y-18645674D02*
X8484111Y-18636150D01*
X8484111Y-18636150D02*
X8512682Y-18636150D01*
X8512682Y-18636150D02*
X8531730Y-18645674D01*
X8531730Y-18645674D02*
X8541253Y-18655198D01*
X8541253Y-18655198D02*
X8550777Y-18674246D01*
X8550777Y-18674246D02*
X8550777Y-18731389D01*
X8550777Y-18731389D02*
X8541253Y-18750436D01*
X8541253Y-18750436D02*
X8531730Y-18759960D01*
X8531730Y-18759960D02*
X8512682Y-18769484D01*
X8512682Y-18769484D02*
X8484111Y-18769484D01*
X8665063Y-18769484D02*
X8646015Y-18759960D01*
X8646015Y-18759960D02*
X8636492Y-18740912D01*
X8636492Y-18740912D02*
X8636492Y-18569484D01*
X8817444Y-18759960D02*
X8798396Y-18769484D01*
X8798396Y-18769484D02*
X8760301Y-18769484D01*
X8760301Y-18769484D02*
X8741253Y-18759960D01*
X8741253Y-18759960D02*
X8731730Y-18740912D01*
X8731730Y-18740912D02*
X8731730Y-18664722D01*
X8731730Y-18664722D02*
X8741253Y-18645674D01*
X8741253Y-18645674D02*
X8760301Y-18636150D01*
X8760301Y-18636150D02*
X8798396Y-18636150D01*
X8798396Y-18636150D02*
X8817444Y-18645674D01*
X8817444Y-18645674D02*
X8826968Y-18664722D01*
X8826968Y-18664722D02*
X8826968Y-18683770D01*
X8826968Y-18683770D02*
X8731730Y-18702817D01*
X8903158Y-18759960D02*
X8922206Y-18769484D01*
X8922206Y-18769484D02*
X8960301Y-18769484D01*
X8960301Y-18769484D02*
X8979349Y-18759960D01*
X8979349Y-18759960D02*
X8988873Y-18740912D01*
X8988873Y-18740912D02*
X8988873Y-18731389D01*
X8988873Y-18731389D02*
X8979349Y-18712341D01*
X8979349Y-18712341D02*
X8960301Y-18702817D01*
X8960301Y-18702817D02*
X8931730Y-18702817D01*
X8931730Y-18702817D02*
X8912682Y-18693293D01*
X8912682Y-18693293D02*
X8903158Y-18674246D01*
X8903158Y-18674246D02*
X8903158Y-18664722D01*
X8903158Y-18664722D02*
X8912682Y-18645674D01*
X8912682Y-18645674D02*
X8931730Y-18636150D01*
X8931730Y-18636150D02*
X8960301Y-18636150D01*
X8960301Y-18636150D02*
X8979349Y-18645674D01*
X9055539Y-18845674D02*
X9065063Y-18836150D01*
X9065063Y-18836150D02*
X9084111Y-18807579D01*
X9084111Y-18807579D02*
X9093634Y-18788531D01*
X9093634Y-18788531D02*
X9103158Y-18759960D01*
X9103158Y-18759960D02*
X9112682Y-18712341D01*
X9112682Y-18712341D02*
X9112682Y-18674246D01*
X9112682Y-18674246D02*
X9103158Y-18626627D01*
X9103158Y-18626627D02*
X9093634Y-18598055D01*
X9093634Y-18598055D02*
X9084111Y-18579008D01*
X9084111Y-18579008D02*
X9065063Y-18550436D01*
X9065063Y-18550436D02*
X9055539Y-18540912D01*
M02*
