%TF.GenerationSoftware,KiCad,Pcbnew,9.0.4*%
%TF.CreationDate,2025-12-08T11:00:56+07:00*%
%TF.ProjectId,05_sulfurmonitoring_design_v4_no_display,30355f73-756c-4667-9572-6d6f6e69746f,rev?*%
%TF.SameCoordinates,Original*%
%TF.FileFunction,Soldermask,Bot*%
%TF.FilePolarity,Negative*%
%FSLAX46Y46*%
G04 Gerber Fmt 4.6, Leading zero omitted, Abs format (unit mm)*
G04 Created by KiCad (PCBNEW 9.0.4) date 2025-12-08 11:00:56*
%MOMM*%
%LPD*%
G01*
G04 APERTURE LIST*
G04 Aperture macros list*
%AMRoundRect*
0 Rectangle with rounded corners*
0 $1 Rounding radius*
0 $2 $3 $4 $5 $6 $7 $8 $9 X,Y pos of 4 corners*
0 Add a 4 corners polygon primitive as box body*
4,1,4,$2,$3,$4,$5,$6,$7,$8,$9,$2,$3,0*
0 Add four circle primitives for the rounded corners*
1,1,$1+$1,$2,$3*
1,1,$1+$1,$4,$5*
1,1,$1+$1,$6,$7*
1,1,$1+$1,$8,$9*
0 Add four rect primitives between the rounded corners*
20,1,$1+$1,$2,$3,$4,$5,0*
20,1,$1+$1,$4,$5,$6,$7,0*
20,1,$1+$1,$6,$7,$8,$9,0*
20,1,$1+$1,$8,$9,$2,$3,0*%
G04 Aperture macros list end*
%ADD10RoundRect,0.279883X0.671717X0.796717X-0.671717X0.796717X-0.671717X-0.796717X0.671717X-0.796717X0*%
%ADD11O,1.903200X2.153200*%
%ADD12RoundRect,0.279883X-0.796717X0.671717X-0.796717X-0.671717X0.796717X-0.671717X0.796717X0.671717X0*%
%ADD13O,2.153200X1.903200*%
%ADD14RoundRect,0.101600X0.900000X-0.900000X0.900000X0.900000X-0.900000X0.900000X-0.900000X-0.900000X0*%
%ADD15C,2.003200*%
%ADD16RoundRect,0.279883X-0.821717X0.671717X-0.821717X-0.671717X0.821717X-0.671717X0.821717X0.671717X0*%
%ADD17O,2.203200X1.903200*%
%ADD18RoundRect,0.101600X-0.800000X0.900000X-0.800000X-0.900000X0.800000X-0.900000X0.800000X0.900000X0*%
%ADD19C,1.803200*%
%ADD20RoundRect,0.101600X-0.900000X-0.900000X0.900000X-0.900000X0.900000X0.900000X-0.900000X0.900000X0*%
%ADD21RoundRect,0.101600X0.900000X0.900000X-0.900000X0.900000X-0.900000X-0.900000X0.900000X-0.900000X0*%
G04 APERTURE END LIST*
D10*
%TO.C,I3*%
X104020000Y-167640000D03*
D11*
X101520000Y-167640000D03*
X99020000Y-167640000D03*
X96520000Y-167640000D03*
%TD*%
D12*
%TO.C,U9*%
X123190000Y-111760000D03*
D13*
X123190000Y-114260000D03*
X123190000Y-116760000D03*
X123190000Y-119260000D03*
%TD*%
D10*
%TO.C,I2*%
X119220000Y-167550000D03*
D11*
X116720000Y-167550000D03*
X114220000Y-167550000D03*
X111720000Y-167550000D03*
%TD*%
D14*
%TO.C,I6*%
X84455001Y-130175000D03*
D15*
X86995001Y-130175000D03*
X89535001Y-130175000D03*
X92075001Y-130175000D03*
X94615001Y-130175000D03*
X97155001Y-130175000D03*
D14*
X86995000Y-94615000D03*
D15*
X89535000Y-94615000D03*
X92075000Y-94615000D03*
X94615000Y-94615000D03*
%TD*%
D16*
%TO.C,BAT*%
X48260000Y-100330000D03*
D17*
X48260000Y-102830000D03*
%TD*%
D18*
%TO.C,U1*%
X50800000Y-156210000D03*
D15*
X53340000Y-156210000D03*
X55880000Y-156210000D03*
X58420000Y-156210000D03*
X60960000Y-156210000D03*
X63500000Y-156210000D03*
X66040000Y-156210000D03*
X68580000Y-156210000D03*
X71120000Y-156210000D03*
X73660000Y-156210000D03*
X76200000Y-156210000D03*
X78740000Y-156210000D03*
X81280000Y-156210000D03*
X83820000Y-156210000D03*
X86360000Y-156210000D03*
X88900000Y-156210000D03*
X91440000Y-156210000D03*
X93980000Y-156210000D03*
X96520000Y-156210000D03*
X99060000Y-156210000D03*
D18*
X50800000Y-135890000D03*
D15*
X53340000Y-135890000D03*
X55880000Y-135890000D03*
X58420000Y-135890000D03*
X60960000Y-135890000D03*
X63500000Y-135890000D03*
X66040000Y-135890000D03*
X68580000Y-135890000D03*
X71120000Y-135890000D03*
X73660000Y-135890000D03*
X76200000Y-135890000D03*
X78740000Y-135890000D03*
X81280000Y-135890000D03*
X83820000Y-135890000D03*
X86360000Y-135890000D03*
X88900000Y-135890000D03*
X91440000Y-135890000D03*
X93980000Y-135890000D03*
X96520000Y-135890000D03*
D19*
X99060000Y-135890000D03*
%TD*%
D20*
%TO.C,U3*%
X109220000Y-134620000D03*
D15*
X111760000Y-134620000D03*
X114300000Y-134620000D03*
X116840000Y-134620000D03*
X119380000Y-134620000D03*
X121920000Y-134620000D03*
%TD*%
D12*
%TO.C,U7*%
X113030000Y-96520000D03*
D13*
X113030000Y-99020000D03*
X113030000Y-101520000D03*
X113030000Y-104020000D03*
%TD*%
D12*
%TO.C,U8*%
X123190000Y-96520000D03*
D13*
X123190000Y-99020000D03*
X123190000Y-101520000D03*
X123190000Y-104020000D03*
%TD*%
D10*
%TO.C,U2*%
X73420000Y-167550000D03*
D11*
X70920000Y-167550000D03*
X68420000Y-167550000D03*
X65920000Y-167550000D03*
%TD*%
D10*
%TO.C,U4*%
X58180000Y-167460000D03*
D11*
X55680000Y-167460000D03*
X53180000Y-167460000D03*
X50680000Y-167460000D03*
%TD*%
D10*
%TO.C,I1*%
X88660000Y-167550000D03*
D11*
X86160000Y-167550000D03*
X83660000Y-167550000D03*
X81160000Y-167550000D03*
%TD*%
D15*
%TO.C,U6*%
X57150000Y-104775000D03*
X57150000Y-107315000D03*
D20*
X57150000Y-94615000D03*
X57150000Y-97155000D03*
D15*
X74930000Y-104775000D03*
X74930000Y-107315000D03*
D20*
X74930000Y-94615000D03*
X74930000Y-97155000D03*
%TD*%
D21*
%TO.C,I5*%
X63500000Y-113030000D03*
D15*
X60960000Y-113030000D03*
X58420000Y-113030000D03*
X55880000Y-113030000D03*
X53340000Y-113030000D03*
X50800000Y-113030000D03*
%TD*%
D12*
%TO.C,U5*%
X113030000Y-111760000D03*
D13*
X113030000Y-114260000D03*
X113030000Y-116760000D03*
X113030000Y-119260000D03*
%TD*%
M02*
