M48
; DRILL file {KiCad 9.0.4} date 2025-12-08T11:00:42+0700
; FORMAT={-:-/ absolute / metric / decimal}
; #@! TF.CreationDate,2025-12-08T11:00:42+07:00
; #@! TF.GenerationSoftware,Kicad,Pcbnew,9.0.4
; #@! TF.FileFunction,Plated,1,2,PTH
FMAT,2
METRIC
; #@! TA.AperFunction,Plated,PTH,ViaDrill
T1C0.610
; #@! TA.AperFunction,Plated,PTH,ComponentDrill
T2C0.950
; #@! TA.AperFunction,Plated,PTH,ComponentDrill
T3C1.000
%
G90
G05
T1
X48.26Y-76.2
X53.34Y-76.708
X74.93Y-76.2
X93.98Y-85.09
X115.57Y-63.5
T2
X50.68Y-167.46
X53.18Y-167.46
X55.68Y-167.46
X58.18Y-167.46
X65.92Y-167.55
X68.42Y-167.55
X70.92Y-167.55
X73.42Y-167.55
X81.16Y-167.55
X83.66Y-167.55
X86.16Y-167.55
X88.66Y-167.55
X96.52Y-167.64
X99.02Y-167.64
X101.52Y-167.64
X104.02Y-167.64
X111.72Y-167.55
X113.03Y-96.52
X113.03Y-99.02
X113.03Y-101.52
X113.03Y-104.02
X113.03Y-111.76
X113.03Y-114.26
X113.03Y-116.76
X113.03Y-119.26
X114.22Y-167.55
X116.72Y-167.55
X119.22Y-167.55
X123.19Y-96.52
X123.19Y-99.02
X123.19Y-101.52
X123.19Y-104.02
X123.19Y-111.76
X123.19Y-114.26
X123.19Y-116.76
X123.19Y-119.26
T3
X48.26Y-100.33
X48.26Y-102.83
X50.8Y-113.03
X50.8Y-135.89
X50.8Y-156.21
X53.34Y-113.03
X53.34Y-135.89
X53.34Y-156.21
X55.88Y-113.03
X55.88Y-135.89
X55.88Y-156.21
X57.15Y-94.615
X57.15Y-97.155
X57.15Y-104.775
X57.15Y-107.315
X58.42Y-113.03
X58.42Y-135.89
X58.42Y-156.21
X60.96Y-113.03
X60.96Y-135.89
X60.96Y-156.21
X63.5Y-113.03
X63.5Y-135.89
X63.5Y-156.21
X66.04Y-135.89
X66.04Y-156.21
X68.58Y-135.89
X68.58Y-156.21
X71.12Y-135.89
X71.12Y-156.21
X73.66Y-135.89
X73.66Y-156.21
X74.93Y-94.615
X74.93Y-97.155
X74.93Y-104.775
X74.93Y-107.315
X76.2Y-135.89
X76.2Y-156.21
X78.74Y-135.89
X78.74Y-156.21
X81.28Y-135.89
X81.28Y-156.21
X83.82Y-135.89
X83.82Y-156.21
X84.455Y-130.175
X86.36Y-135.89
X86.36Y-156.21
X86.995Y-94.615
X86.995Y-130.175
X88.9Y-135.89
X88.9Y-156.21
X89.535Y-94.615
X89.535Y-130.175
X91.44Y-135.89
X91.44Y-156.21
X92.075Y-94.615
X92.075Y-130.175
X93.98Y-135.89
X93.98Y-156.21
X94.615Y-94.615
X94.615Y-130.175
X96.52Y-135.89
X96.52Y-156.21
X97.155Y-130.175
X99.06Y-135.89
X99.06Y-156.21
X109.22Y-134.62
X111.76Y-134.62
X114.3Y-134.62
X116.84Y-134.62
X119.38Y-134.62
X121.92Y-134.62
M30
