%TF.GenerationSoftware,KiCad,Pcbnew,9.0.4*%
%TF.CreationDate,2025-12-08T11:00:56+07:00*%
%TF.ProjectId,05_sulfurmonitoring_design_v4_no_display,30355f73-756c-4667-9572-6d6f6e69746f,rev?*%
%TF.SameCoordinates,Original*%
%TF.FileFunction,Legend,Top*%
%TF.FilePolarity,Positive*%
%FSLAX46Y46*%
G04 Gerber Fmt 4.6, Leading zero omitted, Abs format (unit mm)*
G04 Created by KiCad (PCBNEW 9.0.4) date 2025-12-08 11:00:56*
%MOMM*%
%LPD*%
G01*
G04 APERTURE LIST*
%ADD10C,0.635000*%
%ADD11C,0.300000*%
%ADD12C,0.150000*%
%ADD13C,0.120000*%
%ADD14C,0.100000*%
%ADD15C,0.127000*%
G04 APERTURE END LIST*
D10*
X96913572Y-77716451D02*
X97276429Y-77837403D01*
X97276429Y-77837403D02*
X97881191Y-77837403D01*
X97881191Y-77837403D02*
X98123096Y-77716451D01*
X98123096Y-77716451D02*
X98244048Y-77595498D01*
X98244048Y-77595498D02*
X98365001Y-77353593D01*
X98365001Y-77353593D02*
X98365001Y-77111689D01*
X98365001Y-77111689D02*
X98244048Y-76869784D01*
X98244048Y-76869784D02*
X98123096Y-76748831D01*
X98123096Y-76748831D02*
X97881191Y-76627879D01*
X97881191Y-76627879D02*
X97397382Y-76506927D01*
X97397382Y-76506927D02*
X97155477Y-76385974D01*
X97155477Y-76385974D02*
X97034524Y-76265022D01*
X97034524Y-76265022D02*
X96913572Y-76023117D01*
X96913572Y-76023117D02*
X96913572Y-75781212D01*
X96913572Y-75781212D02*
X97034524Y-75539308D01*
X97034524Y-75539308D02*
X97155477Y-75418355D01*
X97155477Y-75418355D02*
X97397382Y-75297403D01*
X97397382Y-75297403D02*
X98002143Y-75297403D01*
X98002143Y-75297403D02*
X98365001Y-75418355D01*
X99453572Y-75297403D02*
X99453572Y-77353593D01*
X99453572Y-77353593D02*
X99574525Y-77595498D01*
X99574525Y-77595498D02*
X99695477Y-77716451D01*
X99695477Y-77716451D02*
X99937382Y-77837403D01*
X99937382Y-77837403D02*
X100421191Y-77837403D01*
X100421191Y-77837403D02*
X100663096Y-77716451D01*
X100663096Y-77716451D02*
X100784049Y-77595498D01*
X100784049Y-77595498D02*
X100905001Y-77353593D01*
X100905001Y-77353593D02*
X100905001Y-75297403D01*
X103324048Y-77837403D02*
X102114524Y-77837403D01*
X102114524Y-77837403D02*
X102114524Y-75297403D01*
X105017381Y-76506927D02*
X104170714Y-76506927D01*
X104170714Y-77837403D02*
X104170714Y-75297403D01*
X104170714Y-75297403D02*
X105380238Y-75297403D01*
X106347857Y-75297403D02*
X106347857Y-77353593D01*
X106347857Y-77353593D02*
X106468810Y-77595498D01*
X106468810Y-77595498D02*
X106589762Y-77716451D01*
X106589762Y-77716451D02*
X106831667Y-77837403D01*
X106831667Y-77837403D02*
X107315476Y-77837403D01*
X107315476Y-77837403D02*
X107557381Y-77716451D01*
X107557381Y-77716451D02*
X107678334Y-77595498D01*
X107678334Y-77595498D02*
X107799286Y-77353593D01*
X107799286Y-77353593D02*
X107799286Y-75297403D01*
X110460238Y-77837403D02*
X109613571Y-76627879D01*
X109008809Y-77837403D02*
X109008809Y-75297403D01*
X109008809Y-75297403D02*
X109976428Y-75297403D01*
X109976428Y-75297403D02*
X110218333Y-75418355D01*
X110218333Y-75418355D02*
X110339286Y-75539308D01*
X110339286Y-75539308D02*
X110460238Y-75781212D01*
X110460238Y-75781212D02*
X110460238Y-76144070D01*
X110460238Y-76144070D02*
X110339286Y-76385974D01*
X110339286Y-76385974D02*
X110218333Y-76506927D01*
X110218333Y-76506927D02*
X109976428Y-76627879D01*
X109976428Y-76627879D02*
X109008809Y-76627879D01*
X97034524Y-81926661D02*
X97034524Y-79386661D01*
X97034524Y-79386661D02*
X97881191Y-81200947D01*
X97881191Y-81200947D02*
X98727858Y-79386661D01*
X98727858Y-79386661D02*
X98727858Y-81926661D01*
X100421191Y-79386661D02*
X100905000Y-79386661D01*
X100905000Y-79386661D02*
X101146905Y-79507613D01*
X101146905Y-79507613D02*
X101388810Y-79749518D01*
X101388810Y-79749518D02*
X101509762Y-80233328D01*
X101509762Y-80233328D02*
X101509762Y-81079994D01*
X101509762Y-81079994D02*
X101388810Y-81563804D01*
X101388810Y-81563804D02*
X101146905Y-81805709D01*
X101146905Y-81805709D02*
X100905000Y-81926661D01*
X100905000Y-81926661D02*
X100421191Y-81926661D01*
X100421191Y-81926661D02*
X100179286Y-81805709D01*
X100179286Y-81805709D02*
X99937381Y-81563804D01*
X99937381Y-81563804D02*
X99816429Y-81079994D01*
X99816429Y-81079994D02*
X99816429Y-80233328D01*
X99816429Y-80233328D02*
X99937381Y-79749518D01*
X99937381Y-79749518D02*
X100179286Y-79507613D01*
X100179286Y-79507613D02*
X100421191Y-79386661D01*
X102598333Y-81926661D02*
X102598333Y-79386661D01*
X102598333Y-79386661D02*
X104049762Y-81926661D01*
X104049762Y-81926661D02*
X104049762Y-79386661D01*
X105259285Y-81926661D02*
X105259285Y-79386661D01*
X106105952Y-79386661D02*
X107557381Y-79386661D01*
X106831667Y-81926661D02*
X106831667Y-79386661D01*
X108887857Y-79386661D02*
X109371666Y-79386661D01*
X109371666Y-79386661D02*
X109613571Y-79507613D01*
X109613571Y-79507613D02*
X109855476Y-79749518D01*
X109855476Y-79749518D02*
X109976428Y-80233328D01*
X109976428Y-80233328D02*
X109976428Y-81079994D01*
X109976428Y-81079994D02*
X109855476Y-81563804D01*
X109855476Y-81563804D02*
X109613571Y-81805709D01*
X109613571Y-81805709D02*
X109371666Y-81926661D01*
X109371666Y-81926661D02*
X108887857Y-81926661D01*
X108887857Y-81926661D02*
X108645952Y-81805709D01*
X108645952Y-81805709D02*
X108404047Y-81563804D01*
X108404047Y-81563804D02*
X108283095Y-81079994D01*
X108283095Y-81079994D02*
X108283095Y-80233328D01*
X108283095Y-80233328D02*
X108404047Y-79749518D01*
X108404047Y-79749518D02*
X108645952Y-79507613D01*
X108645952Y-79507613D02*
X108887857Y-79386661D01*
X112516428Y-81926661D02*
X111669761Y-80717137D01*
X111064999Y-81926661D02*
X111064999Y-79386661D01*
X111064999Y-79386661D02*
X112032618Y-79386661D01*
X112032618Y-79386661D02*
X112274523Y-79507613D01*
X112274523Y-79507613D02*
X112395476Y-79628566D01*
X112395476Y-79628566D02*
X112516428Y-79870470D01*
X112516428Y-79870470D02*
X112516428Y-80233328D01*
X112516428Y-80233328D02*
X112395476Y-80475232D01*
X112395476Y-80475232D02*
X112274523Y-80596185D01*
X112274523Y-80596185D02*
X112032618Y-80717137D01*
X112032618Y-80717137D02*
X111064999Y-80717137D01*
X113604999Y-81926661D02*
X113604999Y-79386661D01*
X114814523Y-81926661D02*
X114814523Y-79386661D01*
X114814523Y-79386661D02*
X116265952Y-81926661D01*
X116265952Y-81926661D02*
X116265952Y-79386661D01*
X118805952Y-79507613D02*
X118564047Y-79386661D01*
X118564047Y-79386661D02*
X118201190Y-79386661D01*
X118201190Y-79386661D02*
X117838333Y-79507613D01*
X117838333Y-79507613D02*
X117596428Y-79749518D01*
X117596428Y-79749518D02*
X117475475Y-79991423D01*
X117475475Y-79991423D02*
X117354523Y-80475232D01*
X117354523Y-80475232D02*
X117354523Y-80838089D01*
X117354523Y-80838089D02*
X117475475Y-81321899D01*
X117475475Y-81321899D02*
X117596428Y-81563804D01*
X117596428Y-81563804D02*
X117838333Y-81805709D01*
X117838333Y-81805709D02*
X118201190Y-81926661D01*
X118201190Y-81926661D02*
X118443094Y-81926661D01*
X118443094Y-81926661D02*
X118805952Y-81805709D01*
X118805952Y-81805709D02*
X118926904Y-81684756D01*
X118926904Y-81684756D02*
X118926904Y-80838089D01*
X118926904Y-80838089D02*
X118443094Y-80838089D01*
D11*
X97019748Y-84899926D02*
X97019748Y-84053259D01*
X97019748Y-84174211D02*
X97080225Y-84113735D01*
X97080225Y-84113735D02*
X97201177Y-84053259D01*
X97201177Y-84053259D02*
X97382606Y-84053259D01*
X97382606Y-84053259D02*
X97503558Y-84113735D01*
X97503558Y-84113735D02*
X97564034Y-84234688D01*
X97564034Y-84234688D02*
X97564034Y-84899926D01*
X97564034Y-84234688D02*
X97624510Y-84113735D01*
X97624510Y-84113735D02*
X97745463Y-84053259D01*
X97745463Y-84053259D02*
X97926891Y-84053259D01*
X97926891Y-84053259D02*
X98047844Y-84113735D01*
X98047844Y-84113735D02*
X98108320Y-84234688D01*
X98108320Y-84234688D02*
X98108320Y-84899926D01*
X99257367Y-84899926D02*
X99257367Y-84234688D01*
X99257367Y-84234688D02*
X99196891Y-84113735D01*
X99196891Y-84113735D02*
X99075939Y-84053259D01*
X99075939Y-84053259D02*
X98834034Y-84053259D01*
X98834034Y-84053259D02*
X98713081Y-84113735D01*
X99257367Y-84839450D02*
X99136415Y-84899926D01*
X99136415Y-84899926D02*
X98834034Y-84899926D01*
X98834034Y-84899926D02*
X98713081Y-84839450D01*
X98713081Y-84839450D02*
X98652605Y-84718497D01*
X98652605Y-84718497D02*
X98652605Y-84597545D01*
X98652605Y-84597545D02*
X98713081Y-84476592D01*
X98713081Y-84476592D02*
X98834034Y-84416116D01*
X98834034Y-84416116D02*
X99136415Y-84416116D01*
X99136415Y-84416116D02*
X99257367Y-84355640D01*
X100406415Y-84899926D02*
X100406415Y-83629926D01*
X100406415Y-84839450D02*
X100285463Y-84899926D01*
X100285463Y-84899926D02*
X100043558Y-84899926D01*
X100043558Y-84899926D02*
X99922606Y-84839450D01*
X99922606Y-84839450D02*
X99862129Y-84778973D01*
X99862129Y-84778973D02*
X99801653Y-84658021D01*
X99801653Y-84658021D02*
X99801653Y-84295164D01*
X99801653Y-84295164D02*
X99862129Y-84174211D01*
X99862129Y-84174211D02*
X99922606Y-84113735D01*
X99922606Y-84113735D02*
X100043558Y-84053259D01*
X100043558Y-84053259D02*
X100285463Y-84053259D01*
X100285463Y-84053259D02*
X100406415Y-84113735D01*
X101494987Y-84839450D02*
X101374035Y-84899926D01*
X101374035Y-84899926D02*
X101132130Y-84899926D01*
X101132130Y-84899926D02*
X101011177Y-84839450D01*
X101011177Y-84839450D02*
X100950701Y-84718497D01*
X100950701Y-84718497D02*
X100950701Y-84234688D01*
X100950701Y-84234688D02*
X101011177Y-84113735D01*
X101011177Y-84113735D02*
X101132130Y-84053259D01*
X101132130Y-84053259D02*
X101374035Y-84053259D01*
X101374035Y-84053259D02*
X101494987Y-84113735D01*
X101494987Y-84113735D02*
X101555463Y-84234688D01*
X101555463Y-84234688D02*
X101555463Y-84355640D01*
X101555463Y-84355640D02*
X100950701Y-84476592D01*
X103067367Y-84899926D02*
X103067367Y-83629926D01*
X103067367Y-84113735D02*
X103188320Y-84053259D01*
X103188320Y-84053259D02*
X103430225Y-84053259D01*
X103430225Y-84053259D02*
X103551177Y-84113735D01*
X103551177Y-84113735D02*
X103611653Y-84174211D01*
X103611653Y-84174211D02*
X103672129Y-84295164D01*
X103672129Y-84295164D02*
X103672129Y-84658021D01*
X103672129Y-84658021D02*
X103611653Y-84778973D01*
X103611653Y-84778973D02*
X103551177Y-84839450D01*
X103551177Y-84839450D02*
X103430225Y-84899926D01*
X103430225Y-84899926D02*
X103188320Y-84899926D01*
X103188320Y-84899926D02*
X103067367Y-84839450D01*
X104095463Y-84053259D02*
X104397844Y-84899926D01*
X104700225Y-84053259D02*
X104397844Y-84899926D01*
X104397844Y-84899926D02*
X104276892Y-85202307D01*
X104276892Y-85202307D02*
X104216415Y-85262783D01*
X104216415Y-85262783D02*
X104095463Y-85323259D01*
X106091177Y-84839450D02*
X106272606Y-84899926D01*
X106272606Y-84899926D02*
X106574987Y-84899926D01*
X106574987Y-84899926D02*
X106695939Y-84839450D01*
X106695939Y-84839450D02*
X106756415Y-84778973D01*
X106756415Y-84778973D02*
X106816892Y-84658021D01*
X106816892Y-84658021D02*
X106816892Y-84537069D01*
X106816892Y-84537069D02*
X106756415Y-84416116D01*
X106756415Y-84416116D02*
X106695939Y-84355640D01*
X106695939Y-84355640D02*
X106574987Y-84295164D01*
X106574987Y-84295164D02*
X106333082Y-84234688D01*
X106333082Y-84234688D02*
X106212130Y-84174211D01*
X106212130Y-84174211D02*
X106151653Y-84113735D01*
X106151653Y-84113735D02*
X106091177Y-83992783D01*
X106091177Y-83992783D02*
X106091177Y-83871830D01*
X106091177Y-83871830D02*
X106151653Y-83750878D01*
X106151653Y-83750878D02*
X106212130Y-83690402D01*
X106212130Y-83690402D02*
X106333082Y-83629926D01*
X106333082Y-83629926D02*
X106635463Y-83629926D01*
X106635463Y-83629926D02*
X106816892Y-83690402D01*
X107179749Y-83629926D02*
X107905463Y-83629926D01*
X107542606Y-84899926D02*
X107542606Y-83629926D01*
X108268320Y-84537069D02*
X108873082Y-84537069D01*
X108147368Y-84899926D02*
X108570701Y-83629926D01*
X108570701Y-83629926D02*
X108994035Y-84899926D01*
X109356891Y-84839450D02*
X109538320Y-84899926D01*
X109538320Y-84899926D02*
X109840701Y-84899926D01*
X109840701Y-84899926D02*
X109961653Y-84839450D01*
X109961653Y-84839450D02*
X110022129Y-84778973D01*
X110022129Y-84778973D02*
X110082606Y-84658021D01*
X110082606Y-84658021D02*
X110082606Y-84537069D01*
X110082606Y-84537069D02*
X110022129Y-84416116D01*
X110022129Y-84416116D02*
X109961653Y-84355640D01*
X109961653Y-84355640D02*
X109840701Y-84295164D01*
X109840701Y-84295164D02*
X109598796Y-84234688D01*
X109598796Y-84234688D02*
X109477844Y-84174211D01*
X109477844Y-84174211D02*
X109417367Y-84113735D01*
X109417367Y-84113735D02*
X109356891Y-83992783D01*
X109356891Y-83992783D02*
X109356891Y-83871830D01*
X109356891Y-83871830D02*
X109417367Y-83750878D01*
X109417367Y-83750878D02*
X109477844Y-83690402D01*
X109477844Y-83690402D02*
X109598796Y-83629926D01*
X109598796Y-83629926D02*
X109901177Y-83629926D01*
X109901177Y-83629926D02*
X110082606Y-83690402D01*
X110626891Y-84416116D02*
X111594511Y-84416116D01*
X112924987Y-84899926D02*
X112501653Y-84295164D01*
X112199272Y-84899926D02*
X112199272Y-83629926D01*
X112199272Y-83629926D02*
X112683082Y-83629926D01*
X112683082Y-83629926D02*
X112804034Y-83690402D01*
X112804034Y-83690402D02*
X112864511Y-83750878D01*
X112864511Y-83750878D02*
X112924987Y-83871830D01*
X112924987Y-83871830D02*
X112924987Y-84053259D01*
X112924987Y-84053259D02*
X112864511Y-84174211D01*
X112864511Y-84174211D02*
X112804034Y-84234688D01*
X112804034Y-84234688D02*
X112683082Y-84295164D01*
X112683082Y-84295164D02*
X112199272Y-84295164D01*
X114134511Y-83690402D02*
X114013558Y-83629926D01*
X114013558Y-83629926D02*
X113832130Y-83629926D01*
X113832130Y-83629926D02*
X113650701Y-83690402D01*
X113650701Y-83690402D02*
X113529749Y-83811354D01*
X113529749Y-83811354D02*
X113469272Y-83932307D01*
X113469272Y-83932307D02*
X113408796Y-84174211D01*
X113408796Y-84174211D02*
X113408796Y-84355640D01*
X113408796Y-84355640D02*
X113469272Y-84597545D01*
X113469272Y-84597545D02*
X113529749Y-84718497D01*
X113529749Y-84718497D02*
X113650701Y-84839450D01*
X113650701Y-84839450D02*
X113832130Y-84899926D01*
X113832130Y-84899926D02*
X113953082Y-84899926D01*
X113953082Y-84899926D02*
X114134511Y-84839450D01*
X114134511Y-84839450D02*
X114194987Y-84778973D01*
X114194987Y-84778973D02*
X114194987Y-84355640D01*
X114194987Y-84355640D02*
X113953082Y-84355640D01*
X96838320Y-87687612D02*
X97261653Y-88957612D01*
X97261653Y-88957612D02*
X97684987Y-87687612D01*
X98108319Y-88292374D02*
X98531653Y-88292374D01*
X98713081Y-88957612D02*
X98108319Y-88957612D01*
X98108319Y-88957612D02*
X98108319Y-87687612D01*
X98108319Y-87687612D02*
X98713081Y-87687612D01*
X99983082Y-88957612D02*
X99559748Y-88352850D01*
X99257367Y-88957612D02*
X99257367Y-87687612D01*
X99257367Y-87687612D02*
X99741177Y-87687612D01*
X99741177Y-87687612D02*
X99862129Y-87748088D01*
X99862129Y-87748088D02*
X99922606Y-87808564D01*
X99922606Y-87808564D02*
X99983082Y-87929516D01*
X99983082Y-87929516D02*
X99983082Y-88110945D01*
X99983082Y-88110945D02*
X99922606Y-88231897D01*
X99922606Y-88231897D02*
X99862129Y-88292374D01*
X99862129Y-88292374D02*
X99741177Y-88352850D01*
X99741177Y-88352850D02*
X99257367Y-88352850D01*
X100466891Y-88897136D02*
X100648320Y-88957612D01*
X100648320Y-88957612D02*
X100950701Y-88957612D01*
X100950701Y-88957612D02*
X101071653Y-88897136D01*
X101071653Y-88897136D02*
X101132129Y-88836659D01*
X101132129Y-88836659D02*
X101192606Y-88715707D01*
X101192606Y-88715707D02*
X101192606Y-88594755D01*
X101192606Y-88594755D02*
X101132129Y-88473802D01*
X101132129Y-88473802D02*
X101071653Y-88413326D01*
X101071653Y-88413326D02*
X100950701Y-88352850D01*
X100950701Y-88352850D02*
X100708796Y-88292374D01*
X100708796Y-88292374D02*
X100587844Y-88231897D01*
X100587844Y-88231897D02*
X100527367Y-88171421D01*
X100527367Y-88171421D02*
X100466891Y-88050469D01*
X100466891Y-88050469D02*
X100466891Y-87929516D01*
X100466891Y-87929516D02*
X100527367Y-87808564D01*
X100527367Y-87808564D02*
X100587844Y-87748088D01*
X100587844Y-87748088D02*
X100708796Y-87687612D01*
X100708796Y-87687612D02*
X101011177Y-87687612D01*
X101011177Y-87687612D02*
X101192606Y-87748088D01*
X101736891Y-88957612D02*
X101736891Y-87687612D01*
X102583558Y-87687612D02*
X102825463Y-87687612D01*
X102825463Y-87687612D02*
X102946415Y-87748088D01*
X102946415Y-87748088D02*
X103067368Y-87869040D01*
X103067368Y-87869040D02*
X103127844Y-88110945D01*
X103127844Y-88110945D02*
X103127844Y-88534278D01*
X103127844Y-88534278D02*
X103067368Y-88776183D01*
X103067368Y-88776183D02*
X102946415Y-88897136D01*
X102946415Y-88897136D02*
X102825463Y-88957612D01*
X102825463Y-88957612D02*
X102583558Y-88957612D01*
X102583558Y-88957612D02*
X102462606Y-88897136D01*
X102462606Y-88897136D02*
X102341653Y-88776183D01*
X102341653Y-88776183D02*
X102281177Y-88534278D01*
X102281177Y-88534278D02*
X102281177Y-88110945D01*
X102281177Y-88110945D02*
X102341653Y-87869040D01*
X102341653Y-87869040D02*
X102462606Y-87748088D01*
X102462606Y-87748088D02*
X102583558Y-87687612D01*
X103672129Y-88957612D02*
X103672129Y-87687612D01*
X103672129Y-87687612D02*
X104397844Y-88957612D01*
X104397844Y-88957612D02*
X104397844Y-87687612D01*
X105002605Y-88836659D02*
X105063082Y-88897136D01*
X105063082Y-88897136D02*
X105002605Y-88957612D01*
X105002605Y-88957612D02*
X104942129Y-88897136D01*
X104942129Y-88897136D02*
X105002605Y-88836659D01*
X105002605Y-88836659D02*
X105002605Y-88957612D01*
X105002605Y-88171421D02*
X105063082Y-88231897D01*
X105063082Y-88231897D02*
X105002605Y-88292374D01*
X105002605Y-88292374D02*
X104942129Y-88231897D01*
X104942129Y-88231897D02*
X105002605Y-88171421D01*
X105002605Y-88171421D02*
X105002605Y-88292374D01*
X106816891Y-87687612D02*
X106937844Y-87687612D01*
X106937844Y-87687612D02*
X107058796Y-87748088D01*
X107058796Y-87748088D02*
X107119272Y-87808564D01*
X107119272Y-87808564D02*
X107179748Y-87929516D01*
X107179748Y-87929516D02*
X107240225Y-88171421D01*
X107240225Y-88171421D02*
X107240225Y-88473802D01*
X107240225Y-88473802D02*
X107179748Y-88715707D01*
X107179748Y-88715707D02*
X107119272Y-88836659D01*
X107119272Y-88836659D02*
X107058796Y-88897136D01*
X107058796Y-88897136D02*
X106937844Y-88957612D01*
X106937844Y-88957612D02*
X106816891Y-88957612D01*
X106816891Y-88957612D02*
X106695939Y-88897136D01*
X106695939Y-88897136D02*
X106635463Y-88836659D01*
X106635463Y-88836659D02*
X106574986Y-88715707D01*
X106574986Y-88715707D02*
X106514510Y-88473802D01*
X106514510Y-88473802D02*
X106514510Y-88171421D01*
X106514510Y-88171421D02*
X106574986Y-87929516D01*
X106574986Y-87929516D02*
X106635463Y-87808564D01*
X106635463Y-87808564D02*
X106695939Y-87748088D01*
X106695939Y-87748088D02*
X106816891Y-87687612D01*
X107784510Y-88836659D02*
X107844987Y-88897136D01*
X107844987Y-88897136D02*
X107784510Y-88957612D01*
X107784510Y-88957612D02*
X107724034Y-88897136D01*
X107724034Y-88897136D02*
X107784510Y-88836659D01*
X107784510Y-88836659D02*
X107784510Y-88957612D01*
X108631177Y-87687612D02*
X108752130Y-87687612D01*
X108752130Y-87687612D02*
X108873082Y-87748088D01*
X108873082Y-87748088D02*
X108933558Y-87808564D01*
X108933558Y-87808564D02*
X108994034Y-87929516D01*
X108994034Y-87929516D02*
X109054511Y-88171421D01*
X109054511Y-88171421D02*
X109054511Y-88473802D01*
X109054511Y-88473802D02*
X108994034Y-88715707D01*
X108994034Y-88715707D02*
X108933558Y-88836659D01*
X108933558Y-88836659D02*
X108873082Y-88897136D01*
X108873082Y-88897136D02*
X108752130Y-88957612D01*
X108752130Y-88957612D02*
X108631177Y-88957612D01*
X108631177Y-88957612D02*
X108510225Y-88897136D01*
X108510225Y-88897136D02*
X108449749Y-88836659D01*
X108449749Y-88836659D02*
X108389272Y-88715707D01*
X108389272Y-88715707D02*
X108328796Y-88473802D01*
X108328796Y-88473802D02*
X108328796Y-88171421D01*
X108328796Y-88171421D02*
X108389272Y-87929516D01*
X108389272Y-87929516D02*
X108449749Y-87808564D01*
X108449749Y-87808564D02*
X108510225Y-87748088D01*
X108510225Y-87748088D02*
X108631177Y-87687612D01*
X109598796Y-88836659D02*
X109659273Y-88897136D01*
X109659273Y-88897136D02*
X109598796Y-88957612D01*
X109598796Y-88957612D02*
X109538320Y-88897136D01*
X109538320Y-88897136D02*
X109598796Y-88836659D01*
X109598796Y-88836659D02*
X109598796Y-88957612D01*
X110868797Y-88957612D02*
X110143082Y-88957612D01*
X110505939Y-88957612D02*
X110505939Y-87687612D01*
X110505939Y-87687612D02*
X110384987Y-87869040D01*
X110384987Y-87869040D02*
X110264035Y-87989993D01*
X110264035Y-87989993D02*
X110143082Y-88050469D01*
X97019748Y-91002241D02*
X97019748Y-89732241D01*
X97019748Y-89732241D02*
X97322129Y-89732241D01*
X97322129Y-89732241D02*
X97503558Y-89792717D01*
X97503558Y-89792717D02*
X97624510Y-89913669D01*
X97624510Y-89913669D02*
X97684987Y-90034622D01*
X97684987Y-90034622D02*
X97745463Y-90276526D01*
X97745463Y-90276526D02*
X97745463Y-90457955D01*
X97745463Y-90457955D02*
X97684987Y-90699860D01*
X97684987Y-90699860D02*
X97624510Y-90820812D01*
X97624510Y-90820812D02*
X97503558Y-90941765D01*
X97503558Y-90941765D02*
X97322129Y-91002241D01*
X97322129Y-91002241D02*
X97019748Y-91002241D01*
X98229272Y-90639384D02*
X98834034Y-90639384D01*
X98108320Y-91002241D02*
X98531653Y-89732241D01*
X98531653Y-89732241D02*
X98954987Y-91002241D01*
X99196891Y-89732241D02*
X99922605Y-89732241D01*
X99559748Y-91002241D02*
X99559748Y-89732241D01*
X100345938Y-90337003D02*
X100769272Y-90337003D01*
X100950700Y-91002241D02*
X100345938Y-91002241D01*
X100345938Y-91002241D02*
X100345938Y-89732241D01*
X100345938Y-89732241D02*
X100950700Y-89732241D01*
X101494986Y-90881288D02*
X101555463Y-90941765D01*
X101555463Y-90941765D02*
X101494986Y-91002241D01*
X101494986Y-91002241D02*
X101434510Y-90941765D01*
X101434510Y-90941765D02*
X101494986Y-90881288D01*
X101494986Y-90881288D02*
X101494986Y-91002241D01*
X101494986Y-90216050D02*
X101555463Y-90276526D01*
X101555463Y-90276526D02*
X101494986Y-90337003D01*
X101494986Y-90337003D02*
X101434510Y-90276526D01*
X101434510Y-90276526D02*
X101494986Y-90216050D01*
X101494986Y-90216050D02*
X101494986Y-90337003D01*
X103006891Y-89853193D02*
X103067367Y-89792717D01*
X103067367Y-89792717D02*
X103188320Y-89732241D01*
X103188320Y-89732241D02*
X103490701Y-89732241D01*
X103490701Y-89732241D02*
X103611653Y-89792717D01*
X103611653Y-89792717D02*
X103672129Y-89853193D01*
X103672129Y-89853193D02*
X103732606Y-89974145D01*
X103732606Y-89974145D02*
X103732606Y-90095098D01*
X103732606Y-90095098D02*
X103672129Y-90276526D01*
X103672129Y-90276526D02*
X102946415Y-91002241D01*
X102946415Y-91002241D02*
X103732606Y-91002241D01*
X104881653Y-89732241D02*
X104276891Y-89732241D01*
X104276891Y-89732241D02*
X104216415Y-90337003D01*
X104216415Y-90337003D02*
X104276891Y-90276526D01*
X104276891Y-90276526D02*
X104397844Y-90216050D01*
X104397844Y-90216050D02*
X104700225Y-90216050D01*
X104700225Y-90216050D02*
X104821177Y-90276526D01*
X104821177Y-90276526D02*
X104881653Y-90337003D01*
X104881653Y-90337003D02*
X104942130Y-90457955D01*
X104942130Y-90457955D02*
X104942130Y-90760336D01*
X104942130Y-90760336D02*
X104881653Y-90881288D01*
X104881653Y-90881288D02*
X104821177Y-90941765D01*
X104821177Y-90941765D02*
X104700225Y-91002241D01*
X104700225Y-91002241D02*
X104397844Y-91002241D01*
X104397844Y-91002241D02*
X104276891Y-90941765D01*
X104276891Y-90941765D02*
X104216415Y-90881288D01*
X106151654Y-91002241D02*
X105425939Y-91002241D01*
X105788796Y-91002241D02*
X105788796Y-89732241D01*
X105788796Y-89732241D02*
X105667844Y-89913669D01*
X105667844Y-89913669D02*
X105546892Y-90034622D01*
X105546892Y-90034622D02*
X105425939Y-90095098D01*
X106635463Y-89853193D02*
X106695939Y-89792717D01*
X106695939Y-89792717D02*
X106816892Y-89732241D01*
X106816892Y-89732241D02*
X107119273Y-89732241D01*
X107119273Y-89732241D02*
X107240225Y-89792717D01*
X107240225Y-89792717D02*
X107300701Y-89853193D01*
X107300701Y-89853193D02*
X107361178Y-89974145D01*
X107361178Y-89974145D02*
X107361178Y-90095098D01*
X107361178Y-90095098D02*
X107300701Y-90276526D01*
X107300701Y-90276526D02*
X106574987Y-91002241D01*
X106574987Y-91002241D02*
X107361178Y-91002241D01*
X108147368Y-89732241D02*
X108268321Y-89732241D01*
X108268321Y-89732241D02*
X108389273Y-89792717D01*
X108389273Y-89792717D02*
X108449749Y-89853193D01*
X108449749Y-89853193D02*
X108510225Y-89974145D01*
X108510225Y-89974145D02*
X108570702Y-90216050D01*
X108570702Y-90216050D02*
X108570702Y-90518431D01*
X108570702Y-90518431D02*
X108510225Y-90760336D01*
X108510225Y-90760336D02*
X108449749Y-90881288D01*
X108449749Y-90881288D02*
X108389273Y-90941765D01*
X108389273Y-90941765D02*
X108268321Y-91002241D01*
X108268321Y-91002241D02*
X108147368Y-91002241D01*
X108147368Y-91002241D02*
X108026416Y-90941765D01*
X108026416Y-90941765D02*
X107965940Y-90881288D01*
X107965940Y-90881288D02*
X107905463Y-90760336D01*
X107905463Y-90760336D02*
X107844987Y-90518431D01*
X107844987Y-90518431D02*
X107844987Y-90216050D01*
X107844987Y-90216050D02*
X107905463Y-89974145D01*
X107905463Y-89974145D02*
X107965940Y-89853193D01*
X107965940Y-89853193D02*
X108026416Y-89792717D01*
X108026416Y-89792717D02*
X108147368Y-89732241D01*
X109719749Y-89732241D02*
X109114987Y-89732241D01*
X109114987Y-89732241D02*
X109054511Y-90337003D01*
X109054511Y-90337003D02*
X109114987Y-90276526D01*
X109114987Y-90276526D02*
X109235940Y-90216050D01*
X109235940Y-90216050D02*
X109538321Y-90216050D01*
X109538321Y-90216050D02*
X109659273Y-90276526D01*
X109659273Y-90276526D02*
X109719749Y-90337003D01*
X109719749Y-90337003D02*
X109780226Y-90457955D01*
X109780226Y-90457955D02*
X109780226Y-90760336D01*
X109780226Y-90760336D02*
X109719749Y-90881288D01*
X109719749Y-90881288D02*
X109659273Y-90941765D01*
X109659273Y-90941765D02*
X109538321Y-91002241D01*
X109538321Y-91002241D02*
X109235940Y-91002241D01*
X109235940Y-91002241D02*
X109114987Y-90941765D01*
X109114987Y-90941765D02*
X109054511Y-90881288D01*
D12*
X99575714Y-161972438D02*
X99480476Y-161924819D01*
X99480476Y-161924819D02*
X99337619Y-161924819D01*
X99337619Y-161924819D02*
X99194762Y-161972438D01*
X99194762Y-161972438D02*
X99099524Y-162067676D01*
X99099524Y-162067676D02*
X99051905Y-162162914D01*
X99051905Y-162162914D02*
X99004286Y-162353390D01*
X99004286Y-162353390D02*
X99004286Y-162496247D01*
X99004286Y-162496247D02*
X99051905Y-162686723D01*
X99051905Y-162686723D02*
X99099524Y-162781961D01*
X99099524Y-162781961D02*
X99194762Y-162877200D01*
X99194762Y-162877200D02*
X99337619Y-162924819D01*
X99337619Y-162924819D02*
X99432857Y-162924819D01*
X99432857Y-162924819D02*
X99575714Y-162877200D01*
X99575714Y-162877200D02*
X99623333Y-162829580D01*
X99623333Y-162829580D02*
X99623333Y-162496247D01*
X99623333Y-162496247D02*
X99432857Y-162496247D01*
X100051905Y-162924819D02*
X100051905Y-161924819D01*
X100051905Y-161924819D02*
X100432857Y-161924819D01*
X100432857Y-161924819D02*
X100528095Y-161972438D01*
X100528095Y-161972438D02*
X100575714Y-162020057D01*
X100575714Y-162020057D02*
X100623333Y-162115295D01*
X100623333Y-162115295D02*
X100623333Y-162258152D01*
X100623333Y-162258152D02*
X100575714Y-162353390D01*
X100575714Y-162353390D02*
X100528095Y-162401009D01*
X100528095Y-162401009D02*
X100432857Y-162448628D01*
X100432857Y-162448628D02*
X100051905Y-162448628D01*
X101004286Y-162877200D02*
X101147143Y-162924819D01*
X101147143Y-162924819D02*
X101385238Y-162924819D01*
X101385238Y-162924819D02*
X101480476Y-162877200D01*
X101480476Y-162877200D02*
X101528095Y-162829580D01*
X101528095Y-162829580D02*
X101575714Y-162734342D01*
X101575714Y-162734342D02*
X101575714Y-162639104D01*
X101575714Y-162639104D02*
X101528095Y-162543866D01*
X101528095Y-162543866D02*
X101480476Y-162496247D01*
X101480476Y-162496247D02*
X101385238Y-162448628D01*
X101385238Y-162448628D02*
X101194762Y-162401009D01*
X101194762Y-162401009D02*
X101099524Y-162353390D01*
X101099524Y-162353390D02*
X101051905Y-162305771D01*
X101051905Y-162305771D02*
X101004286Y-162210533D01*
X101004286Y-162210533D02*
X101004286Y-162115295D01*
X101004286Y-162115295D02*
X101051905Y-162020057D01*
X101051905Y-162020057D02*
X101099524Y-161972438D01*
X101099524Y-161972438D02*
X101194762Y-161924819D01*
X101194762Y-161924819D02*
X101432857Y-161924819D01*
X101432857Y-161924819D02*
X101575714Y-161972438D01*
X117564819Y-116271904D02*
X118374342Y-116271904D01*
X118374342Y-116271904D02*
X118469580Y-116224285D01*
X118469580Y-116224285D02*
X118517200Y-116176666D01*
X118517200Y-116176666D02*
X118564819Y-116081428D01*
X118564819Y-116081428D02*
X118564819Y-115890952D01*
X118564819Y-115890952D02*
X118517200Y-115795714D01*
X118517200Y-115795714D02*
X118469580Y-115748095D01*
X118469580Y-115748095D02*
X118374342Y-115700476D01*
X118374342Y-115700476D02*
X117564819Y-115700476D01*
X118564819Y-115176666D02*
X118564819Y-114986190D01*
X118564819Y-114986190D02*
X118517200Y-114890952D01*
X118517200Y-114890952D02*
X118469580Y-114843333D01*
X118469580Y-114843333D02*
X118326723Y-114748095D01*
X118326723Y-114748095D02*
X118136247Y-114700476D01*
X118136247Y-114700476D02*
X117755295Y-114700476D01*
X117755295Y-114700476D02*
X117660057Y-114748095D01*
X117660057Y-114748095D02*
X117612438Y-114795714D01*
X117612438Y-114795714D02*
X117564819Y-114890952D01*
X117564819Y-114890952D02*
X117564819Y-115081428D01*
X117564819Y-115081428D02*
X117612438Y-115176666D01*
X117612438Y-115176666D02*
X117660057Y-115224285D01*
X117660057Y-115224285D02*
X117755295Y-115271904D01*
X117755295Y-115271904D02*
X117993390Y-115271904D01*
X117993390Y-115271904D02*
X118088628Y-115224285D01*
X118088628Y-115224285D02*
X118136247Y-115176666D01*
X118136247Y-115176666D02*
X118183866Y-115081428D01*
X118183866Y-115081428D02*
X118183866Y-114890952D01*
X118183866Y-114890952D02*
X118136247Y-114795714D01*
X118136247Y-114795714D02*
X118088628Y-114748095D01*
X118088628Y-114748095D02*
X117993390Y-114700476D01*
X114211905Y-162924819D02*
X114211905Y-161924819D01*
X114211905Y-162401009D02*
X114783333Y-162401009D01*
X114783333Y-162924819D02*
X114783333Y-161924819D01*
X115211905Y-162020057D02*
X115259524Y-161972438D01*
X115259524Y-161972438D02*
X115354762Y-161924819D01*
X115354762Y-161924819D02*
X115592857Y-161924819D01*
X115592857Y-161924819D02*
X115688095Y-161972438D01*
X115688095Y-161972438D02*
X115735714Y-162020057D01*
X115735714Y-162020057D02*
X115783333Y-162115295D01*
X115783333Y-162115295D02*
X115783333Y-162210533D01*
X115783333Y-162210533D02*
X115735714Y-162353390D01*
X115735714Y-162353390D02*
X115164286Y-162924819D01*
X115164286Y-162924819D02*
X115783333Y-162924819D01*
X116164286Y-162877200D02*
X116307143Y-162924819D01*
X116307143Y-162924819D02*
X116545238Y-162924819D01*
X116545238Y-162924819D02*
X116640476Y-162877200D01*
X116640476Y-162877200D02*
X116688095Y-162829580D01*
X116688095Y-162829580D02*
X116735714Y-162734342D01*
X116735714Y-162734342D02*
X116735714Y-162639104D01*
X116735714Y-162639104D02*
X116688095Y-162543866D01*
X116688095Y-162543866D02*
X116640476Y-162496247D01*
X116640476Y-162496247D02*
X116545238Y-162448628D01*
X116545238Y-162448628D02*
X116354762Y-162401009D01*
X116354762Y-162401009D02*
X116259524Y-162353390D01*
X116259524Y-162353390D02*
X116211905Y-162305771D01*
X116211905Y-162305771D02*
X116164286Y-162210533D01*
X116164286Y-162210533D02*
X116164286Y-162115295D01*
X116164286Y-162115295D02*
X116211905Y-162020057D01*
X116211905Y-162020057D02*
X116259524Y-161972438D01*
X116259524Y-161972438D02*
X116354762Y-161924819D01*
X116354762Y-161924819D02*
X116592857Y-161924819D01*
X116592857Y-161924819D02*
X116735714Y-161972438D01*
X91620180Y-111918810D02*
X92620180Y-111918810D01*
X92620180Y-112823571D02*
X92620180Y-112633095D01*
X92620180Y-112633095D02*
X92572561Y-112537857D01*
X92572561Y-112537857D02*
X92524942Y-112490238D01*
X92524942Y-112490238D02*
X92382085Y-112395000D01*
X92382085Y-112395000D02*
X92191609Y-112347381D01*
X92191609Y-112347381D02*
X91810657Y-112347381D01*
X91810657Y-112347381D02*
X91715419Y-112395000D01*
X91715419Y-112395000D02*
X91667800Y-112442619D01*
X91667800Y-112442619D02*
X91620180Y-112537857D01*
X91620180Y-112537857D02*
X91620180Y-112728333D01*
X91620180Y-112728333D02*
X91667800Y-112823571D01*
X91667800Y-112823571D02*
X91715419Y-112871190D01*
X91715419Y-112871190D02*
X91810657Y-112918809D01*
X91810657Y-112918809D02*
X92048752Y-112918809D01*
X92048752Y-112918809D02*
X92143990Y-112871190D01*
X92143990Y-112871190D02*
X92191609Y-112823571D01*
X92191609Y-112823571D02*
X92239228Y-112728333D01*
X92239228Y-112728333D02*
X92239228Y-112537857D01*
X92239228Y-112537857D02*
X92191609Y-112442619D01*
X92191609Y-112442619D02*
X92143990Y-112395000D01*
X92143990Y-112395000D02*
X92048752Y-112347381D01*
X87492561Y-98015588D02*
X87540180Y-97920350D01*
X87540180Y-97920350D02*
X87540180Y-97777493D01*
X87540180Y-97777493D02*
X87492561Y-97634636D01*
X87492561Y-97634636D02*
X87397323Y-97539398D01*
X87397323Y-97539398D02*
X87302085Y-97491779D01*
X87302085Y-97491779D02*
X87111609Y-97444160D01*
X87111609Y-97444160D02*
X86968752Y-97444160D01*
X86968752Y-97444160D02*
X86778276Y-97491779D01*
X86778276Y-97491779D02*
X86683038Y-97539398D01*
X86683038Y-97539398D02*
X86587800Y-97634636D01*
X86587800Y-97634636D02*
X86540180Y-97777493D01*
X86540180Y-97777493D02*
X86540180Y-97872731D01*
X86540180Y-97872731D02*
X86587800Y-98015588D01*
X86587800Y-98015588D02*
X86635419Y-98063207D01*
X86635419Y-98063207D02*
X86968752Y-98063207D01*
X86968752Y-98063207D02*
X86968752Y-97872731D01*
X86540180Y-98491779D02*
X87540180Y-98491779D01*
X87540180Y-98491779D02*
X86540180Y-99063207D01*
X86540180Y-99063207D02*
X87540180Y-99063207D01*
X86540180Y-99539398D02*
X87540180Y-99539398D01*
X87540180Y-99539398D02*
X87540180Y-99777493D01*
X87540180Y-99777493D02*
X87492561Y-99920350D01*
X87492561Y-99920350D02*
X87397323Y-100015588D01*
X87397323Y-100015588D02*
X87302085Y-100063207D01*
X87302085Y-100063207D02*
X87111609Y-100110826D01*
X87111609Y-100110826D02*
X86968752Y-100110826D01*
X86968752Y-100110826D02*
X86778276Y-100063207D01*
X86778276Y-100063207D02*
X86683038Y-100015588D01*
X86683038Y-100015588D02*
X86587800Y-99920350D01*
X86587800Y-99920350D02*
X86540180Y-99777493D01*
X86540180Y-99777493D02*
X86540180Y-99539398D01*
X90080180Y-97348922D02*
X89080180Y-97682255D01*
X89080180Y-97682255D02*
X90080180Y-98015588D01*
X89175419Y-98920350D02*
X89127800Y-98872731D01*
X89127800Y-98872731D02*
X89080180Y-98729874D01*
X89080180Y-98729874D02*
X89080180Y-98634636D01*
X89080180Y-98634636D02*
X89127800Y-98491779D01*
X89127800Y-98491779D02*
X89223038Y-98396541D01*
X89223038Y-98396541D02*
X89318276Y-98348922D01*
X89318276Y-98348922D02*
X89508752Y-98301303D01*
X89508752Y-98301303D02*
X89651609Y-98301303D01*
X89651609Y-98301303D02*
X89842085Y-98348922D01*
X89842085Y-98348922D02*
X89937323Y-98396541D01*
X89937323Y-98396541D02*
X90032561Y-98491779D01*
X90032561Y-98491779D02*
X90080180Y-98634636D01*
X90080180Y-98634636D02*
X90080180Y-98729874D01*
X90080180Y-98729874D02*
X90032561Y-98872731D01*
X90032561Y-98872731D02*
X89984942Y-98920350D01*
X89175419Y-99920350D02*
X89127800Y-99872731D01*
X89127800Y-99872731D02*
X89080180Y-99729874D01*
X89080180Y-99729874D02*
X89080180Y-99634636D01*
X89080180Y-99634636D02*
X89127800Y-99491779D01*
X89127800Y-99491779D02*
X89223038Y-99396541D01*
X89223038Y-99396541D02*
X89318276Y-99348922D01*
X89318276Y-99348922D02*
X89508752Y-99301303D01*
X89508752Y-99301303D02*
X89651609Y-99301303D01*
X89651609Y-99301303D02*
X89842085Y-99348922D01*
X89842085Y-99348922D02*
X89937323Y-99396541D01*
X89937323Y-99396541D02*
X90032561Y-99491779D01*
X90032561Y-99491779D02*
X90080180Y-99634636D01*
X90080180Y-99634636D02*
X90080180Y-99729874D01*
X90080180Y-99729874D02*
X90032561Y-99872731D01*
X90032561Y-99872731D02*
X89984942Y-99920350D01*
X89127801Y-124917268D02*
X89080181Y-125060125D01*
X89080181Y-125060125D02*
X89080181Y-125298220D01*
X89080181Y-125298220D02*
X89127801Y-125393458D01*
X89127801Y-125393458D02*
X89175420Y-125441077D01*
X89175420Y-125441077D02*
X89270658Y-125488696D01*
X89270658Y-125488696D02*
X89365896Y-125488696D01*
X89365896Y-125488696D02*
X89461134Y-125441077D01*
X89461134Y-125441077D02*
X89508753Y-125393458D01*
X89508753Y-125393458D02*
X89556372Y-125298220D01*
X89556372Y-125298220D02*
X89603991Y-125107744D01*
X89603991Y-125107744D02*
X89651610Y-125012506D01*
X89651610Y-125012506D02*
X89699229Y-124964887D01*
X89699229Y-124964887D02*
X89794467Y-124917268D01*
X89794467Y-124917268D02*
X89889705Y-124917268D01*
X89889705Y-124917268D02*
X89984943Y-124964887D01*
X89984943Y-124964887D02*
X90032562Y-125012506D01*
X90032562Y-125012506D02*
X90080181Y-125107744D01*
X90080181Y-125107744D02*
X90080181Y-125345839D01*
X90080181Y-125345839D02*
X90032562Y-125488696D01*
X89080181Y-125917268D02*
X90080181Y-125917268D01*
X90080181Y-125917268D02*
X90080181Y-126155363D01*
X90080181Y-126155363D02*
X90032562Y-126298220D01*
X90032562Y-126298220D02*
X89937324Y-126393458D01*
X89937324Y-126393458D02*
X89842086Y-126441077D01*
X89842086Y-126441077D02*
X89651610Y-126488696D01*
X89651610Y-126488696D02*
X89508753Y-126488696D01*
X89508753Y-126488696D02*
X89318277Y-126441077D01*
X89318277Y-126441077D02*
X89223039Y-126393458D01*
X89223039Y-126393458D02*
X89127801Y-126298220D01*
X89127801Y-126298220D02*
X89080181Y-126155363D01*
X89080181Y-126155363D02*
X89080181Y-125917268D01*
X89365896Y-126869649D02*
X89365896Y-127345839D01*
X89080181Y-126774411D02*
X90080181Y-127107744D01*
X90080181Y-127107744D02*
X89080181Y-127441077D01*
X87540181Y-124774411D02*
X86540181Y-125107744D01*
X86540181Y-125107744D02*
X87540181Y-125441077D01*
X86635420Y-126345839D02*
X86587801Y-126298220D01*
X86587801Y-126298220D02*
X86540181Y-126155363D01*
X86540181Y-126155363D02*
X86540181Y-126060125D01*
X86540181Y-126060125D02*
X86587801Y-125917268D01*
X86587801Y-125917268D02*
X86683039Y-125822030D01*
X86683039Y-125822030D02*
X86778277Y-125774411D01*
X86778277Y-125774411D02*
X86968753Y-125726792D01*
X86968753Y-125726792D02*
X87111610Y-125726792D01*
X87111610Y-125726792D02*
X87302086Y-125774411D01*
X87302086Y-125774411D02*
X87397324Y-125822030D01*
X87397324Y-125822030D02*
X87492562Y-125917268D01*
X87492562Y-125917268D02*
X87540181Y-126060125D01*
X87540181Y-126060125D02*
X87540181Y-126155363D01*
X87540181Y-126155363D02*
X87492562Y-126298220D01*
X87492562Y-126298220D02*
X87444943Y-126345839D01*
X86635420Y-127345839D02*
X86587801Y-127298220D01*
X86587801Y-127298220D02*
X86540181Y-127155363D01*
X86540181Y-127155363D02*
X86540181Y-127060125D01*
X86540181Y-127060125D02*
X86587801Y-126917268D01*
X86587801Y-126917268D02*
X86683039Y-126822030D01*
X86683039Y-126822030D02*
X86778277Y-126774411D01*
X86778277Y-126774411D02*
X86968753Y-126726792D01*
X86968753Y-126726792D02*
X87111610Y-126726792D01*
X87111610Y-126726792D02*
X87302086Y-126774411D01*
X87302086Y-126774411D02*
X87397324Y-126822030D01*
X87397324Y-126822030D02*
X87492562Y-126917268D01*
X87492562Y-126917268D02*
X87540181Y-127060125D01*
X87540181Y-127060125D02*
X87540181Y-127155363D01*
X87540181Y-127155363D02*
X87492562Y-127298220D01*
X87492562Y-127298220D02*
X87444943Y-127345839D01*
X91667801Y-124964887D02*
X91620181Y-125107744D01*
X91620181Y-125107744D02*
X91620181Y-125345839D01*
X91620181Y-125345839D02*
X91667801Y-125441077D01*
X91667801Y-125441077D02*
X91715420Y-125488696D01*
X91715420Y-125488696D02*
X91810658Y-125536315D01*
X91810658Y-125536315D02*
X91905896Y-125536315D01*
X91905896Y-125536315D02*
X92001134Y-125488696D01*
X92001134Y-125488696D02*
X92048753Y-125441077D01*
X92048753Y-125441077D02*
X92096372Y-125345839D01*
X92096372Y-125345839D02*
X92143991Y-125155363D01*
X92143991Y-125155363D02*
X92191610Y-125060125D01*
X92191610Y-125060125D02*
X92239229Y-125012506D01*
X92239229Y-125012506D02*
X92334467Y-124964887D01*
X92334467Y-124964887D02*
X92429705Y-124964887D01*
X92429705Y-124964887D02*
X92524943Y-125012506D01*
X92524943Y-125012506D02*
X92572562Y-125060125D01*
X92572562Y-125060125D02*
X92620181Y-125155363D01*
X92620181Y-125155363D02*
X92620181Y-125393458D01*
X92620181Y-125393458D02*
X92572562Y-125536315D01*
X91715420Y-126536315D02*
X91667801Y-126488696D01*
X91667801Y-126488696D02*
X91620181Y-126345839D01*
X91620181Y-126345839D02*
X91620181Y-126250601D01*
X91620181Y-126250601D02*
X91667801Y-126107744D01*
X91667801Y-126107744D02*
X91763039Y-126012506D01*
X91763039Y-126012506D02*
X91858277Y-125964887D01*
X91858277Y-125964887D02*
X92048753Y-125917268D01*
X92048753Y-125917268D02*
X92191610Y-125917268D01*
X92191610Y-125917268D02*
X92382086Y-125964887D01*
X92382086Y-125964887D02*
X92477324Y-126012506D01*
X92477324Y-126012506D02*
X92572562Y-126107744D01*
X92572562Y-126107744D02*
X92620181Y-126250601D01*
X92620181Y-126250601D02*
X92620181Y-126345839D01*
X92620181Y-126345839D02*
X92572562Y-126488696D01*
X92572562Y-126488696D02*
X92524943Y-126536315D01*
X91620181Y-127441077D02*
X91620181Y-126964887D01*
X91620181Y-126964887D02*
X92620181Y-126964887D01*
X91667800Y-97444160D02*
X91620180Y-97587017D01*
X91620180Y-97587017D02*
X91620180Y-97825112D01*
X91620180Y-97825112D02*
X91667800Y-97920350D01*
X91667800Y-97920350D02*
X91715419Y-97967969D01*
X91715419Y-97967969D02*
X91810657Y-98015588D01*
X91810657Y-98015588D02*
X91905895Y-98015588D01*
X91905895Y-98015588D02*
X92001133Y-97967969D01*
X92001133Y-97967969D02*
X92048752Y-97920350D01*
X92048752Y-97920350D02*
X92096371Y-97825112D01*
X92096371Y-97825112D02*
X92143990Y-97634636D01*
X92143990Y-97634636D02*
X92191609Y-97539398D01*
X92191609Y-97539398D02*
X92239228Y-97491779D01*
X92239228Y-97491779D02*
X92334466Y-97444160D01*
X92334466Y-97444160D02*
X92429704Y-97444160D01*
X92429704Y-97444160D02*
X92524942Y-97491779D01*
X92524942Y-97491779D02*
X92572561Y-97539398D01*
X92572561Y-97539398D02*
X92620180Y-97634636D01*
X92620180Y-97634636D02*
X92620180Y-97872731D01*
X92620180Y-97872731D02*
X92572561Y-98015588D01*
X91620180Y-98444160D02*
X92620180Y-98444160D01*
X92620180Y-98444160D02*
X92620180Y-98682255D01*
X92620180Y-98682255D02*
X92572561Y-98825112D01*
X92572561Y-98825112D02*
X92477323Y-98920350D01*
X92477323Y-98920350D02*
X92382085Y-98967969D01*
X92382085Y-98967969D02*
X92191609Y-99015588D01*
X92191609Y-99015588D02*
X92048752Y-99015588D01*
X92048752Y-99015588D02*
X91858276Y-98967969D01*
X91858276Y-98967969D02*
X91763038Y-98920350D01*
X91763038Y-98920350D02*
X91667800Y-98825112D01*
X91667800Y-98825112D02*
X91620180Y-98682255D01*
X91620180Y-98682255D02*
X91620180Y-98444160D01*
X91905895Y-99396541D02*
X91905895Y-99872731D01*
X91620180Y-99301303D02*
X92620180Y-99634636D01*
X92620180Y-99634636D02*
X91620180Y-99967969D01*
X89080180Y-105448095D02*
X90080180Y-105448095D01*
X90080180Y-105448095D02*
X90080180Y-105686190D01*
X90080180Y-105686190D02*
X90032561Y-105829047D01*
X90032561Y-105829047D02*
X89937323Y-105924285D01*
X89937323Y-105924285D02*
X89842085Y-105971904D01*
X89842085Y-105971904D02*
X89651609Y-106019523D01*
X89651609Y-106019523D02*
X89508752Y-106019523D01*
X89508752Y-106019523D02*
X89318276Y-105971904D01*
X89318276Y-105971904D02*
X89223038Y-105924285D01*
X89223038Y-105924285D02*
X89127800Y-105829047D01*
X89127800Y-105829047D02*
X89080180Y-105686190D01*
X89080180Y-105686190D02*
X89080180Y-105448095D01*
X89127800Y-106400476D02*
X89080180Y-106543333D01*
X89080180Y-106543333D02*
X89080180Y-106781428D01*
X89080180Y-106781428D02*
X89127800Y-106876666D01*
X89127800Y-106876666D02*
X89175419Y-106924285D01*
X89175419Y-106924285D02*
X89270657Y-106971904D01*
X89270657Y-106971904D02*
X89365895Y-106971904D01*
X89365895Y-106971904D02*
X89461133Y-106924285D01*
X89461133Y-106924285D02*
X89508752Y-106876666D01*
X89508752Y-106876666D02*
X89556371Y-106781428D01*
X89556371Y-106781428D02*
X89603990Y-106590952D01*
X89603990Y-106590952D02*
X89651609Y-106495714D01*
X89651609Y-106495714D02*
X89699228Y-106448095D01*
X89699228Y-106448095D02*
X89794466Y-106400476D01*
X89794466Y-106400476D02*
X89889704Y-106400476D01*
X89889704Y-106400476D02*
X89984942Y-106448095D01*
X89984942Y-106448095D02*
X90032561Y-106495714D01*
X90032561Y-106495714D02*
X90080180Y-106590952D01*
X90080180Y-106590952D02*
X90080180Y-106829047D01*
X90080180Y-106829047D02*
X90032561Y-106971904D01*
X90080180Y-107305238D02*
X90080180Y-107924285D01*
X90080180Y-107924285D02*
X89699228Y-107590952D01*
X89699228Y-107590952D02*
X89699228Y-107733809D01*
X89699228Y-107733809D02*
X89651609Y-107829047D01*
X89651609Y-107829047D02*
X89603990Y-107876666D01*
X89603990Y-107876666D02*
X89508752Y-107924285D01*
X89508752Y-107924285D02*
X89270657Y-107924285D01*
X89270657Y-107924285D02*
X89175419Y-107876666D01*
X89175419Y-107876666D02*
X89127800Y-107829047D01*
X89127800Y-107829047D02*
X89080180Y-107733809D01*
X89080180Y-107733809D02*
X89080180Y-107448095D01*
X89080180Y-107448095D02*
X89127800Y-107352857D01*
X89127800Y-107352857D02*
X89175419Y-107305238D01*
X89984942Y-108305238D02*
X90032561Y-108352857D01*
X90032561Y-108352857D02*
X90080180Y-108448095D01*
X90080180Y-108448095D02*
X90080180Y-108686190D01*
X90080180Y-108686190D02*
X90032561Y-108781428D01*
X90032561Y-108781428D02*
X89984942Y-108829047D01*
X89984942Y-108829047D02*
X89889704Y-108876666D01*
X89889704Y-108876666D02*
X89794466Y-108876666D01*
X89794466Y-108876666D02*
X89651609Y-108829047D01*
X89651609Y-108829047D02*
X89080180Y-108257619D01*
X89080180Y-108257619D02*
X89080180Y-108876666D01*
X90080180Y-109210000D02*
X90080180Y-109829047D01*
X90080180Y-109829047D02*
X89699228Y-109495714D01*
X89699228Y-109495714D02*
X89699228Y-109638571D01*
X89699228Y-109638571D02*
X89651609Y-109733809D01*
X89651609Y-109733809D02*
X89603990Y-109781428D01*
X89603990Y-109781428D02*
X89508752Y-109829047D01*
X89508752Y-109829047D02*
X89270657Y-109829047D01*
X89270657Y-109829047D02*
X89175419Y-109781428D01*
X89175419Y-109781428D02*
X89127800Y-109733809D01*
X89127800Y-109733809D02*
X89080180Y-109638571D01*
X89080180Y-109638571D02*
X89080180Y-109352857D01*
X89080180Y-109352857D02*
X89127800Y-109257619D01*
X89127800Y-109257619D02*
X89175419Y-109210000D01*
X89080180Y-110781428D02*
X89080180Y-110210000D01*
X89080180Y-110495714D02*
X90080180Y-110495714D01*
X90080180Y-110495714D02*
X89937323Y-110400476D01*
X89937323Y-110400476D02*
X89842085Y-110305238D01*
X89842085Y-110305238D02*
X89794466Y-110210000D01*
X89365895Y-111924286D02*
X89365895Y-112400476D01*
X89080180Y-111829048D02*
X90080180Y-112162381D01*
X90080180Y-112162381D02*
X89080180Y-112495714D01*
X90080180Y-112686191D02*
X90080180Y-113257619D01*
X89080180Y-112971905D02*
X90080180Y-112971905D01*
X89984942Y-113543334D02*
X90032561Y-113590953D01*
X90032561Y-113590953D02*
X90080180Y-113686191D01*
X90080180Y-113686191D02*
X90080180Y-113924286D01*
X90080180Y-113924286D02*
X90032561Y-114019524D01*
X90032561Y-114019524D02*
X89984942Y-114067143D01*
X89984942Y-114067143D02*
X89889704Y-114114762D01*
X89889704Y-114114762D02*
X89794466Y-114114762D01*
X89794466Y-114114762D02*
X89651609Y-114067143D01*
X89651609Y-114067143D02*
X89080180Y-113495715D01*
X89080180Y-113495715D02*
X89080180Y-114114762D01*
X89746847Y-114971905D02*
X89080180Y-114971905D01*
X90127800Y-114733810D02*
X89413514Y-114495715D01*
X89413514Y-114495715D02*
X89413514Y-115114762D01*
X89175419Y-116067143D02*
X89127800Y-116019524D01*
X89127800Y-116019524D02*
X89080180Y-115876667D01*
X89080180Y-115876667D02*
X89080180Y-115781429D01*
X89080180Y-115781429D02*
X89127800Y-115638572D01*
X89127800Y-115638572D02*
X89223038Y-115543334D01*
X89223038Y-115543334D02*
X89318276Y-115495715D01*
X89318276Y-115495715D02*
X89508752Y-115448096D01*
X89508752Y-115448096D02*
X89651609Y-115448096D01*
X89651609Y-115448096D02*
X89842085Y-115495715D01*
X89842085Y-115495715D02*
X89937323Y-115543334D01*
X89937323Y-115543334D02*
X90032561Y-115638572D01*
X90032561Y-115638572D02*
X90080180Y-115781429D01*
X90080180Y-115781429D02*
X90080180Y-115876667D01*
X90080180Y-115876667D02*
X90032561Y-116019524D01*
X90032561Y-116019524D02*
X89984942Y-116067143D01*
X90080180Y-116400477D02*
X90080180Y-117019524D01*
X90080180Y-117019524D02*
X89699228Y-116686191D01*
X89699228Y-116686191D02*
X89699228Y-116829048D01*
X89699228Y-116829048D02*
X89651609Y-116924286D01*
X89651609Y-116924286D02*
X89603990Y-116971905D01*
X89603990Y-116971905D02*
X89508752Y-117019524D01*
X89508752Y-117019524D02*
X89270657Y-117019524D01*
X89270657Y-117019524D02*
X89175419Y-116971905D01*
X89175419Y-116971905D02*
X89127800Y-116924286D01*
X89127800Y-116924286D02*
X89080180Y-116829048D01*
X89080180Y-116829048D02*
X89080180Y-116543334D01*
X89080180Y-116543334D02*
X89127800Y-116448096D01*
X89127800Y-116448096D02*
X89175419Y-116400477D01*
X89984942Y-117400477D02*
X90032561Y-117448096D01*
X90032561Y-117448096D02*
X90080180Y-117543334D01*
X90080180Y-117543334D02*
X90080180Y-117781429D01*
X90080180Y-117781429D02*
X90032561Y-117876667D01*
X90032561Y-117876667D02*
X89984942Y-117924286D01*
X89984942Y-117924286D02*
X89889704Y-117971905D01*
X89889704Y-117971905D02*
X89794466Y-117971905D01*
X89794466Y-117971905D02*
X89651609Y-117924286D01*
X89651609Y-117924286D02*
X89080180Y-117352858D01*
X89080180Y-117352858D02*
X89080180Y-117971905D01*
X89080180Y-118400477D02*
X90080180Y-118400477D01*
X90080180Y-118400477D02*
X89080180Y-118971905D01*
X89080180Y-118971905D02*
X90080180Y-118971905D01*
X97700181Y-124774411D02*
X97700181Y-125393458D01*
X97700181Y-125393458D02*
X97319229Y-125060125D01*
X97319229Y-125060125D02*
X97319229Y-125202982D01*
X97319229Y-125202982D02*
X97271610Y-125298220D01*
X97271610Y-125298220D02*
X97223991Y-125345839D01*
X97223991Y-125345839D02*
X97128753Y-125393458D01*
X97128753Y-125393458D02*
X96890658Y-125393458D01*
X96890658Y-125393458D02*
X96795420Y-125345839D01*
X96795420Y-125345839D02*
X96747801Y-125298220D01*
X96747801Y-125298220D02*
X96700181Y-125202982D01*
X96700181Y-125202982D02*
X96700181Y-124917268D01*
X96700181Y-124917268D02*
X96747801Y-124822030D01*
X96747801Y-124822030D02*
X96795420Y-124774411D01*
X97604943Y-125774411D02*
X97652562Y-125822030D01*
X97652562Y-125822030D02*
X97700181Y-125917268D01*
X97700181Y-125917268D02*
X97700181Y-126155363D01*
X97700181Y-126155363D02*
X97652562Y-126250601D01*
X97652562Y-126250601D02*
X97604943Y-126298220D01*
X97604943Y-126298220D02*
X97509705Y-126345839D01*
X97509705Y-126345839D02*
X97414467Y-126345839D01*
X97414467Y-126345839D02*
X97271610Y-126298220D01*
X97271610Y-126298220D02*
X96700181Y-125726792D01*
X96700181Y-125726792D02*
X96700181Y-126345839D01*
X96700181Y-126774411D02*
X97700181Y-126774411D01*
X96700181Y-127345839D02*
X97271610Y-126917268D01*
X97700181Y-127345839D02*
X97128753Y-126774411D01*
X84952562Y-125250601D02*
X85000181Y-125155363D01*
X85000181Y-125155363D02*
X85000181Y-125012506D01*
X85000181Y-125012506D02*
X84952562Y-124869649D01*
X84952562Y-124869649D02*
X84857324Y-124774411D01*
X84857324Y-124774411D02*
X84762086Y-124726792D01*
X84762086Y-124726792D02*
X84571610Y-124679173D01*
X84571610Y-124679173D02*
X84428753Y-124679173D01*
X84428753Y-124679173D02*
X84238277Y-124726792D01*
X84238277Y-124726792D02*
X84143039Y-124774411D01*
X84143039Y-124774411D02*
X84047801Y-124869649D01*
X84047801Y-124869649D02*
X84000181Y-125012506D01*
X84000181Y-125012506D02*
X84000181Y-125107744D01*
X84000181Y-125107744D02*
X84047801Y-125250601D01*
X84047801Y-125250601D02*
X84095420Y-125298220D01*
X84095420Y-125298220D02*
X84428753Y-125298220D01*
X84428753Y-125298220D02*
X84428753Y-125107744D01*
X84000181Y-125726792D02*
X85000181Y-125726792D01*
X85000181Y-125726792D02*
X84000181Y-126298220D01*
X84000181Y-126298220D02*
X85000181Y-126298220D01*
X84000181Y-126774411D02*
X85000181Y-126774411D01*
X85000181Y-126774411D02*
X85000181Y-127012506D01*
X85000181Y-127012506D02*
X84952562Y-127155363D01*
X84952562Y-127155363D02*
X84857324Y-127250601D01*
X84857324Y-127250601D02*
X84762086Y-127298220D01*
X84762086Y-127298220D02*
X84571610Y-127345839D01*
X84571610Y-127345839D02*
X84428753Y-127345839D01*
X84428753Y-127345839D02*
X84238277Y-127298220D01*
X84238277Y-127298220D02*
X84143039Y-127250601D01*
X84143039Y-127250601D02*
X84047801Y-127155363D01*
X84047801Y-127155363D02*
X84000181Y-127012506D01*
X84000181Y-127012506D02*
X84000181Y-126774411D01*
X94207801Y-124583935D02*
X94160181Y-124726792D01*
X94160181Y-124726792D02*
X94160181Y-124964887D01*
X94160181Y-124964887D02*
X94207801Y-125060125D01*
X94207801Y-125060125D02*
X94255420Y-125107744D01*
X94255420Y-125107744D02*
X94350658Y-125155363D01*
X94350658Y-125155363D02*
X94445896Y-125155363D01*
X94445896Y-125155363D02*
X94541134Y-125107744D01*
X94541134Y-125107744D02*
X94588753Y-125060125D01*
X94588753Y-125060125D02*
X94636372Y-124964887D01*
X94636372Y-124964887D02*
X94683991Y-124774411D01*
X94683991Y-124774411D02*
X94731610Y-124679173D01*
X94731610Y-124679173D02*
X94779229Y-124631554D01*
X94779229Y-124631554D02*
X94874467Y-124583935D01*
X94874467Y-124583935D02*
X94969705Y-124583935D01*
X94969705Y-124583935D02*
X95064943Y-124631554D01*
X95064943Y-124631554D02*
X95112562Y-124679173D01*
X95112562Y-124679173D02*
X95160181Y-124774411D01*
X95160181Y-124774411D02*
X95160181Y-125012506D01*
X95160181Y-125012506D02*
X95112562Y-125155363D01*
X94064943Y-126250601D02*
X94112562Y-126155363D01*
X94112562Y-126155363D02*
X94207801Y-126060125D01*
X94207801Y-126060125D02*
X94350658Y-125917268D01*
X94350658Y-125917268D02*
X94398277Y-125822030D01*
X94398277Y-125822030D02*
X94398277Y-125726792D01*
X94160181Y-125774411D02*
X94207801Y-125679173D01*
X94207801Y-125679173D02*
X94303039Y-125583935D01*
X94303039Y-125583935D02*
X94493515Y-125536316D01*
X94493515Y-125536316D02*
X94826848Y-125536316D01*
X94826848Y-125536316D02*
X95017324Y-125583935D01*
X95017324Y-125583935D02*
X95112562Y-125679173D01*
X95112562Y-125679173D02*
X95160181Y-125774411D01*
X95160181Y-125774411D02*
X95160181Y-125964887D01*
X95160181Y-125964887D02*
X95112562Y-126060125D01*
X95112562Y-126060125D02*
X95017324Y-126155363D01*
X95017324Y-126155363D02*
X94826848Y-126202982D01*
X94826848Y-126202982D02*
X94493515Y-126202982D01*
X94493515Y-126202982D02*
X94303039Y-126155363D01*
X94303039Y-126155363D02*
X94207801Y-126060125D01*
X94207801Y-126060125D02*
X94160181Y-125964887D01*
X94160181Y-125964887D02*
X94160181Y-125774411D01*
X95160181Y-126536316D02*
X94160181Y-126774411D01*
X94160181Y-126774411D02*
X94874467Y-126964887D01*
X94874467Y-126964887D02*
X94160181Y-127155363D01*
X94160181Y-127155363D02*
X95160181Y-127393459D01*
X94207800Y-97444160D02*
X94160180Y-97587017D01*
X94160180Y-97587017D02*
X94160180Y-97825112D01*
X94160180Y-97825112D02*
X94207800Y-97920350D01*
X94207800Y-97920350D02*
X94255419Y-97967969D01*
X94255419Y-97967969D02*
X94350657Y-98015588D01*
X94350657Y-98015588D02*
X94445895Y-98015588D01*
X94445895Y-98015588D02*
X94541133Y-97967969D01*
X94541133Y-97967969D02*
X94588752Y-97920350D01*
X94588752Y-97920350D02*
X94636371Y-97825112D01*
X94636371Y-97825112D02*
X94683990Y-97634636D01*
X94683990Y-97634636D02*
X94731609Y-97539398D01*
X94731609Y-97539398D02*
X94779228Y-97491779D01*
X94779228Y-97491779D02*
X94874466Y-97444160D01*
X94874466Y-97444160D02*
X94969704Y-97444160D01*
X94969704Y-97444160D02*
X95064942Y-97491779D01*
X95064942Y-97491779D02*
X95112561Y-97539398D01*
X95112561Y-97539398D02*
X95160180Y-97634636D01*
X95160180Y-97634636D02*
X95160180Y-97872731D01*
X95160180Y-97872731D02*
X95112561Y-98015588D01*
X94255419Y-99015588D02*
X94207800Y-98967969D01*
X94207800Y-98967969D02*
X94160180Y-98825112D01*
X94160180Y-98825112D02*
X94160180Y-98729874D01*
X94160180Y-98729874D02*
X94207800Y-98587017D01*
X94207800Y-98587017D02*
X94303038Y-98491779D01*
X94303038Y-98491779D02*
X94398276Y-98444160D01*
X94398276Y-98444160D02*
X94588752Y-98396541D01*
X94588752Y-98396541D02*
X94731609Y-98396541D01*
X94731609Y-98396541D02*
X94922085Y-98444160D01*
X94922085Y-98444160D02*
X95017323Y-98491779D01*
X95017323Y-98491779D02*
X95112561Y-98587017D01*
X95112561Y-98587017D02*
X95160180Y-98729874D01*
X95160180Y-98729874D02*
X95160180Y-98825112D01*
X95160180Y-98825112D02*
X95112561Y-98967969D01*
X95112561Y-98967969D02*
X95064942Y-99015588D01*
X94160180Y-99920350D02*
X94160180Y-99444160D01*
X94160180Y-99444160D02*
X95160180Y-99444160D01*
X51741009Y-102318095D02*
X51788628Y-102175238D01*
X51788628Y-102175238D02*
X51836247Y-102127619D01*
X51836247Y-102127619D02*
X51931485Y-102080000D01*
X51931485Y-102080000D02*
X52074342Y-102080000D01*
X52074342Y-102080000D02*
X52169580Y-102127619D01*
X52169580Y-102127619D02*
X52217200Y-102175238D01*
X52217200Y-102175238D02*
X52264819Y-102270476D01*
X52264819Y-102270476D02*
X52264819Y-102651428D01*
X52264819Y-102651428D02*
X51264819Y-102651428D01*
X51264819Y-102651428D02*
X51264819Y-102318095D01*
X51264819Y-102318095D02*
X51312438Y-102222857D01*
X51312438Y-102222857D02*
X51360057Y-102175238D01*
X51360057Y-102175238D02*
X51455295Y-102127619D01*
X51455295Y-102127619D02*
X51550533Y-102127619D01*
X51550533Y-102127619D02*
X51645771Y-102175238D01*
X51645771Y-102175238D02*
X51693390Y-102222857D01*
X51693390Y-102222857D02*
X51741009Y-102318095D01*
X51741009Y-102318095D02*
X51741009Y-102651428D01*
X51979104Y-101699047D02*
X51979104Y-101222857D01*
X52264819Y-101794285D02*
X51264819Y-101460952D01*
X51264819Y-101460952D02*
X52264819Y-101127619D01*
X51264819Y-100937142D02*
X51264819Y-100365714D01*
X52264819Y-100651428D02*
X51264819Y-100651428D01*
X74168095Y-145144819D02*
X74168095Y-145954342D01*
X74168095Y-145954342D02*
X74215714Y-146049580D01*
X74215714Y-146049580D02*
X74263333Y-146097200D01*
X74263333Y-146097200D02*
X74358571Y-146144819D01*
X74358571Y-146144819D02*
X74549047Y-146144819D01*
X74549047Y-146144819D02*
X74644285Y-146097200D01*
X74644285Y-146097200D02*
X74691904Y-146049580D01*
X74691904Y-146049580D02*
X74739523Y-145954342D01*
X74739523Y-145954342D02*
X74739523Y-145144819D01*
X75739523Y-146144819D02*
X75168095Y-146144819D01*
X75453809Y-146144819D02*
X75453809Y-145144819D01*
X75453809Y-145144819D02*
X75358571Y-145287676D01*
X75358571Y-145287676D02*
X75263333Y-145382914D01*
X75263333Y-145382914D02*
X75168095Y-145430533D01*
X70665180Y-139290588D02*
X70665180Y-138719160D01*
X70665180Y-139004874D02*
X71665180Y-139004874D01*
X71665180Y-139004874D02*
X71522323Y-138909636D01*
X71522323Y-138909636D02*
X71427085Y-138814398D01*
X71427085Y-138814398D02*
X71379466Y-138719160D01*
X71236609Y-139862017D02*
X71284228Y-139766779D01*
X71284228Y-139766779D02*
X71331847Y-139719160D01*
X71331847Y-139719160D02*
X71427085Y-139671541D01*
X71427085Y-139671541D02*
X71474704Y-139671541D01*
X71474704Y-139671541D02*
X71569942Y-139719160D01*
X71569942Y-139719160D02*
X71617561Y-139766779D01*
X71617561Y-139766779D02*
X71665180Y-139862017D01*
X71665180Y-139862017D02*
X71665180Y-140052493D01*
X71665180Y-140052493D02*
X71617561Y-140147731D01*
X71617561Y-140147731D02*
X71569942Y-140195350D01*
X71569942Y-140195350D02*
X71474704Y-140242969D01*
X71474704Y-140242969D02*
X71427085Y-140242969D01*
X71427085Y-140242969D02*
X71331847Y-140195350D01*
X71331847Y-140195350D02*
X71284228Y-140147731D01*
X71284228Y-140147731D02*
X71236609Y-140052493D01*
X71236609Y-140052493D02*
X71236609Y-139862017D01*
X71236609Y-139862017D02*
X71188990Y-139766779D01*
X71188990Y-139766779D02*
X71141371Y-139719160D01*
X71141371Y-139719160D02*
X71046133Y-139671541D01*
X71046133Y-139671541D02*
X70855657Y-139671541D01*
X70855657Y-139671541D02*
X70760419Y-139719160D01*
X70760419Y-139719160D02*
X70712800Y-139766779D01*
X70712800Y-139766779D02*
X70665180Y-139862017D01*
X70665180Y-139862017D02*
X70665180Y-140052493D01*
X70665180Y-140052493D02*
X70712800Y-140147731D01*
X70712800Y-140147731D02*
X70760419Y-140195350D01*
X70760419Y-140195350D02*
X70855657Y-140242969D01*
X70855657Y-140242969D02*
X71046133Y-140242969D01*
X71046133Y-140242969D02*
X71141371Y-140195350D01*
X71141371Y-140195350D02*
X71188990Y-140147731D01*
X71188990Y-140147731D02*
X71236609Y-140052493D01*
X61171847Y-152333220D02*
X60505180Y-152333220D01*
X61552800Y-152095125D02*
X60838514Y-151857030D01*
X60838514Y-151857030D02*
X60838514Y-152476077D01*
X61505180Y-152761792D02*
X61505180Y-153380839D01*
X61505180Y-153380839D02*
X61124228Y-153047506D01*
X61124228Y-153047506D02*
X61124228Y-153190363D01*
X61124228Y-153190363D02*
X61076609Y-153285601D01*
X61076609Y-153285601D02*
X61028990Y-153333220D01*
X61028990Y-153333220D02*
X60933752Y-153380839D01*
X60933752Y-153380839D02*
X60695657Y-153380839D01*
X60695657Y-153380839D02*
X60600419Y-153333220D01*
X60600419Y-153333220D02*
X60552800Y-153285601D01*
X60552800Y-153285601D02*
X60505180Y-153190363D01*
X60505180Y-153190363D02*
X60505180Y-152904649D01*
X60505180Y-152904649D02*
X60552800Y-152809411D01*
X60552800Y-152809411D02*
X60600419Y-152761792D01*
X96969942Y-152809411D02*
X97017561Y-152857030D01*
X97017561Y-152857030D02*
X97065180Y-152952268D01*
X97065180Y-152952268D02*
X97065180Y-153190363D01*
X97065180Y-153190363D02*
X97017561Y-153285601D01*
X97017561Y-153285601D02*
X96969942Y-153333220D01*
X96969942Y-153333220D02*
X96874704Y-153380839D01*
X96874704Y-153380839D02*
X96779466Y-153380839D01*
X96779466Y-153380839D02*
X96636609Y-153333220D01*
X96636609Y-153333220D02*
X96065180Y-152761792D01*
X96065180Y-152761792D02*
X96065180Y-153380839D01*
X56377561Y-139290588D02*
X56425180Y-139195350D01*
X56425180Y-139195350D02*
X56425180Y-139052493D01*
X56425180Y-139052493D02*
X56377561Y-138909636D01*
X56377561Y-138909636D02*
X56282323Y-138814398D01*
X56282323Y-138814398D02*
X56187085Y-138766779D01*
X56187085Y-138766779D02*
X55996609Y-138719160D01*
X55996609Y-138719160D02*
X55853752Y-138719160D01*
X55853752Y-138719160D02*
X55663276Y-138766779D01*
X55663276Y-138766779D02*
X55568038Y-138814398D01*
X55568038Y-138814398D02*
X55472800Y-138909636D01*
X55472800Y-138909636D02*
X55425180Y-139052493D01*
X55425180Y-139052493D02*
X55425180Y-139147731D01*
X55425180Y-139147731D02*
X55472800Y-139290588D01*
X55472800Y-139290588D02*
X55520419Y-139338207D01*
X55520419Y-139338207D02*
X55853752Y-139338207D01*
X55853752Y-139338207D02*
X55853752Y-139147731D01*
X55425180Y-139766779D02*
X56425180Y-139766779D01*
X56425180Y-139766779D02*
X55425180Y-140338207D01*
X55425180Y-140338207D02*
X56425180Y-140338207D01*
X55425180Y-140814398D02*
X56425180Y-140814398D01*
X56425180Y-140814398D02*
X56425180Y-141052493D01*
X56425180Y-141052493D02*
X56377561Y-141195350D01*
X56377561Y-141195350D02*
X56282323Y-141290588D01*
X56282323Y-141290588D02*
X56187085Y-141338207D01*
X56187085Y-141338207D02*
X55996609Y-141385826D01*
X55996609Y-141385826D02*
X55853752Y-141385826D01*
X55853752Y-141385826D02*
X55663276Y-141338207D01*
X55663276Y-141338207D02*
X55568038Y-141290588D01*
X55568038Y-141290588D02*
X55472800Y-141195350D01*
X55472800Y-141195350D02*
X55425180Y-141052493D01*
X55425180Y-141052493D02*
X55425180Y-140814398D01*
X69125180Y-151809411D02*
X69125180Y-152428458D01*
X69125180Y-152428458D02*
X68744228Y-152095125D01*
X68744228Y-152095125D02*
X68744228Y-152237982D01*
X68744228Y-152237982D02*
X68696609Y-152333220D01*
X68696609Y-152333220D02*
X68648990Y-152380839D01*
X68648990Y-152380839D02*
X68553752Y-152428458D01*
X68553752Y-152428458D02*
X68315657Y-152428458D01*
X68315657Y-152428458D02*
X68220419Y-152380839D01*
X68220419Y-152380839D02*
X68172800Y-152333220D01*
X68172800Y-152333220D02*
X68125180Y-152237982D01*
X68125180Y-152237982D02*
X68125180Y-151952268D01*
X68125180Y-151952268D02*
X68172800Y-151857030D01*
X68172800Y-151857030D02*
X68220419Y-151809411D01*
X69125180Y-153333220D02*
X69125180Y-152857030D01*
X69125180Y-152857030D02*
X68648990Y-152809411D01*
X68648990Y-152809411D02*
X68696609Y-152857030D01*
X68696609Y-152857030D02*
X68744228Y-152952268D01*
X68744228Y-152952268D02*
X68744228Y-153190363D01*
X68744228Y-153190363D02*
X68696609Y-153285601D01*
X68696609Y-153285601D02*
X68648990Y-153333220D01*
X68648990Y-153333220D02*
X68553752Y-153380839D01*
X68553752Y-153380839D02*
X68315657Y-153380839D01*
X68315657Y-153380839D02*
X68220419Y-153333220D01*
X68220419Y-153333220D02*
X68172800Y-153285601D01*
X68172800Y-153285601D02*
X68125180Y-153190363D01*
X68125180Y-153190363D02*
X68125180Y-152952268D01*
X68125180Y-152952268D02*
X68172800Y-152857030D01*
X68172800Y-152857030D02*
X68220419Y-152809411D01*
X69029942Y-138719160D02*
X69077561Y-138766779D01*
X69077561Y-138766779D02*
X69125180Y-138862017D01*
X69125180Y-138862017D02*
X69125180Y-139100112D01*
X69125180Y-139100112D02*
X69077561Y-139195350D01*
X69077561Y-139195350D02*
X69029942Y-139242969D01*
X69029942Y-139242969D02*
X68934704Y-139290588D01*
X68934704Y-139290588D02*
X68839466Y-139290588D01*
X68839466Y-139290588D02*
X68696609Y-139242969D01*
X68696609Y-139242969D02*
X68125180Y-138671541D01*
X68125180Y-138671541D02*
X68125180Y-139290588D01*
X69125180Y-139909636D02*
X69125180Y-140004874D01*
X69125180Y-140004874D02*
X69077561Y-140100112D01*
X69077561Y-140100112D02*
X69029942Y-140147731D01*
X69029942Y-140147731D02*
X68934704Y-140195350D01*
X68934704Y-140195350D02*
X68744228Y-140242969D01*
X68744228Y-140242969D02*
X68506133Y-140242969D01*
X68506133Y-140242969D02*
X68315657Y-140195350D01*
X68315657Y-140195350D02*
X68220419Y-140147731D01*
X68220419Y-140147731D02*
X68172800Y-140100112D01*
X68172800Y-140100112D02*
X68125180Y-140004874D01*
X68125180Y-140004874D02*
X68125180Y-139909636D01*
X68125180Y-139909636D02*
X68172800Y-139814398D01*
X68172800Y-139814398D02*
X68220419Y-139766779D01*
X68220419Y-139766779D02*
X68315657Y-139719160D01*
X68315657Y-139719160D02*
X68506133Y-139671541D01*
X68506133Y-139671541D02*
X68744228Y-139671541D01*
X68744228Y-139671541D02*
X68934704Y-139719160D01*
X68934704Y-139719160D02*
X69029942Y-139766779D01*
X69029942Y-139766779D02*
X69077561Y-139814398D01*
X69077561Y-139814398D02*
X69125180Y-139909636D01*
X61171847Y-139195350D02*
X60505180Y-139195350D01*
X61552800Y-138957255D02*
X60838514Y-138719160D01*
X60838514Y-138719160D02*
X60838514Y-139338207D01*
X61076609Y-139862017D02*
X61124228Y-139766779D01*
X61124228Y-139766779D02*
X61171847Y-139719160D01*
X61171847Y-139719160D02*
X61267085Y-139671541D01*
X61267085Y-139671541D02*
X61314704Y-139671541D01*
X61314704Y-139671541D02*
X61409942Y-139719160D01*
X61409942Y-139719160D02*
X61457561Y-139766779D01*
X61457561Y-139766779D02*
X61505180Y-139862017D01*
X61505180Y-139862017D02*
X61505180Y-140052493D01*
X61505180Y-140052493D02*
X61457561Y-140147731D01*
X61457561Y-140147731D02*
X61409942Y-140195350D01*
X61409942Y-140195350D02*
X61314704Y-140242969D01*
X61314704Y-140242969D02*
X61267085Y-140242969D01*
X61267085Y-140242969D02*
X61171847Y-140195350D01*
X61171847Y-140195350D02*
X61124228Y-140147731D01*
X61124228Y-140147731D02*
X61076609Y-140052493D01*
X61076609Y-140052493D02*
X61076609Y-139862017D01*
X61076609Y-139862017D02*
X61028990Y-139766779D01*
X61028990Y-139766779D02*
X60981371Y-139719160D01*
X60981371Y-139719160D02*
X60886133Y-139671541D01*
X60886133Y-139671541D02*
X60695657Y-139671541D01*
X60695657Y-139671541D02*
X60600419Y-139719160D01*
X60600419Y-139719160D02*
X60552800Y-139766779D01*
X60552800Y-139766779D02*
X60505180Y-139862017D01*
X60505180Y-139862017D02*
X60505180Y-140052493D01*
X60505180Y-140052493D02*
X60552800Y-140147731D01*
X60552800Y-140147731D02*
X60600419Y-140195350D01*
X60600419Y-140195350D02*
X60695657Y-140242969D01*
X60695657Y-140242969D02*
X60886133Y-140242969D01*
X60886133Y-140242969D02*
X60981371Y-140195350D01*
X60981371Y-140195350D02*
X61028990Y-140147731D01*
X61028990Y-140147731D02*
X61076609Y-140052493D01*
X66489942Y-138719160D02*
X66537561Y-138766779D01*
X66537561Y-138766779D02*
X66585180Y-138862017D01*
X66585180Y-138862017D02*
X66585180Y-139100112D01*
X66585180Y-139100112D02*
X66537561Y-139195350D01*
X66537561Y-139195350D02*
X66489942Y-139242969D01*
X66489942Y-139242969D02*
X66394704Y-139290588D01*
X66394704Y-139290588D02*
X66299466Y-139290588D01*
X66299466Y-139290588D02*
X66156609Y-139242969D01*
X66156609Y-139242969D02*
X65585180Y-138671541D01*
X65585180Y-138671541D02*
X65585180Y-139290588D01*
X66585180Y-140147731D02*
X66585180Y-139957255D01*
X66585180Y-139957255D02*
X66537561Y-139862017D01*
X66537561Y-139862017D02*
X66489942Y-139814398D01*
X66489942Y-139814398D02*
X66347085Y-139719160D01*
X66347085Y-139719160D02*
X66156609Y-139671541D01*
X66156609Y-139671541D02*
X65775657Y-139671541D01*
X65775657Y-139671541D02*
X65680419Y-139719160D01*
X65680419Y-139719160D02*
X65632800Y-139766779D01*
X65632800Y-139766779D02*
X65585180Y-139862017D01*
X65585180Y-139862017D02*
X65585180Y-140052493D01*
X65585180Y-140052493D02*
X65632800Y-140147731D01*
X65632800Y-140147731D02*
X65680419Y-140195350D01*
X65680419Y-140195350D02*
X65775657Y-140242969D01*
X65775657Y-140242969D02*
X66013752Y-140242969D01*
X66013752Y-140242969D02*
X66108990Y-140195350D01*
X66108990Y-140195350D02*
X66156609Y-140147731D01*
X66156609Y-140147731D02*
X66204228Y-140052493D01*
X66204228Y-140052493D02*
X66204228Y-139862017D01*
X66204228Y-139862017D02*
X66156609Y-139766779D01*
X66156609Y-139766779D02*
X66108990Y-139719160D01*
X66108990Y-139719160D02*
X66013752Y-139671541D01*
X93525180Y-153380839D02*
X93525180Y-152809411D01*
X93525180Y-153095125D02*
X94525180Y-153095125D01*
X94525180Y-153095125D02*
X94382323Y-152999887D01*
X94382323Y-152999887D02*
X94287085Y-152904649D01*
X94287085Y-152904649D02*
X94239466Y-152809411D01*
X74205180Y-151809411D02*
X74205180Y-152428458D01*
X74205180Y-152428458D02*
X73824228Y-152095125D01*
X73824228Y-152095125D02*
X73824228Y-152237982D01*
X73824228Y-152237982D02*
X73776609Y-152333220D01*
X73776609Y-152333220D02*
X73728990Y-152380839D01*
X73728990Y-152380839D02*
X73633752Y-152428458D01*
X73633752Y-152428458D02*
X73395657Y-152428458D01*
X73395657Y-152428458D02*
X73300419Y-152380839D01*
X73300419Y-152380839D02*
X73252800Y-152333220D01*
X73252800Y-152333220D02*
X73205180Y-152237982D01*
X73205180Y-152237982D02*
X73205180Y-151952268D01*
X73205180Y-151952268D02*
X73252800Y-151857030D01*
X73252800Y-151857030D02*
X73300419Y-151809411D01*
X74205180Y-152761792D02*
X74205180Y-153428458D01*
X74205180Y-153428458D02*
X73205180Y-152999887D01*
X55425180Y-152428458D02*
X55425180Y-151857030D01*
X55425180Y-152142744D02*
X56425180Y-152142744D01*
X56425180Y-152142744D02*
X56282323Y-152047506D01*
X56282323Y-152047506D02*
X56187085Y-151952268D01*
X56187085Y-151952268D02*
X56139466Y-151857030D01*
X56329942Y-152809411D02*
X56377561Y-152857030D01*
X56377561Y-152857030D02*
X56425180Y-152952268D01*
X56425180Y-152952268D02*
X56425180Y-153190363D01*
X56425180Y-153190363D02*
X56377561Y-153285601D01*
X56377561Y-153285601D02*
X56329942Y-153333220D01*
X56329942Y-153333220D02*
X56234704Y-153380839D01*
X56234704Y-153380839D02*
X56139466Y-153380839D01*
X56139466Y-153380839D02*
X55996609Y-153333220D01*
X55996609Y-153333220D02*
X55425180Y-152761792D01*
X55425180Y-152761792D02*
X55425180Y-153380839D01*
X74109942Y-138719160D02*
X74157561Y-138766779D01*
X74157561Y-138766779D02*
X74205180Y-138862017D01*
X74205180Y-138862017D02*
X74205180Y-139100112D01*
X74205180Y-139100112D02*
X74157561Y-139195350D01*
X74157561Y-139195350D02*
X74109942Y-139242969D01*
X74109942Y-139242969D02*
X74014704Y-139290588D01*
X74014704Y-139290588D02*
X73919466Y-139290588D01*
X73919466Y-139290588D02*
X73776609Y-139242969D01*
X73776609Y-139242969D02*
X73205180Y-138671541D01*
X73205180Y-138671541D02*
X73205180Y-139290588D01*
X73205180Y-140242969D02*
X73205180Y-139671541D01*
X73205180Y-139957255D02*
X74205180Y-139957255D01*
X74205180Y-139957255D02*
X74062323Y-139862017D01*
X74062323Y-139862017D02*
X73967085Y-139766779D01*
X73967085Y-139766779D02*
X73919466Y-139671541D01*
X86571847Y-152333220D02*
X85905180Y-152333220D01*
X86952800Y-152095125D02*
X86238514Y-151857030D01*
X86238514Y-151857030D02*
X86238514Y-152476077D01*
X86809942Y-152809411D02*
X86857561Y-152857030D01*
X86857561Y-152857030D02*
X86905180Y-152952268D01*
X86905180Y-152952268D02*
X86905180Y-153190363D01*
X86905180Y-153190363D02*
X86857561Y-153285601D01*
X86857561Y-153285601D02*
X86809942Y-153333220D01*
X86809942Y-153333220D02*
X86714704Y-153380839D01*
X86714704Y-153380839D02*
X86619466Y-153380839D01*
X86619466Y-153380839D02*
X86476609Y-153333220D01*
X86476609Y-153333220D02*
X85905180Y-152761792D01*
X85905180Y-152761792D02*
X85905180Y-153380839D01*
X53885180Y-138623922D02*
X52885180Y-138957255D01*
X52885180Y-138957255D02*
X53885180Y-139290588D01*
X52980419Y-140195350D02*
X52932800Y-140147731D01*
X52932800Y-140147731D02*
X52885180Y-140004874D01*
X52885180Y-140004874D02*
X52885180Y-139909636D01*
X52885180Y-139909636D02*
X52932800Y-139766779D01*
X52932800Y-139766779D02*
X53028038Y-139671541D01*
X53028038Y-139671541D02*
X53123276Y-139623922D01*
X53123276Y-139623922D02*
X53313752Y-139576303D01*
X53313752Y-139576303D02*
X53456609Y-139576303D01*
X53456609Y-139576303D02*
X53647085Y-139623922D01*
X53647085Y-139623922D02*
X53742323Y-139671541D01*
X53742323Y-139671541D02*
X53837561Y-139766779D01*
X53837561Y-139766779D02*
X53885180Y-139909636D01*
X53885180Y-139909636D02*
X53885180Y-140004874D01*
X53885180Y-140004874D02*
X53837561Y-140147731D01*
X53837561Y-140147731D02*
X53789942Y-140195350D01*
X52980419Y-141195350D02*
X52932800Y-141147731D01*
X52932800Y-141147731D02*
X52885180Y-141004874D01*
X52885180Y-141004874D02*
X52885180Y-140909636D01*
X52885180Y-140909636D02*
X52932800Y-140766779D01*
X52932800Y-140766779D02*
X53028038Y-140671541D01*
X53028038Y-140671541D02*
X53123276Y-140623922D01*
X53123276Y-140623922D02*
X53313752Y-140576303D01*
X53313752Y-140576303D02*
X53456609Y-140576303D01*
X53456609Y-140576303D02*
X53647085Y-140623922D01*
X53647085Y-140623922D02*
X53742323Y-140671541D01*
X53742323Y-140671541D02*
X53837561Y-140766779D01*
X53837561Y-140766779D02*
X53885180Y-140909636D01*
X53885180Y-140909636D02*
X53885180Y-141004874D01*
X53885180Y-141004874D02*
X53837561Y-141147731D01*
X53837561Y-141147731D02*
X53789942Y-141195350D01*
X52789942Y-141385827D02*
X52789942Y-142147731D01*
X53885180Y-142290589D02*
X53885180Y-142909636D01*
X53885180Y-142909636D02*
X53504228Y-142576303D01*
X53504228Y-142576303D02*
X53504228Y-142719160D01*
X53504228Y-142719160D02*
X53456609Y-142814398D01*
X53456609Y-142814398D02*
X53408990Y-142862017D01*
X53408990Y-142862017D02*
X53313752Y-142909636D01*
X53313752Y-142909636D02*
X53075657Y-142909636D01*
X53075657Y-142909636D02*
X52980419Y-142862017D01*
X52980419Y-142862017D02*
X52932800Y-142814398D01*
X52932800Y-142814398D02*
X52885180Y-142719160D01*
X52885180Y-142719160D02*
X52885180Y-142433446D01*
X52885180Y-142433446D02*
X52932800Y-142338208D01*
X52932800Y-142338208D02*
X52980419Y-142290589D01*
X53885180Y-143195351D02*
X52885180Y-143528684D01*
X52885180Y-143528684D02*
X53885180Y-143862017D01*
X53885180Y-144100113D02*
X53885180Y-144719160D01*
X53885180Y-144719160D02*
X53504228Y-144385827D01*
X53504228Y-144385827D02*
X53504228Y-144528684D01*
X53504228Y-144528684D02*
X53456609Y-144623922D01*
X53456609Y-144623922D02*
X53408990Y-144671541D01*
X53408990Y-144671541D02*
X53313752Y-144719160D01*
X53313752Y-144719160D02*
X53075657Y-144719160D01*
X53075657Y-144719160D02*
X52980419Y-144671541D01*
X52980419Y-144671541D02*
X52932800Y-144623922D01*
X52932800Y-144623922D02*
X52885180Y-144528684D01*
X52885180Y-144528684D02*
X52885180Y-144242970D01*
X52885180Y-144242970D02*
X52932800Y-144147732D01*
X52932800Y-144147732D02*
X52980419Y-144100113D01*
X71665180Y-151809411D02*
X71665180Y-152428458D01*
X71665180Y-152428458D02*
X71284228Y-152095125D01*
X71284228Y-152095125D02*
X71284228Y-152237982D01*
X71284228Y-152237982D02*
X71236609Y-152333220D01*
X71236609Y-152333220D02*
X71188990Y-152380839D01*
X71188990Y-152380839D02*
X71093752Y-152428458D01*
X71093752Y-152428458D02*
X70855657Y-152428458D01*
X70855657Y-152428458D02*
X70760419Y-152380839D01*
X70760419Y-152380839D02*
X70712800Y-152333220D01*
X70712800Y-152333220D02*
X70665180Y-152237982D01*
X70665180Y-152237982D02*
X70665180Y-151952268D01*
X70665180Y-151952268D02*
X70712800Y-151857030D01*
X70712800Y-151857030D02*
X70760419Y-151809411D01*
X71665180Y-153285601D02*
X71665180Y-153095125D01*
X71665180Y-153095125D02*
X71617561Y-152999887D01*
X71617561Y-152999887D02*
X71569942Y-152952268D01*
X71569942Y-152952268D02*
X71427085Y-152857030D01*
X71427085Y-152857030D02*
X71236609Y-152809411D01*
X71236609Y-152809411D02*
X70855657Y-152809411D01*
X70855657Y-152809411D02*
X70760419Y-152857030D01*
X70760419Y-152857030D02*
X70712800Y-152904649D01*
X70712800Y-152904649D02*
X70665180Y-152999887D01*
X70665180Y-152999887D02*
X70665180Y-153190363D01*
X70665180Y-153190363D02*
X70712800Y-153285601D01*
X70712800Y-153285601D02*
X70760419Y-153333220D01*
X70760419Y-153333220D02*
X70855657Y-153380839D01*
X70855657Y-153380839D02*
X71093752Y-153380839D01*
X71093752Y-153380839D02*
X71188990Y-153333220D01*
X71188990Y-153333220D02*
X71236609Y-153285601D01*
X71236609Y-153285601D02*
X71284228Y-153190363D01*
X71284228Y-153190363D02*
X71284228Y-152999887D01*
X71284228Y-152999887D02*
X71236609Y-152904649D01*
X71236609Y-152904649D02*
X71188990Y-152857030D01*
X71188990Y-152857030D02*
X71093752Y-152809411D01*
X51345180Y-150571315D02*
X50345180Y-150904648D01*
X50345180Y-150904648D02*
X51345180Y-151237981D01*
X50392800Y-151952267D02*
X50345180Y-151857029D01*
X50345180Y-151857029D02*
X50345180Y-151666553D01*
X50345180Y-151666553D02*
X50392800Y-151571315D01*
X50392800Y-151571315D02*
X50488038Y-151523696D01*
X50488038Y-151523696D02*
X50868990Y-151523696D01*
X50868990Y-151523696D02*
X50964228Y-151571315D01*
X50964228Y-151571315D02*
X51011847Y-151666553D01*
X51011847Y-151666553D02*
X51011847Y-151857029D01*
X51011847Y-151857029D02*
X50964228Y-151952267D01*
X50964228Y-151952267D02*
X50868990Y-151999886D01*
X50868990Y-151999886D02*
X50773752Y-151999886D01*
X50773752Y-151999886D02*
X50678514Y-151523696D01*
X50345180Y-152333220D02*
X51011847Y-152857029D01*
X51011847Y-152333220D02*
X50345180Y-152857029D01*
X51011847Y-153095125D02*
X51011847Y-153476077D01*
X51345180Y-153237982D02*
X50488038Y-153237982D01*
X50488038Y-153237982D02*
X50392800Y-153285601D01*
X50392800Y-153285601D02*
X50345180Y-153380839D01*
X50345180Y-153380839D02*
X50345180Y-153476077D01*
X79285180Y-151809411D02*
X79285180Y-152428458D01*
X79285180Y-152428458D02*
X78904228Y-152095125D01*
X78904228Y-152095125D02*
X78904228Y-152237982D01*
X78904228Y-152237982D02*
X78856609Y-152333220D01*
X78856609Y-152333220D02*
X78808990Y-152380839D01*
X78808990Y-152380839D02*
X78713752Y-152428458D01*
X78713752Y-152428458D02*
X78475657Y-152428458D01*
X78475657Y-152428458D02*
X78380419Y-152380839D01*
X78380419Y-152380839D02*
X78332800Y-152333220D01*
X78332800Y-152333220D02*
X78285180Y-152237982D01*
X78285180Y-152237982D02*
X78285180Y-151952268D01*
X78285180Y-151952268D02*
X78332800Y-151857030D01*
X78332800Y-151857030D02*
X78380419Y-151809411D01*
X78285180Y-152904649D02*
X78285180Y-153095125D01*
X78285180Y-153095125D02*
X78332800Y-153190363D01*
X78332800Y-153190363D02*
X78380419Y-153237982D01*
X78380419Y-153237982D02*
X78523276Y-153333220D01*
X78523276Y-153333220D02*
X78713752Y-153380839D01*
X78713752Y-153380839D02*
X79094704Y-153380839D01*
X79094704Y-153380839D02*
X79189942Y-153333220D01*
X79189942Y-153333220D02*
X79237561Y-153285601D01*
X79237561Y-153285601D02*
X79285180Y-153190363D01*
X79285180Y-153190363D02*
X79285180Y-152999887D01*
X79285180Y-152999887D02*
X79237561Y-152904649D01*
X79237561Y-152904649D02*
X79189942Y-152857030D01*
X79189942Y-152857030D02*
X79094704Y-152809411D01*
X79094704Y-152809411D02*
X78856609Y-152809411D01*
X78856609Y-152809411D02*
X78761371Y-152857030D01*
X78761371Y-152857030D02*
X78713752Y-152904649D01*
X78713752Y-152904649D02*
X78666133Y-152999887D01*
X78666133Y-152999887D02*
X78666133Y-153190363D01*
X78666133Y-153190363D02*
X78713752Y-153285601D01*
X78713752Y-153285601D02*
X78761371Y-153333220D01*
X78761371Y-153333220D02*
X78856609Y-153380839D01*
X75745180Y-139290588D02*
X75745180Y-138719160D01*
X75745180Y-139004874D02*
X76745180Y-139004874D01*
X76745180Y-139004874D02*
X76602323Y-138909636D01*
X76602323Y-138909636D02*
X76507085Y-138814398D01*
X76507085Y-138814398D02*
X76459466Y-138719160D01*
X75745180Y-139766779D02*
X75745180Y-139957255D01*
X75745180Y-139957255D02*
X75792800Y-140052493D01*
X75792800Y-140052493D02*
X75840419Y-140100112D01*
X75840419Y-140100112D02*
X75983276Y-140195350D01*
X75983276Y-140195350D02*
X76173752Y-140242969D01*
X76173752Y-140242969D02*
X76554704Y-140242969D01*
X76554704Y-140242969D02*
X76649942Y-140195350D01*
X76649942Y-140195350D02*
X76697561Y-140147731D01*
X76697561Y-140147731D02*
X76745180Y-140052493D01*
X76745180Y-140052493D02*
X76745180Y-139862017D01*
X76745180Y-139862017D02*
X76697561Y-139766779D01*
X76697561Y-139766779D02*
X76649942Y-139719160D01*
X76649942Y-139719160D02*
X76554704Y-139671541D01*
X76554704Y-139671541D02*
X76316609Y-139671541D01*
X76316609Y-139671541D02*
X76221371Y-139719160D01*
X76221371Y-139719160D02*
X76173752Y-139766779D01*
X76173752Y-139766779D02*
X76126133Y-139862017D01*
X76126133Y-139862017D02*
X76126133Y-140052493D01*
X76126133Y-140052493D02*
X76173752Y-140147731D01*
X76173752Y-140147731D02*
X76221371Y-140195350D01*
X76221371Y-140195350D02*
X76316609Y-140242969D01*
X53837561Y-151285601D02*
X53885180Y-151190363D01*
X53885180Y-151190363D02*
X53885180Y-151047506D01*
X53885180Y-151047506D02*
X53837561Y-150904649D01*
X53837561Y-150904649D02*
X53742323Y-150809411D01*
X53742323Y-150809411D02*
X53647085Y-150761792D01*
X53647085Y-150761792D02*
X53456609Y-150714173D01*
X53456609Y-150714173D02*
X53313752Y-150714173D01*
X53313752Y-150714173D02*
X53123276Y-150761792D01*
X53123276Y-150761792D02*
X53028038Y-150809411D01*
X53028038Y-150809411D02*
X52932800Y-150904649D01*
X52932800Y-150904649D02*
X52885180Y-151047506D01*
X52885180Y-151047506D02*
X52885180Y-151142744D01*
X52885180Y-151142744D02*
X52932800Y-151285601D01*
X52932800Y-151285601D02*
X52980419Y-151333220D01*
X52980419Y-151333220D02*
X53313752Y-151333220D01*
X53313752Y-151333220D02*
X53313752Y-151142744D01*
X52885180Y-151761792D02*
X53885180Y-151761792D01*
X53885180Y-151761792D02*
X52885180Y-152333220D01*
X52885180Y-152333220D02*
X53885180Y-152333220D01*
X52885180Y-152809411D02*
X53885180Y-152809411D01*
X53885180Y-152809411D02*
X53885180Y-153047506D01*
X53885180Y-153047506D02*
X53837561Y-153190363D01*
X53837561Y-153190363D02*
X53742323Y-153285601D01*
X53742323Y-153285601D02*
X53647085Y-153333220D01*
X53647085Y-153333220D02*
X53456609Y-153380839D01*
X53456609Y-153380839D02*
X53313752Y-153380839D01*
X53313752Y-153380839D02*
X53123276Y-153333220D01*
X53123276Y-153333220D02*
X53028038Y-153285601D01*
X53028038Y-153285601D02*
X52932800Y-153190363D01*
X52932800Y-153190363D02*
X52885180Y-153047506D01*
X52885180Y-153047506D02*
X52885180Y-152809411D01*
X67276552Y-147774819D02*
X67276552Y-146774819D01*
X67276552Y-147251009D02*
X67847980Y-147251009D01*
X67847980Y-147774819D02*
X67847980Y-146774819D01*
X68324171Y-147251009D02*
X68657504Y-147251009D01*
X68800361Y-147774819D02*
X68324171Y-147774819D01*
X68324171Y-147774819D02*
X68324171Y-146774819D01*
X68324171Y-146774819D02*
X68800361Y-146774819D01*
X69705123Y-147774819D02*
X69228933Y-147774819D01*
X69228933Y-147774819D02*
X69228933Y-146774819D01*
X69895600Y-146774819D02*
X70467028Y-146774819D01*
X70181314Y-147774819D02*
X70181314Y-146774819D01*
X70800362Y-147251009D02*
X71133695Y-147251009D01*
X71276552Y-147774819D02*
X70800362Y-147774819D01*
X70800362Y-147774819D02*
X70800362Y-146774819D01*
X70800362Y-146774819D02*
X71276552Y-146774819D01*
X72276552Y-147679580D02*
X72228933Y-147727200D01*
X72228933Y-147727200D02*
X72086076Y-147774819D01*
X72086076Y-147774819D02*
X71990838Y-147774819D01*
X71990838Y-147774819D02*
X71847981Y-147727200D01*
X71847981Y-147727200D02*
X71752743Y-147631961D01*
X71752743Y-147631961D02*
X71705124Y-147536723D01*
X71705124Y-147536723D02*
X71657505Y-147346247D01*
X71657505Y-147346247D02*
X71657505Y-147203390D01*
X71657505Y-147203390D02*
X71705124Y-147012914D01*
X71705124Y-147012914D02*
X71752743Y-146917676D01*
X71752743Y-146917676D02*
X71847981Y-146822438D01*
X71847981Y-146822438D02*
X71990838Y-146774819D01*
X71990838Y-146774819D02*
X72086076Y-146774819D01*
X72086076Y-146774819D02*
X72228933Y-146822438D01*
X72228933Y-146822438D02*
X72276552Y-146870057D01*
X72467029Y-147870057D02*
X73228933Y-147870057D01*
X73371791Y-146774819D02*
X73609886Y-147774819D01*
X73609886Y-147774819D02*
X73800362Y-147060533D01*
X73800362Y-147060533D02*
X73990838Y-147774819D01*
X73990838Y-147774819D02*
X74228934Y-146774819D01*
X74562267Y-147727200D02*
X74705124Y-147774819D01*
X74705124Y-147774819D02*
X74943219Y-147774819D01*
X74943219Y-147774819D02*
X75038457Y-147727200D01*
X75038457Y-147727200D02*
X75086076Y-147679580D01*
X75086076Y-147679580D02*
X75133695Y-147584342D01*
X75133695Y-147584342D02*
X75133695Y-147489104D01*
X75133695Y-147489104D02*
X75086076Y-147393866D01*
X75086076Y-147393866D02*
X75038457Y-147346247D01*
X75038457Y-147346247D02*
X74943219Y-147298628D01*
X74943219Y-147298628D02*
X74752743Y-147251009D01*
X74752743Y-147251009D02*
X74657505Y-147203390D01*
X74657505Y-147203390D02*
X74609886Y-147155771D01*
X74609886Y-147155771D02*
X74562267Y-147060533D01*
X74562267Y-147060533D02*
X74562267Y-146965295D01*
X74562267Y-146965295D02*
X74609886Y-146870057D01*
X74609886Y-146870057D02*
X74657505Y-146822438D01*
X74657505Y-146822438D02*
X74752743Y-146774819D01*
X74752743Y-146774819D02*
X74990838Y-146774819D01*
X74990838Y-146774819D02*
X75133695Y-146822438D01*
X76038457Y-147774819D02*
X75562267Y-147774819D01*
X75562267Y-147774819D02*
X75562267Y-146774819D01*
X76133696Y-147870057D02*
X76895600Y-147870057D01*
X76990839Y-146774819D02*
X77324172Y-147774819D01*
X77324172Y-147774819D02*
X77657505Y-146774819D01*
X77895601Y-146774819D02*
X78514648Y-146774819D01*
X78514648Y-146774819D02*
X78181315Y-147155771D01*
X78181315Y-147155771D02*
X78324172Y-147155771D01*
X78324172Y-147155771D02*
X78419410Y-147203390D01*
X78419410Y-147203390D02*
X78467029Y-147251009D01*
X78467029Y-147251009D02*
X78514648Y-147346247D01*
X78514648Y-147346247D02*
X78514648Y-147584342D01*
X78514648Y-147584342D02*
X78467029Y-147679580D01*
X78467029Y-147679580D02*
X78419410Y-147727200D01*
X78419410Y-147727200D02*
X78324172Y-147774819D01*
X78324172Y-147774819D02*
X78038458Y-147774819D01*
X78038458Y-147774819D02*
X77943220Y-147727200D01*
X77943220Y-147727200D02*
X77895601Y-147679580D01*
X78705125Y-147870057D02*
X79467029Y-147870057D01*
X79609887Y-147108152D02*
X79847982Y-147774819D01*
X79847982Y-147774819D02*
X80086077Y-147108152D01*
X80990839Y-147774819D02*
X80419411Y-147774819D01*
X80705125Y-147774819D02*
X80705125Y-146774819D01*
X80705125Y-146774819D02*
X80609887Y-146917676D01*
X80609887Y-146917676D02*
X80514649Y-147012914D01*
X80514649Y-147012914D02*
X80419411Y-147060533D01*
X76745180Y-151809411D02*
X76745180Y-152428458D01*
X76745180Y-152428458D02*
X76364228Y-152095125D01*
X76364228Y-152095125D02*
X76364228Y-152237982D01*
X76364228Y-152237982D02*
X76316609Y-152333220D01*
X76316609Y-152333220D02*
X76268990Y-152380839D01*
X76268990Y-152380839D02*
X76173752Y-152428458D01*
X76173752Y-152428458D02*
X75935657Y-152428458D01*
X75935657Y-152428458D02*
X75840419Y-152380839D01*
X75840419Y-152380839D02*
X75792800Y-152333220D01*
X75792800Y-152333220D02*
X75745180Y-152237982D01*
X75745180Y-152237982D02*
X75745180Y-151952268D01*
X75745180Y-151952268D02*
X75792800Y-151857030D01*
X75792800Y-151857030D02*
X75840419Y-151809411D01*
X76316609Y-152999887D02*
X76364228Y-152904649D01*
X76364228Y-152904649D02*
X76411847Y-152857030D01*
X76411847Y-152857030D02*
X76507085Y-152809411D01*
X76507085Y-152809411D02*
X76554704Y-152809411D01*
X76554704Y-152809411D02*
X76649942Y-152857030D01*
X76649942Y-152857030D02*
X76697561Y-152904649D01*
X76697561Y-152904649D02*
X76745180Y-152999887D01*
X76745180Y-152999887D02*
X76745180Y-153190363D01*
X76745180Y-153190363D02*
X76697561Y-153285601D01*
X76697561Y-153285601D02*
X76649942Y-153333220D01*
X76649942Y-153333220D02*
X76554704Y-153380839D01*
X76554704Y-153380839D02*
X76507085Y-153380839D01*
X76507085Y-153380839D02*
X76411847Y-153333220D01*
X76411847Y-153333220D02*
X76364228Y-153285601D01*
X76364228Y-153285601D02*
X76316609Y-153190363D01*
X76316609Y-153190363D02*
X76316609Y-152999887D01*
X76316609Y-152999887D02*
X76268990Y-152904649D01*
X76268990Y-152904649D02*
X76221371Y-152857030D01*
X76221371Y-152857030D02*
X76126133Y-152809411D01*
X76126133Y-152809411D02*
X75935657Y-152809411D01*
X75935657Y-152809411D02*
X75840419Y-152857030D01*
X75840419Y-152857030D02*
X75792800Y-152904649D01*
X75792800Y-152904649D02*
X75745180Y-152999887D01*
X75745180Y-152999887D02*
X75745180Y-153190363D01*
X75745180Y-153190363D02*
X75792800Y-153285601D01*
X75792800Y-153285601D02*
X75840419Y-153333220D01*
X75840419Y-153333220D02*
X75935657Y-153380839D01*
X75935657Y-153380839D02*
X76126133Y-153380839D01*
X76126133Y-153380839D02*
X76221371Y-153333220D01*
X76221371Y-153333220D02*
X76268990Y-153285601D01*
X76268990Y-153285601D02*
X76316609Y-153190363D01*
X99271847Y-139195350D02*
X98605180Y-139195350D01*
X99652800Y-138957255D02*
X98938514Y-138719160D01*
X98938514Y-138719160D02*
X98938514Y-139338207D01*
X81491847Y-152333220D02*
X80825180Y-152333220D01*
X81872800Y-152095125D02*
X81158514Y-151857030D01*
X81158514Y-151857030D02*
X81158514Y-152476077D01*
X81825180Y-153047506D02*
X81825180Y-153142744D01*
X81825180Y-153142744D02*
X81777561Y-153237982D01*
X81777561Y-153237982D02*
X81729942Y-153285601D01*
X81729942Y-153285601D02*
X81634704Y-153333220D01*
X81634704Y-153333220D02*
X81444228Y-153380839D01*
X81444228Y-153380839D02*
X81206133Y-153380839D01*
X81206133Y-153380839D02*
X81015657Y-153333220D01*
X81015657Y-153333220D02*
X80920419Y-153285601D01*
X80920419Y-153285601D02*
X80872800Y-153237982D01*
X80872800Y-153237982D02*
X80825180Y-153142744D01*
X80825180Y-153142744D02*
X80825180Y-153047506D01*
X80825180Y-153047506D02*
X80872800Y-152952268D01*
X80872800Y-152952268D02*
X80920419Y-152904649D01*
X80920419Y-152904649D02*
X81015657Y-152857030D01*
X81015657Y-152857030D02*
X81206133Y-152809411D01*
X81206133Y-152809411D02*
X81444228Y-152809411D01*
X81444228Y-152809411D02*
X81634704Y-152857030D01*
X81634704Y-152857030D02*
X81729942Y-152904649D01*
X81729942Y-152904649D02*
X81777561Y-152952268D01*
X81777561Y-152952268D02*
X81825180Y-153047506D01*
X64045180Y-151809411D02*
X64045180Y-152428458D01*
X64045180Y-152428458D02*
X63664228Y-152095125D01*
X63664228Y-152095125D02*
X63664228Y-152237982D01*
X63664228Y-152237982D02*
X63616609Y-152333220D01*
X63616609Y-152333220D02*
X63568990Y-152380839D01*
X63568990Y-152380839D02*
X63473752Y-152428458D01*
X63473752Y-152428458D02*
X63235657Y-152428458D01*
X63235657Y-152428458D02*
X63140419Y-152380839D01*
X63140419Y-152380839D02*
X63092800Y-152333220D01*
X63092800Y-152333220D02*
X63045180Y-152237982D01*
X63045180Y-152237982D02*
X63045180Y-151952268D01*
X63045180Y-151952268D02*
X63092800Y-151857030D01*
X63092800Y-151857030D02*
X63140419Y-151809411D01*
X64045180Y-152761792D02*
X64045180Y-153380839D01*
X64045180Y-153380839D02*
X63664228Y-153047506D01*
X63664228Y-153047506D02*
X63664228Y-153190363D01*
X63664228Y-153190363D02*
X63616609Y-153285601D01*
X63616609Y-153285601D02*
X63568990Y-153333220D01*
X63568990Y-153333220D02*
X63473752Y-153380839D01*
X63473752Y-153380839D02*
X63235657Y-153380839D01*
X63235657Y-153380839D02*
X63140419Y-153333220D01*
X63140419Y-153333220D02*
X63092800Y-153285601D01*
X63092800Y-153285601D02*
X63045180Y-153190363D01*
X63045180Y-153190363D02*
X63045180Y-152904649D01*
X63045180Y-152904649D02*
X63092800Y-152809411D01*
X63092800Y-152809411D02*
X63140419Y-152761792D01*
X89111847Y-152333220D02*
X88445180Y-152333220D01*
X89492800Y-152095125D02*
X88778514Y-151857030D01*
X88778514Y-151857030D02*
X88778514Y-152476077D01*
X89445180Y-153333220D02*
X89445180Y-152857030D01*
X89445180Y-152857030D02*
X88968990Y-152809411D01*
X88968990Y-152809411D02*
X89016609Y-152857030D01*
X89016609Y-152857030D02*
X89064228Y-152952268D01*
X89064228Y-152952268D02*
X89064228Y-153190363D01*
X89064228Y-153190363D02*
X89016609Y-153285601D01*
X89016609Y-153285601D02*
X88968990Y-153333220D01*
X88968990Y-153333220D02*
X88873752Y-153380839D01*
X88873752Y-153380839D02*
X88635657Y-153380839D01*
X88635657Y-153380839D02*
X88540419Y-153333220D01*
X88540419Y-153333220D02*
X88492800Y-153285601D01*
X88492800Y-153285601D02*
X88445180Y-153190363D01*
X88445180Y-153190363D02*
X88445180Y-152952268D01*
X88445180Y-152952268D02*
X88492800Y-152857030D01*
X88492800Y-152857030D02*
X88540419Y-152809411D01*
X91651847Y-152333220D02*
X90985180Y-152333220D01*
X92032800Y-152095125D02*
X91318514Y-151857030D01*
X91318514Y-151857030D02*
X91318514Y-152476077D01*
X91985180Y-153285601D02*
X91985180Y-153095125D01*
X91985180Y-153095125D02*
X91937561Y-152999887D01*
X91937561Y-152999887D02*
X91889942Y-152952268D01*
X91889942Y-152952268D02*
X91747085Y-152857030D01*
X91747085Y-152857030D02*
X91556609Y-152809411D01*
X91556609Y-152809411D02*
X91175657Y-152809411D01*
X91175657Y-152809411D02*
X91080419Y-152857030D01*
X91080419Y-152857030D02*
X91032800Y-152904649D01*
X91032800Y-152904649D02*
X90985180Y-152999887D01*
X90985180Y-152999887D02*
X90985180Y-153190363D01*
X90985180Y-153190363D02*
X91032800Y-153285601D01*
X91032800Y-153285601D02*
X91080419Y-153333220D01*
X91080419Y-153333220D02*
X91175657Y-153380839D01*
X91175657Y-153380839D02*
X91413752Y-153380839D01*
X91413752Y-153380839D02*
X91508990Y-153333220D01*
X91508990Y-153333220D02*
X91556609Y-153285601D01*
X91556609Y-153285601D02*
X91604228Y-153190363D01*
X91604228Y-153190363D02*
X91604228Y-152999887D01*
X91604228Y-152999887D02*
X91556609Y-152904649D01*
X91556609Y-152904649D02*
X91508990Y-152857030D01*
X91508990Y-152857030D02*
X91413752Y-152809411D01*
X64045180Y-138766779D02*
X63235657Y-138766779D01*
X63235657Y-138766779D02*
X63140419Y-138814398D01*
X63140419Y-138814398D02*
X63092800Y-138862017D01*
X63092800Y-138862017D02*
X63045180Y-138957255D01*
X63045180Y-138957255D02*
X63045180Y-139147731D01*
X63045180Y-139147731D02*
X63092800Y-139242969D01*
X63092800Y-139242969D02*
X63140419Y-139290588D01*
X63140419Y-139290588D02*
X63235657Y-139338207D01*
X63235657Y-139338207D02*
X64045180Y-139338207D01*
X63092800Y-139766779D02*
X63045180Y-139909636D01*
X63045180Y-139909636D02*
X63045180Y-140147731D01*
X63045180Y-140147731D02*
X63092800Y-140242969D01*
X63092800Y-140242969D02*
X63140419Y-140290588D01*
X63140419Y-140290588D02*
X63235657Y-140338207D01*
X63235657Y-140338207D02*
X63330895Y-140338207D01*
X63330895Y-140338207D02*
X63426133Y-140290588D01*
X63426133Y-140290588D02*
X63473752Y-140242969D01*
X63473752Y-140242969D02*
X63521371Y-140147731D01*
X63521371Y-140147731D02*
X63568990Y-139957255D01*
X63568990Y-139957255D02*
X63616609Y-139862017D01*
X63616609Y-139862017D02*
X63664228Y-139814398D01*
X63664228Y-139814398D02*
X63759466Y-139766779D01*
X63759466Y-139766779D02*
X63854704Y-139766779D01*
X63854704Y-139766779D02*
X63949942Y-139814398D01*
X63949942Y-139814398D02*
X63997561Y-139862017D01*
X63997561Y-139862017D02*
X64045180Y-139957255D01*
X64045180Y-139957255D02*
X64045180Y-140195350D01*
X64045180Y-140195350D02*
X63997561Y-140338207D01*
X63568990Y-140766779D02*
X63568990Y-141100112D01*
X63045180Y-141242969D02*
X63045180Y-140766779D01*
X63045180Y-140766779D02*
X64045180Y-140766779D01*
X64045180Y-140766779D02*
X64045180Y-141242969D01*
X63045180Y-142242969D02*
X63521371Y-141909636D01*
X63045180Y-141671541D02*
X64045180Y-141671541D01*
X64045180Y-141671541D02*
X64045180Y-142052493D01*
X64045180Y-142052493D02*
X63997561Y-142147731D01*
X63997561Y-142147731D02*
X63949942Y-142195350D01*
X63949942Y-142195350D02*
X63854704Y-142242969D01*
X63854704Y-142242969D02*
X63711847Y-142242969D01*
X63711847Y-142242969D02*
X63616609Y-142195350D01*
X63616609Y-142195350D02*
X63568990Y-142147731D01*
X63568990Y-142147731D02*
X63521371Y-142052493D01*
X63521371Y-142052493D02*
X63521371Y-141671541D01*
X62949942Y-142433446D02*
X62949942Y-143195350D01*
X63045180Y-143433446D02*
X64045180Y-143433446D01*
X63045180Y-144004874D02*
X63616609Y-143576303D01*
X64045180Y-144004874D02*
X63473752Y-143433446D01*
X63092800Y-144814398D02*
X63045180Y-144719160D01*
X63045180Y-144719160D02*
X63045180Y-144528684D01*
X63045180Y-144528684D02*
X63092800Y-144433446D01*
X63092800Y-144433446D02*
X63188038Y-144385827D01*
X63188038Y-144385827D02*
X63568990Y-144385827D01*
X63568990Y-144385827D02*
X63664228Y-144433446D01*
X63664228Y-144433446D02*
X63711847Y-144528684D01*
X63711847Y-144528684D02*
X63711847Y-144719160D01*
X63711847Y-144719160D02*
X63664228Y-144814398D01*
X63664228Y-144814398D02*
X63568990Y-144862017D01*
X63568990Y-144862017D02*
X63473752Y-144862017D01*
X63473752Y-144862017D02*
X63378514Y-144385827D01*
X63711847Y-145195351D02*
X63045180Y-145433446D01*
X63711847Y-145671541D02*
X63045180Y-145433446D01*
X63045180Y-145433446D02*
X62807085Y-145338208D01*
X62807085Y-145338208D02*
X62759466Y-145290589D01*
X62759466Y-145290589D02*
X62711847Y-145195351D01*
X83460419Y-139338207D02*
X83412800Y-139290588D01*
X83412800Y-139290588D02*
X83365180Y-139147731D01*
X83365180Y-139147731D02*
X83365180Y-139052493D01*
X83365180Y-139052493D02*
X83412800Y-138909636D01*
X83412800Y-138909636D02*
X83508038Y-138814398D01*
X83508038Y-138814398D02*
X83603276Y-138766779D01*
X83603276Y-138766779D02*
X83793752Y-138719160D01*
X83793752Y-138719160D02*
X83936609Y-138719160D01*
X83936609Y-138719160D02*
X84127085Y-138766779D01*
X84127085Y-138766779D02*
X84222323Y-138814398D01*
X84222323Y-138814398D02*
X84317561Y-138909636D01*
X84317561Y-138909636D02*
X84365180Y-139052493D01*
X84365180Y-139052493D02*
X84365180Y-139147731D01*
X84365180Y-139147731D02*
X84317561Y-139290588D01*
X84317561Y-139290588D02*
X84269942Y-139338207D01*
X83365180Y-139766779D02*
X84365180Y-139766779D01*
X83888990Y-139766779D02*
X83888990Y-140338207D01*
X83365180Y-140338207D02*
X84365180Y-140338207D01*
X83365180Y-140814398D02*
X84365180Y-140814398D01*
X83365180Y-141290588D02*
X84365180Y-141290588D01*
X84365180Y-141290588D02*
X84365180Y-141671540D01*
X84365180Y-141671540D02*
X84317561Y-141766778D01*
X84317561Y-141766778D02*
X84269942Y-141814397D01*
X84269942Y-141814397D02*
X84174704Y-141862016D01*
X84174704Y-141862016D02*
X84031847Y-141862016D01*
X84031847Y-141862016D02*
X83936609Y-141814397D01*
X83936609Y-141814397D02*
X83888990Y-141766778D01*
X83888990Y-141766778D02*
X83841371Y-141671540D01*
X83841371Y-141671540D02*
X83841371Y-141290588D01*
X83269942Y-142052493D02*
X83269942Y-142814397D01*
X83365180Y-143052493D02*
X84365180Y-143052493D01*
X84365180Y-143052493D02*
X84365180Y-143433445D01*
X84365180Y-143433445D02*
X84317561Y-143528683D01*
X84317561Y-143528683D02*
X84269942Y-143576302D01*
X84269942Y-143576302D02*
X84174704Y-143623921D01*
X84174704Y-143623921D02*
X84031847Y-143623921D01*
X84031847Y-143623921D02*
X83936609Y-143576302D01*
X83936609Y-143576302D02*
X83888990Y-143528683D01*
X83888990Y-143528683D02*
X83841371Y-143433445D01*
X83841371Y-143433445D02*
X83841371Y-143052493D01*
X84365180Y-144052493D02*
X83555657Y-144052493D01*
X83555657Y-144052493D02*
X83460419Y-144100112D01*
X83460419Y-144100112D02*
X83412800Y-144147731D01*
X83412800Y-144147731D02*
X83365180Y-144242969D01*
X83365180Y-144242969D02*
X83365180Y-144433445D01*
X83365180Y-144433445D02*
X83412800Y-144528683D01*
X83412800Y-144528683D02*
X83460419Y-144576302D01*
X83460419Y-144576302D02*
X83555657Y-144623921D01*
X83555657Y-144623921D02*
X84365180Y-144623921D01*
X84031847Y-152333220D02*
X83365180Y-152333220D01*
X84412800Y-152095125D02*
X83698514Y-151857030D01*
X83698514Y-151857030D02*
X83698514Y-152476077D01*
X83365180Y-153380839D02*
X83365180Y-152809411D01*
X83365180Y-153095125D02*
X84365180Y-153095125D01*
X84365180Y-153095125D02*
X84222323Y-152999887D01*
X84222323Y-152999887D02*
X84127085Y-152904649D01*
X84127085Y-152904649D02*
X84079466Y-152809411D01*
X66585180Y-151809411D02*
X66585180Y-152428458D01*
X66585180Y-152428458D02*
X66204228Y-152095125D01*
X66204228Y-152095125D02*
X66204228Y-152237982D01*
X66204228Y-152237982D02*
X66156609Y-152333220D01*
X66156609Y-152333220D02*
X66108990Y-152380839D01*
X66108990Y-152380839D02*
X66013752Y-152428458D01*
X66013752Y-152428458D02*
X65775657Y-152428458D01*
X65775657Y-152428458D02*
X65680419Y-152380839D01*
X65680419Y-152380839D02*
X65632800Y-152333220D01*
X65632800Y-152333220D02*
X65585180Y-152237982D01*
X65585180Y-152237982D02*
X65585180Y-151952268D01*
X65585180Y-151952268D02*
X65632800Y-151857030D01*
X65632800Y-151857030D02*
X65680419Y-151809411D01*
X66251847Y-153285601D02*
X65585180Y-153285601D01*
X66632800Y-153047506D02*
X65918514Y-152809411D01*
X65918514Y-152809411D02*
X65918514Y-153428458D01*
X58631847Y-152333220D02*
X57965180Y-152333220D01*
X59012800Y-152095125D02*
X58298514Y-151857030D01*
X58298514Y-151857030D02*
X58298514Y-152476077D01*
X58631847Y-153285601D02*
X57965180Y-153285601D01*
X59012800Y-153047506D02*
X58298514Y-152809411D01*
X58298514Y-152809411D02*
X58298514Y-153428458D01*
X51345180Y-138623922D02*
X50345180Y-138957255D01*
X50345180Y-138957255D02*
X51345180Y-139290588D01*
X50345180Y-139623922D02*
X51345180Y-139623922D01*
X51345180Y-139623922D02*
X51345180Y-139862017D01*
X51345180Y-139862017D02*
X51297561Y-140004874D01*
X51297561Y-140004874D02*
X51202323Y-140100112D01*
X51202323Y-140100112D02*
X51107085Y-140147731D01*
X51107085Y-140147731D02*
X50916609Y-140195350D01*
X50916609Y-140195350D02*
X50773752Y-140195350D01*
X50773752Y-140195350D02*
X50583276Y-140147731D01*
X50583276Y-140147731D02*
X50488038Y-140100112D01*
X50488038Y-140100112D02*
X50392800Y-140004874D01*
X50392800Y-140004874D02*
X50345180Y-139862017D01*
X50345180Y-139862017D02*
X50345180Y-139623922D01*
X50345180Y-140623922D02*
X51345180Y-140623922D01*
X51345180Y-140623922D02*
X51345180Y-140862017D01*
X51345180Y-140862017D02*
X51297561Y-141004874D01*
X51297561Y-141004874D02*
X51202323Y-141100112D01*
X51202323Y-141100112D02*
X51107085Y-141147731D01*
X51107085Y-141147731D02*
X50916609Y-141195350D01*
X50916609Y-141195350D02*
X50773752Y-141195350D01*
X50773752Y-141195350D02*
X50583276Y-141147731D01*
X50583276Y-141147731D02*
X50488038Y-141100112D01*
X50488038Y-141100112D02*
X50392800Y-141004874D01*
X50392800Y-141004874D02*
X50345180Y-140862017D01*
X50345180Y-140862017D02*
X50345180Y-140623922D01*
X50249942Y-141385827D02*
X50249942Y-142147731D01*
X51345180Y-142862017D02*
X51345180Y-142385827D01*
X51345180Y-142385827D02*
X50868990Y-142338208D01*
X50868990Y-142338208D02*
X50916609Y-142385827D01*
X50916609Y-142385827D02*
X50964228Y-142481065D01*
X50964228Y-142481065D02*
X50964228Y-142719160D01*
X50964228Y-142719160D02*
X50916609Y-142814398D01*
X50916609Y-142814398D02*
X50868990Y-142862017D01*
X50868990Y-142862017D02*
X50773752Y-142909636D01*
X50773752Y-142909636D02*
X50535657Y-142909636D01*
X50535657Y-142909636D02*
X50440419Y-142862017D01*
X50440419Y-142862017D02*
X50392800Y-142814398D01*
X50392800Y-142814398D02*
X50345180Y-142719160D01*
X50345180Y-142719160D02*
X50345180Y-142481065D01*
X50345180Y-142481065D02*
X50392800Y-142385827D01*
X50392800Y-142385827D02*
X50440419Y-142338208D01*
X51345180Y-143195351D02*
X50345180Y-143528684D01*
X50345180Y-143528684D02*
X51345180Y-143862017D01*
X78285180Y-139290588D02*
X78285180Y-138719160D01*
X78285180Y-139004874D02*
X79285180Y-139004874D01*
X79285180Y-139004874D02*
X79142323Y-138909636D01*
X79142323Y-138909636D02*
X79047085Y-138814398D01*
X79047085Y-138814398D02*
X78999466Y-138719160D01*
X79285180Y-139623922D02*
X79285180Y-140290588D01*
X79285180Y-140290588D02*
X78285180Y-139862017D01*
X88445180Y-139290588D02*
X88445180Y-138719160D01*
X88445180Y-139004874D02*
X89445180Y-139004874D01*
X89445180Y-139004874D02*
X89302323Y-138909636D01*
X89302323Y-138909636D02*
X89207085Y-138814398D01*
X89207085Y-138814398D02*
X89159466Y-138719160D01*
X89445180Y-140195350D02*
X89445180Y-139719160D01*
X89445180Y-139719160D02*
X88968990Y-139671541D01*
X88968990Y-139671541D02*
X89016609Y-139719160D01*
X89016609Y-139719160D02*
X89064228Y-139814398D01*
X89064228Y-139814398D02*
X89064228Y-140052493D01*
X89064228Y-140052493D02*
X89016609Y-140147731D01*
X89016609Y-140147731D02*
X88968990Y-140195350D01*
X88968990Y-140195350D02*
X88873752Y-140242969D01*
X88873752Y-140242969D02*
X88635657Y-140242969D01*
X88635657Y-140242969D02*
X88540419Y-140195350D01*
X88540419Y-140195350D02*
X88492800Y-140147731D01*
X88492800Y-140147731D02*
X88445180Y-140052493D01*
X88445180Y-140052493D02*
X88445180Y-139814398D01*
X88445180Y-139814398D02*
X88492800Y-139719160D01*
X88492800Y-139719160D02*
X88540419Y-139671541D01*
X80825180Y-139290588D02*
X80825180Y-138719160D01*
X80825180Y-139004874D02*
X81825180Y-139004874D01*
X81825180Y-139004874D02*
X81682323Y-138909636D01*
X81682323Y-138909636D02*
X81587085Y-138814398D01*
X81587085Y-138814398D02*
X81539466Y-138719160D01*
X81491847Y-140147731D02*
X80825180Y-140147731D01*
X81872800Y-139909636D02*
X81158514Y-139671541D01*
X81158514Y-139671541D02*
X81158514Y-140290588D01*
X97065180Y-139242969D02*
X97065180Y-138766779D01*
X97065180Y-138766779D02*
X96588990Y-138719160D01*
X96588990Y-138719160D02*
X96636609Y-138766779D01*
X96636609Y-138766779D02*
X96684228Y-138862017D01*
X96684228Y-138862017D02*
X96684228Y-139100112D01*
X96684228Y-139100112D02*
X96636609Y-139195350D01*
X96636609Y-139195350D02*
X96588990Y-139242969D01*
X96588990Y-139242969D02*
X96493752Y-139290588D01*
X96493752Y-139290588D02*
X96255657Y-139290588D01*
X96255657Y-139290588D02*
X96160419Y-139242969D01*
X96160419Y-139242969D02*
X96112800Y-139195350D01*
X96112800Y-139195350D02*
X96065180Y-139100112D01*
X96065180Y-139100112D02*
X96065180Y-138862017D01*
X96065180Y-138862017D02*
X96112800Y-138766779D01*
X96112800Y-138766779D02*
X96160419Y-138719160D01*
X91985180Y-138671541D02*
X91985180Y-139338207D01*
X91985180Y-139338207D02*
X90985180Y-138909636D01*
X94525180Y-139195350D02*
X94525180Y-139004874D01*
X94525180Y-139004874D02*
X94477561Y-138909636D01*
X94477561Y-138909636D02*
X94429942Y-138862017D01*
X94429942Y-138862017D02*
X94287085Y-138766779D01*
X94287085Y-138766779D02*
X94096609Y-138719160D01*
X94096609Y-138719160D02*
X93715657Y-138719160D01*
X93715657Y-138719160D02*
X93620419Y-138766779D01*
X93620419Y-138766779D02*
X93572800Y-138814398D01*
X93572800Y-138814398D02*
X93525180Y-138909636D01*
X93525180Y-138909636D02*
X93525180Y-139100112D01*
X93525180Y-139100112D02*
X93572800Y-139195350D01*
X93572800Y-139195350D02*
X93620419Y-139242969D01*
X93620419Y-139242969D02*
X93715657Y-139290588D01*
X93715657Y-139290588D02*
X93953752Y-139290588D01*
X93953752Y-139290588D02*
X94048990Y-139242969D01*
X94048990Y-139242969D02*
X94096609Y-139195350D01*
X94096609Y-139195350D02*
X94144228Y-139100112D01*
X94144228Y-139100112D02*
X94144228Y-138909636D01*
X94144228Y-138909636D02*
X94096609Y-138814398D01*
X94096609Y-138814398D02*
X94048990Y-138766779D01*
X94048990Y-138766779D02*
X93953752Y-138719160D01*
X58631847Y-139195350D02*
X57965180Y-139195350D01*
X59012800Y-138957255D02*
X58298514Y-138719160D01*
X58298514Y-138719160D02*
X58298514Y-139338207D01*
X58965180Y-139623922D02*
X58965180Y-140290588D01*
X58965180Y-140290588D02*
X57965180Y-139862017D01*
X85905180Y-139290588D02*
X85905180Y-138719160D01*
X85905180Y-139004874D02*
X86905180Y-139004874D01*
X86905180Y-139004874D02*
X86762323Y-138909636D01*
X86762323Y-138909636D02*
X86667085Y-138814398D01*
X86667085Y-138814398D02*
X86619466Y-138719160D01*
X86905180Y-140147731D02*
X86905180Y-139957255D01*
X86905180Y-139957255D02*
X86857561Y-139862017D01*
X86857561Y-139862017D02*
X86809942Y-139814398D01*
X86809942Y-139814398D02*
X86667085Y-139719160D01*
X86667085Y-139719160D02*
X86476609Y-139671541D01*
X86476609Y-139671541D02*
X86095657Y-139671541D01*
X86095657Y-139671541D02*
X86000419Y-139719160D01*
X86000419Y-139719160D02*
X85952800Y-139766779D01*
X85952800Y-139766779D02*
X85905180Y-139862017D01*
X85905180Y-139862017D02*
X85905180Y-140052493D01*
X85905180Y-140052493D02*
X85952800Y-140147731D01*
X85952800Y-140147731D02*
X86000419Y-140195350D01*
X86000419Y-140195350D02*
X86095657Y-140242969D01*
X86095657Y-140242969D02*
X86333752Y-140242969D01*
X86333752Y-140242969D02*
X86428990Y-140195350D01*
X86428990Y-140195350D02*
X86476609Y-140147731D01*
X86476609Y-140147731D02*
X86524228Y-140052493D01*
X86524228Y-140052493D02*
X86524228Y-139862017D01*
X86524228Y-139862017D02*
X86476609Y-139766779D01*
X86476609Y-139766779D02*
X86428990Y-139719160D01*
X86428990Y-139719160D02*
X86333752Y-139671541D01*
X99605180Y-152761792D02*
X99605180Y-153380839D01*
X99605180Y-153380839D02*
X99224228Y-153047506D01*
X99224228Y-153047506D02*
X99224228Y-153190363D01*
X99224228Y-153190363D02*
X99176609Y-153285601D01*
X99176609Y-153285601D02*
X99128990Y-153333220D01*
X99128990Y-153333220D02*
X99033752Y-153380839D01*
X99033752Y-153380839D02*
X98795657Y-153380839D01*
X98795657Y-153380839D02*
X98700419Y-153333220D01*
X98700419Y-153333220D02*
X98652800Y-153285601D01*
X98652800Y-153285601D02*
X98605180Y-153190363D01*
X98605180Y-153190363D02*
X98605180Y-152904649D01*
X98605180Y-152904649D02*
X98652800Y-152809411D01*
X98652800Y-152809411D02*
X98700419Y-152761792D01*
X114659580Y-139258684D02*
X114707200Y-139306303D01*
X114707200Y-139306303D02*
X114754819Y-139449160D01*
X114754819Y-139449160D02*
X114754819Y-139544398D01*
X114754819Y-139544398D02*
X114707200Y-139687255D01*
X114707200Y-139687255D02*
X114611961Y-139782493D01*
X114611961Y-139782493D02*
X114516723Y-139830112D01*
X114516723Y-139830112D02*
X114326247Y-139877731D01*
X114326247Y-139877731D02*
X114183390Y-139877731D01*
X114183390Y-139877731D02*
X113992914Y-139830112D01*
X113992914Y-139830112D02*
X113897676Y-139782493D01*
X113897676Y-139782493D02*
X113802438Y-139687255D01*
X113802438Y-139687255D02*
X113754819Y-139544398D01*
X113754819Y-139544398D02*
X113754819Y-139449160D01*
X113754819Y-139449160D02*
X113802438Y-139306303D01*
X113802438Y-139306303D02*
X113850057Y-139258684D01*
X114754819Y-138353922D02*
X114754819Y-138830112D01*
X114754819Y-138830112D02*
X113754819Y-138830112D01*
X114754819Y-138020588D02*
X113754819Y-138020588D01*
X114754819Y-137449160D02*
X114183390Y-137877731D01*
X113754819Y-137449160D02*
X114326247Y-138020588D01*
X108722438Y-139544398D02*
X108674819Y-139639636D01*
X108674819Y-139639636D02*
X108674819Y-139782493D01*
X108674819Y-139782493D02*
X108722438Y-139925350D01*
X108722438Y-139925350D02*
X108817676Y-140020588D01*
X108817676Y-140020588D02*
X108912914Y-140068207D01*
X108912914Y-140068207D02*
X109103390Y-140115826D01*
X109103390Y-140115826D02*
X109246247Y-140115826D01*
X109246247Y-140115826D02*
X109436723Y-140068207D01*
X109436723Y-140068207D02*
X109531961Y-140020588D01*
X109531961Y-140020588D02*
X109627200Y-139925350D01*
X109627200Y-139925350D02*
X109674819Y-139782493D01*
X109674819Y-139782493D02*
X109674819Y-139687255D01*
X109674819Y-139687255D02*
X109627200Y-139544398D01*
X109627200Y-139544398D02*
X109579580Y-139496779D01*
X109579580Y-139496779D02*
X109246247Y-139496779D01*
X109246247Y-139496779D02*
X109246247Y-139687255D01*
X109674819Y-139068207D02*
X108674819Y-139068207D01*
X108674819Y-139068207D02*
X109674819Y-138496779D01*
X109674819Y-138496779D02*
X108674819Y-138496779D01*
X109674819Y-138020588D02*
X108674819Y-138020588D01*
X108674819Y-138020588D02*
X108674819Y-137782493D01*
X108674819Y-137782493D02*
X108722438Y-137639636D01*
X108722438Y-137639636D02*
X108817676Y-137544398D01*
X108817676Y-137544398D02*
X108912914Y-137496779D01*
X108912914Y-137496779D02*
X109103390Y-137449160D01*
X109103390Y-137449160D02*
X109246247Y-137449160D01*
X109246247Y-137449160D02*
X109436723Y-137496779D01*
X109436723Y-137496779D02*
X109531961Y-137544398D01*
X109531961Y-137544398D02*
X109627200Y-137639636D01*
X109627200Y-137639636D02*
X109674819Y-137782493D01*
X109674819Y-137782493D02*
X109674819Y-138020588D01*
X121374819Y-139877731D02*
X121374819Y-139258684D01*
X121374819Y-139258684D02*
X121755771Y-139592017D01*
X121755771Y-139592017D02*
X121755771Y-139449160D01*
X121755771Y-139449160D02*
X121803390Y-139353922D01*
X121803390Y-139353922D02*
X121851009Y-139306303D01*
X121851009Y-139306303D02*
X121946247Y-139258684D01*
X121946247Y-139258684D02*
X122184342Y-139258684D01*
X122184342Y-139258684D02*
X122279580Y-139306303D01*
X122279580Y-139306303D02*
X122327200Y-139353922D01*
X122327200Y-139353922D02*
X122374819Y-139449160D01*
X122374819Y-139449160D02*
X122374819Y-139734874D01*
X122374819Y-139734874D02*
X122327200Y-139830112D01*
X122327200Y-139830112D02*
X122279580Y-139877731D01*
X121374819Y-138972969D02*
X122374819Y-138639636D01*
X122374819Y-138639636D02*
X121374819Y-138306303D01*
X121374819Y-138068207D02*
X121374819Y-137449160D01*
X121374819Y-137449160D02*
X121755771Y-137782493D01*
X121755771Y-137782493D02*
X121755771Y-137639636D01*
X121755771Y-137639636D02*
X121803390Y-137544398D01*
X121803390Y-137544398D02*
X121851009Y-137496779D01*
X121851009Y-137496779D02*
X121946247Y-137449160D01*
X121946247Y-137449160D02*
X122184342Y-137449160D01*
X122184342Y-137449160D02*
X122279580Y-137496779D01*
X122279580Y-137496779D02*
X122327200Y-137544398D01*
X122327200Y-137544398D02*
X122374819Y-137639636D01*
X122374819Y-137639636D02*
X122374819Y-137925350D01*
X122374819Y-137925350D02*
X122327200Y-138020588D01*
X122327200Y-138020588D02*
X122279580Y-138068207D01*
X112214819Y-140639635D02*
X111214819Y-140639635D01*
X111214819Y-140639635D02*
X111929104Y-140306302D01*
X111929104Y-140306302D02*
X111214819Y-139972969D01*
X111214819Y-139972969D02*
X112214819Y-139972969D01*
X112214819Y-139496778D02*
X111214819Y-139496778D01*
X112167200Y-139068207D02*
X112214819Y-138925350D01*
X112214819Y-138925350D02*
X112214819Y-138687255D01*
X112214819Y-138687255D02*
X112167200Y-138592017D01*
X112167200Y-138592017D02*
X112119580Y-138544398D01*
X112119580Y-138544398D02*
X112024342Y-138496779D01*
X112024342Y-138496779D02*
X111929104Y-138496779D01*
X111929104Y-138496779D02*
X111833866Y-138544398D01*
X111833866Y-138544398D02*
X111786247Y-138592017D01*
X111786247Y-138592017D02*
X111738628Y-138687255D01*
X111738628Y-138687255D02*
X111691009Y-138877731D01*
X111691009Y-138877731D02*
X111643390Y-138972969D01*
X111643390Y-138972969D02*
X111595771Y-139020588D01*
X111595771Y-139020588D02*
X111500533Y-139068207D01*
X111500533Y-139068207D02*
X111405295Y-139068207D01*
X111405295Y-139068207D02*
X111310057Y-139020588D01*
X111310057Y-139020588D02*
X111262438Y-138972969D01*
X111262438Y-138972969D02*
X111214819Y-138877731D01*
X111214819Y-138877731D02*
X111214819Y-138639636D01*
X111214819Y-138639636D02*
X111262438Y-138496779D01*
X111214819Y-137877731D02*
X111214819Y-137687255D01*
X111214819Y-137687255D02*
X111262438Y-137592017D01*
X111262438Y-137592017D02*
X111357676Y-137496779D01*
X111357676Y-137496779D02*
X111548152Y-137449160D01*
X111548152Y-137449160D02*
X111881485Y-137449160D01*
X111881485Y-137449160D02*
X112071961Y-137496779D01*
X112071961Y-137496779D02*
X112167200Y-137592017D01*
X112167200Y-137592017D02*
X112214819Y-137687255D01*
X112214819Y-137687255D02*
X112214819Y-137877731D01*
X112214819Y-137877731D02*
X112167200Y-137972969D01*
X112167200Y-137972969D02*
X112071961Y-138068207D01*
X112071961Y-138068207D02*
X111881485Y-138115826D01*
X111881485Y-138115826D02*
X111548152Y-138115826D01*
X111548152Y-138115826D02*
X111357676Y-138068207D01*
X111357676Y-138068207D02*
X111262438Y-137972969D01*
X111262438Y-137972969D02*
X111214819Y-137877731D01*
X117294819Y-155873220D02*
X116294819Y-155873220D01*
X116294819Y-155873220D02*
X117009104Y-155539887D01*
X117009104Y-155539887D02*
X116294819Y-155206554D01*
X116294819Y-155206554D02*
X117294819Y-155206554D01*
X117294819Y-154730363D02*
X116628152Y-154730363D01*
X116294819Y-154730363D02*
X116342438Y-154777982D01*
X116342438Y-154777982D02*
X116390057Y-154730363D01*
X116390057Y-154730363D02*
X116342438Y-154682744D01*
X116342438Y-154682744D02*
X116294819Y-154730363D01*
X116294819Y-154730363D02*
X116390057Y-154730363D01*
X117247200Y-153825602D02*
X117294819Y-153920840D01*
X117294819Y-153920840D02*
X117294819Y-154111316D01*
X117294819Y-154111316D02*
X117247200Y-154206554D01*
X117247200Y-154206554D02*
X117199580Y-154254173D01*
X117199580Y-154254173D02*
X117104342Y-154301792D01*
X117104342Y-154301792D02*
X116818628Y-154301792D01*
X116818628Y-154301792D02*
X116723390Y-154254173D01*
X116723390Y-154254173D02*
X116675771Y-154206554D01*
X116675771Y-154206554D02*
X116628152Y-154111316D01*
X116628152Y-154111316D02*
X116628152Y-153920840D01*
X116628152Y-153920840D02*
X116675771Y-153825602D01*
X117294819Y-153397030D02*
X116628152Y-153397030D01*
X116818628Y-153397030D02*
X116723390Y-153349411D01*
X116723390Y-153349411D02*
X116675771Y-153301792D01*
X116675771Y-153301792D02*
X116628152Y-153206554D01*
X116628152Y-153206554D02*
X116628152Y-153111316D01*
X117294819Y-152635125D02*
X117247200Y-152730363D01*
X117247200Y-152730363D02*
X117199580Y-152777982D01*
X117199580Y-152777982D02*
X117104342Y-152825601D01*
X117104342Y-152825601D02*
X116818628Y-152825601D01*
X116818628Y-152825601D02*
X116723390Y-152777982D01*
X116723390Y-152777982D02*
X116675771Y-152730363D01*
X116675771Y-152730363D02*
X116628152Y-152635125D01*
X116628152Y-152635125D02*
X116628152Y-152492268D01*
X116628152Y-152492268D02*
X116675771Y-152397030D01*
X116675771Y-152397030D02*
X116723390Y-152349411D01*
X116723390Y-152349411D02*
X116818628Y-152301792D01*
X116818628Y-152301792D02*
X117104342Y-152301792D01*
X117104342Y-152301792D02*
X117199580Y-152349411D01*
X117199580Y-152349411D02*
X117247200Y-152397030D01*
X117247200Y-152397030D02*
X117294819Y-152492268D01*
X117294819Y-152492268D02*
X117294819Y-152635125D01*
X117390057Y-152111316D02*
X117390057Y-151349411D01*
X117247200Y-151158934D02*
X117294819Y-151016077D01*
X117294819Y-151016077D02*
X117294819Y-150777982D01*
X117294819Y-150777982D02*
X117247200Y-150682744D01*
X117247200Y-150682744D02*
X117199580Y-150635125D01*
X117199580Y-150635125D02*
X117104342Y-150587506D01*
X117104342Y-150587506D02*
X117009104Y-150587506D01*
X117009104Y-150587506D02*
X116913866Y-150635125D01*
X116913866Y-150635125D02*
X116866247Y-150682744D01*
X116866247Y-150682744D02*
X116818628Y-150777982D01*
X116818628Y-150777982D02*
X116771009Y-150968458D01*
X116771009Y-150968458D02*
X116723390Y-151063696D01*
X116723390Y-151063696D02*
X116675771Y-151111315D01*
X116675771Y-151111315D02*
X116580533Y-151158934D01*
X116580533Y-151158934D02*
X116485295Y-151158934D01*
X116485295Y-151158934D02*
X116390057Y-151111315D01*
X116390057Y-151111315D02*
X116342438Y-151063696D01*
X116342438Y-151063696D02*
X116294819Y-150968458D01*
X116294819Y-150968458D02*
X116294819Y-150730363D01*
X116294819Y-150730363D02*
X116342438Y-150587506D01*
X117294819Y-150158934D02*
X116294819Y-150158934D01*
X116294819Y-150158934D02*
X116294819Y-149920839D01*
X116294819Y-149920839D02*
X116342438Y-149777982D01*
X116342438Y-149777982D02*
X116437676Y-149682744D01*
X116437676Y-149682744D02*
X116532914Y-149635125D01*
X116532914Y-149635125D02*
X116723390Y-149587506D01*
X116723390Y-149587506D02*
X116866247Y-149587506D01*
X116866247Y-149587506D02*
X117056723Y-149635125D01*
X117056723Y-149635125D02*
X117151961Y-149682744D01*
X117151961Y-149682744D02*
X117247200Y-149777982D01*
X117247200Y-149777982D02*
X117294819Y-149920839D01*
X117294819Y-149920839D02*
X117294819Y-150158934D01*
X117199580Y-148587506D02*
X117247200Y-148635125D01*
X117247200Y-148635125D02*
X117294819Y-148777982D01*
X117294819Y-148777982D02*
X117294819Y-148873220D01*
X117294819Y-148873220D02*
X117247200Y-149016077D01*
X117247200Y-149016077D02*
X117151961Y-149111315D01*
X117151961Y-149111315D02*
X117056723Y-149158934D01*
X117056723Y-149158934D02*
X116866247Y-149206553D01*
X116866247Y-149206553D02*
X116723390Y-149206553D01*
X116723390Y-149206553D02*
X116532914Y-149158934D01*
X116532914Y-149158934D02*
X116437676Y-149111315D01*
X116437676Y-149111315D02*
X116342438Y-149016077D01*
X116342438Y-149016077D02*
X116294819Y-148873220D01*
X116294819Y-148873220D02*
X116294819Y-148777982D01*
X116294819Y-148777982D02*
X116342438Y-148635125D01*
X116342438Y-148635125D02*
X116390057Y-148587506D01*
X117009104Y-148206553D02*
X117009104Y-147730363D01*
X117294819Y-148301791D02*
X116294819Y-147968458D01*
X116294819Y-147968458D02*
X117294819Y-147635125D01*
X117294819Y-146730363D02*
X116818628Y-147063696D01*
X117294819Y-147301791D02*
X116294819Y-147301791D01*
X116294819Y-147301791D02*
X116294819Y-146920839D01*
X116294819Y-146920839D02*
X116342438Y-146825601D01*
X116342438Y-146825601D02*
X116390057Y-146777982D01*
X116390057Y-146777982D02*
X116485295Y-146730363D01*
X116485295Y-146730363D02*
X116628152Y-146730363D01*
X116628152Y-146730363D02*
X116723390Y-146777982D01*
X116723390Y-146777982D02*
X116771009Y-146825601D01*
X116771009Y-146825601D02*
X116818628Y-146920839D01*
X116818628Y-146920839D02*
X116818628Y-147301791D01*
X117294819Y-146301791D02*
X116294819Y-146301791D01*
X116294819Y-146301791D02*
X116294819Y-146063696D01*
X116294819Y-146063696D02*
X116342438Y-145920839D01*
X116342438Y-145920839D02*
X116437676Y-145825601D01*
X116437676Y-145825601D02*
X116532914Y-145777982D01*
X116532914Y-145777982D02*
X116723390Y-145730363D01*
X116723390Y-145730363D02*
X116866247Y-145730363D01*
X116866247Y-145730363D02*
X117056723Y-145777982D01*
X117056723Y-145777982D02*
X117151961Y-145825601D01*
X117151961Y-145825601D02*
X117247200Y-145920839D01*
X117247200Y-145920839D02*
X117294819Y-146063696D01*
X117294819Y-146063696D02*
X117294819Y-146301791D01*
X117390057Y-145539887D02*
X117390057Y-144777982D01*
X116628152Y-144635124D02*
X117294819Y-144397029D01*
X117294819Y-144397029D02*
X116628152Y-144158934D01*
X116390057Y-143825600D02*
X116342438Y-143777981D01*
X116342438Y-143777981D02*
X116294819Y-143682743D01*
X116294819Y-143682743D02*
X116294819Y-143444648D01*
X116294819Y-143444648D02*
X116342438Y-143349410D01*
X116342438Y-143349410D02*
X116390057Y-143301791D01*
X116390057Y-143301791D02*
X116485295Y-143254172D01*
X116485295Y-143254172D02*
X116580533Y-143254172D01*
X116580533Y-143254172D02*
X116723390Y-143301791D01*
X116723390Y-143301791D02*
X117294819Y-143873219D01*
X117294819Y-143873219D02*
X117294819Y-143254172D01*
X114754819Y-155301792D02*
X114278628Y-155635125D01*
X114754819Y-155873220D02*
X113754819Y-155873220D01*
X113754819Y-155873220D02*
X113754819Y-155492268D01*
X113754819Y-155492268D02*
X113802438Y-155397030D01*
X113802438Y-155397030D02*
X113850057Y-155349411D01*
X113850057Y-155349411D02*
X113945295Y-155301792D01*
X113945295Y-155301792D02*
X114088152Y-155301792D01*
X114088152Y-155301792D02*
X114183390Y-155349411D01*
X114183390Y-155349411D02*
X114231009Y-155397030D01*
X114231009Y-155397030D02*
X114278628Y-155492268D01*
X114278628Y-155492268D02*
X114278628Y-155873220D01*
X114231009Y-154873220D02*
X114231009Y-154539887D01*
X114754819Y-154397030D02*
X114754819Y-154873220D01*
X114754819Y-154873220D02*
X113754819Y-154873220D01*
X113754819Y-154873220D02*
X113754819Y-154397030D01*
X114231009Y-153635125D02*
X114231009Y-153968458D01*
X114754819Y-153968458D02*
X113754819Y-153968458D01*
X113754819Y-153968458D02*
X113754819Y-153492268D01*
X113754819Y-152968458D02*
X113992914Y-152968458D01*
X113897676Y-153206553D02*
X113992914Y-152968458D01*
X113992914Y-152968458D02*
X113897676Y-152730363D01*
X114183390Y-153111315D02*
X113992914Y-152968458D01*
X113992914Y-152968458D02*
X114183390Y-152825601D01*
X113754819Y-152206553D02*
X113992914Y-152206553D01*
X113897676Y-152444648D02*
X113992914Y-152206553D01*
X113992914Y-152206553D02*
X113897676Y-151968458D01*
X114183390Y-152349410D02*
X113992914Y-152206553D01*
X113992914Y-152206553D02*
X114183390Y-152063696D01*
X117294819Y-140639635D02*
X116294819Y-140639635D01*
X116294819Y-140639635D02*
X117009104Y-140306302D01*
X117009104Y-140306302D02*
X116294819Y-139972969D01*
X116294819Y-139972969D02*
X117294819Y-139972969D01*
X116294819Y-139306302D02*
X116294819Y-139115826D01*
X116294819Y-139115826D02*
X116342438Y-139020588D01*
X116342438Y-139020588D02*
X116437676Y-138925350D01*
X116437676Y-138925350D02*
X116628152Y-138877731D01*
X116628152Y-138877731D02*
X116961485Y-138877731D01*
X116961485Y-138877731D02*
X117151961Y-138925350D01*
X117151961Y-138925350D02*
X117247200Y-139020588D01*
X117247200Y-139020588D02*
X117294819Y-139115826D01*
X117294819Y-139115826D02*
X117294819Y-139306302D01*
X117294819Y-139306302D02*
X117247200Y-139401540D01*
X117247200Y-139401540D02*
X117151961Y-139496778D01*
X117151961Y-139496778D02*
X116961485Y-139544397D01*
X116961485Y-139544397D02*
X116628152Y-139544397D01*
X116628152Y-139544397D02*
X116437676Y-139496778D01*
X116437676Y-139496778D02*
X116342438Y-139401540D01*
X116342438Y-139401540D02*
X116294819Y-139306302D01*
X117247200Y-138496778D02*
X117294819Y-138353921D01*
X117294819Y-138353921D02*
X117294819Y-138115826D01*
X117294819Y-138115826D02*
X117247200Y-138020588D01*
X117247200Y-138020588D02*
X117199580Y-137972969D01*
X117199580Y-137972969D02*
X117104342Y-137925350D01*
X117104342Y-137925350D02*
X117009104Y-137925350D01*
X117009104Y-137925350D02*
X116913866Y-137972969D01*
X116913866Y-137972969D02*
X116866247Y-138020588D01*
X116866247Y-138020588D02*
X116818628Y-138115826D01*
X116818628Y-138115826D02*
X116771009Y-138306302D01*
X116771009Y-138306302D02*
X116723390Y-138401540D01*
X116723390Y-138401540D02*
X116675771Y-138449159D01*
X116675771Y-138449159D02*
X116580533Y-138496778D01*
X116580533Y-138496778D02*
X116485295Y-138496778D01*
X116485295Y-138496778D02*
X116390057Y-138449159D01*
X116390057Y-138449159D02*
X116342438Y-138401540D01*
X116342438Y-138401540D02*
X116294819Y-138306302D01*
X116294819Y-138306302D02*
X116294819Y-138068207D01*
X116294819Y-138068207D02*
X116342438Y-137925350D01*
X117294819Y-137496778D02*
X116294819Y-137496778D01*
X119739580Y-138401541D02*
X119787200Y-138449160D01*
X119787200Y-138449160D02*
X119834819Y-138592017D01*
X119834819Y-138592017D02*
X119834819Y-138687255D01*
X119834819Y-138687255D02*
X119787200Y-138830112D01*
X119787200Y-138830112D02*
X119691961Y-138925350D01*
X119691961Y-138925350D02*
X119596723Y-138972969D01*
X119596723Y-138972969D02*
X119406247Y-139020588D01*
X119406247Y-139020588D02*
X119263390Y-139020588D01*
X119263390Y-139020588D02*
X119072914Y-138972969D01*
X119072914Y-138972969D02*
X118977676Y-138925350D01*
X118977676Y-138925350D02*
X118882438Y-138830112D01*
X118882438Y-138830112D02*
X118834819Y-138687255D01*
X118834819Y-138687255D02*
X118834819Y-138592017D01*
X118834819Y-138592017D02*
X118882438Y-138449160D01*
X118882438Y-138449160D02*
X118930057Y-138401541D01*
X119787200Y-138020588D02*
X119834819Y-137877731D01*
X119834819Y-137877731D02*
X119834819Y-137639636D01*
X119834819Y-137639636D02*
X119787200Y-137544398D01*
X119787200Y-137544398D02*
X119739580Y-137496779D01*
X119739580Y-137496779D02*
X119644342Y-137449160D01*
X119644342Y-137449160D02*
X119549104Y-137449160D01*
X119549104Y-137449160D02*
X119453866Y-137496779D01*
X119453866Y-137496779D02*
X119406247Y-137544398D01*
X119406247Y-137544398D02*
X119358628Y-137639636D01*
X119358628Y-137639636D02*
X119311009Y-137830112D01*
X119311009Y-137830112D02*
X119263390Y-137925350D01*
X119263390Y-137925350D02*
X119215771Y-137972969D01*
X119215771Y-137972969D02*
X119120533Y-138020588D01*
X119120533Y-138020588D02*
X119025295Y-138020588D01*
X119025295Y-138020588D02*
X118930057Y-137972969D01*
X118930057Y-137972969D02*
X118882438Y-137925350D01*
X118882438Y-137925350D02*
X118834819Y-137830112D01*
X118834819Y-137830112D02*
X118834819Y-137592017D01*
X118834819Y-137592017D02*
X118882438Y-137449160D01*
X107404819Y-101031904D02*
X108214342Y-101031904D01*
X108214342Y-101031904D02*
X108309580Y-100984285D01*
X108309580Y-100984285D02*
X108357200Y-100936666D01*
X108357200Y-100936666D02*
X108404819Y-100841428D01*
X108404819Y-100841428D02*
X108404819Y-100650952D01*
X108404819Y-100650952D02*
X108357200Y-100555714D01*
X108357200Y-100555714D02*
X108309580Y-100508095D01*
X108309580Y-100508095D02*
X108214342Y-100460476D01*
X108214342Y-100460476D02*
X107404819Y-100460476D01*
X107404819Y-100079523D02*
X107404819Y-99412857D01*
X107404819Y-99412857D02*
X108404819Y-99841428D01*
X117564819Y-101031904D02*
X118374342Y-101031904D01*
X118374342Y-101031904D02*
X118469580Y-100984285D01*
X118469580Y-100984285D02*
X118517200Y-100936666D01*
X118517200Y-100936666D02*
X118564819Y-100841428D01*
X118564819Y-100841428D02*
X118564819Y-100650952D01*
X118564819Y-100650952D02*
X118517200Y-100555714D01*
X118517200Y-100555714D02*
X118469580Y-100508095D01*
X118469580Y-100508095D02*
X118374342Y-100460476D01*
X118374342Y-100460476D02*
X117564819Y-100460476D01*
X117993390Y-99841428D02*
X117945771Y-99936666D01*
X117945771Y-99936666D02*
X117898152Y-99984285D01*
X117898152Y-99984285D02*
X117802914Y-100031904D01*
X117802914Y-100031904D02*
X117755295Y-100031904D01*
X117755295Y-100031904D02*
X117660057Y-99984285D01*
X117660057Y-99984285D02*
X117612438Y-99936666D01*
X117612438Y-99936666D02*
X117564819Y-99841428D01*
X117564819Y-99841428D02*
X117564819Y-99650952D01*
X117564819Y-99650952D02*
X117612438Y-99555714D01*
X117612438Y-99555714D02*
X117660057Y-99508095D01*
X117660057Y-99508095D02*
X117755295Y-99460476D01*
X117755295Y-99460476D02*
X117802914Y-99460476D01*
X117802914Y-99460476D02*
X117898152Y-99508095D01*
X117898152Y-99508095D02*
X117945771Y-99555714D01*
X117945771Y-99555714D02*
X117993390Y-99650952D01*
X117993390Y-99650952D02*
X117993390Y-99841428D01*
X117993390Y-99841428D02*
X118041009Y-99936666D01*
X118041009Y-99936666D02*
X118088628Y-99984285D01*
X118088628Y-99984285D02*
X118183866Y-100031904D01*
X118183866Y-100031904D02*
X118374342Y-100031904D01*
X118374342Y-100031904D02*
X118469580Y-99984285D01*
X118469580Y-99984285D02*
X118517200Y-99936666D01*
X118517200Y-99936666D02*
X118564819Y-99841428D01*
X118564819Y-99841428D02*
X118564819Y-99650952D01*
X118564819Y-99650952D02*
X118517200Y-99555714D01*
X118517200Y-99555714D02*
X118469580Y-99508095D01*
X118469580Y-99508095D02*
X118374342Y-99460476D01*
X118374342Y-99460476D02*
X118183866Y-99460476D01*
X118183866Y-99460476D02*
X118088628Y-99508095D01*
X118088628Y-99508095D02*
X118041009Y-99555714D01*
X118041009Y-99555714D02*
X117993390Y-99650952D01*
X51411000Y-31252533D02*
X51611000Y-31319200D01*
X51611000Y-31319200D02*
X51677666Y-31385866D01*
X51677666Y-31385866D02*
X51744333Y-31519200D01*
X51744333Y-31519200D02*
X51744333Y-31719200D01*
X51744333Y-31719200D02*
X51677666Y-31852533D01*
X51677666Y-31852533D02*
X51611000Y-31919200D01*
X51611000Y-31919200D02*
X51477666Y-31985866D01*
X51477666Y-31985866D02*
X50944333Y-31985866D01*
X50944333Y-31985866D02*
X50944333Y-30585866D01*
X50944333Y-30585866D02*
X51411000Y-30585866D01*
X51411000Y-30585866D02*
X51544333Y-30652533D01*
X51544333Y-30652533D02*
X51611000Y-30719200D01*
X51611000Y-30719200D02*
X51677666Y-30852533D01*
X51677666Y-30852533D02*
X51677666Y-30985866D01*
X51677666Y-30985866D02*
X51611000Y-31119200D01*
X51611000Y-31119200D02*
X51544333Y-31185866D01*
X51544333Y-31185866D02*
X51411000Y-31252533D01*
X51411000Y-31252533D02*
X50944333Y-31252533D01*
X52144333Y-30585866D02*
X52944333Y-30585866D01*
X52544333Y-31985866D02*
X52544333Y-30585866D01*
X54144333Y-31985866D02*
X53344333Y-31985866D01*
X53744333Y-31985866D02*
X53744333Y-30585866D01*
X53744333Y-30585866D02*
X53611000Y-30785866D01*
X53611000Y-30785866D02*
X53477667Y-30919200D01*
X53477667Y-30919200D02*
X53344333Y-30985866D01*
X65003333Y-162639104D02*
X65479523Y-162639104D01*
X64908095Y-162924819D02*
X65241428Y-161924819D01*
X65241428Y-161924819D02*
X65574761Y-162924819D01*
X65908095Y-162924819D02*
X65908095Y-161924819D01*
X65908095Y-161924819D02*
X66479523Y-162924819D01*
X66479523Y-162924819D02*
X66479523Y-161924819D01*
X66955714Y-162401009D02*
X67289047Y-162401009D01*
X67431904Y-162924819D02*
X66955714Y-162924819D01*
X66955714Y-162924819D02*
X66955714Y-161924819D01*
X66955714Y-161924819D02*
X67431904Y-161924819D01*
X67860476Y-162924819D02*
X67860476Y-161924819D01*
X67860476Y-161924819D02*
X68193809Y-162639104D01*
X68193809Y-162639104D02*
X68527142Y-161924819D01*
X68527142Y-161924819D02*
X68527142Y-162924819D01*
X69193809Y-161924819D02*
X69384285Y-161924819D01*
X69384285Y-161924819D02*
X69479523Y-161972438D01*
X69479523Y-161972438D02*
X69574761Y-162067676D01*
X69574761Y-162067676D02*
X69622380Y-162258152D01*
X69622380Y-162258152D02*
X69622380Y-162591485D01*
X69622380Y-162591485D02*
X69574761Y-162781961D01*
X69574761Y-162781961D02*
X69479523Y-162877200D01*
X69479523Y-162877200D02*
X69384285Y-162924819D01*
X69384285Y-162924819D02*
X69193809Y-162924819D01*
X69193809Y-162924819D02*
X69098571Y-162877200D01*
X69098571Y-162877200D02*
X69003333Y-162781961D01*
X69003333Y-162781961D02*
X68955714Y-162591485D01*
X68955714Y-162591485D02*
X68955714Y-162258152D01*
X68955714Y-162258152D02*
X69003333Y-162067676D01*
X69003333Y-162067676D02*
X69098571Y-161972438D01*
X69098571Y-161972438D02*
X69193809Y-161924819D01*
X70050952Y-162924819D02*
X70050952Y-161924819D01*
X70050952Y-161924819D02*
X70384285Y-162639104D01*
X70384285Y-162639104D02*
X70717618Y-161924819D01*
X70717618Y-161924819D02*
X70717618Y-162924819D01*
X71193809Y-162401009D02*
X71527142Y-162401009D01*
X71669999Y-162924819D02*
X71193809Y-162924819D01*
X71193809Y-162924819D02*
X71193809Y-161924819D01*
X71193809Y-161924819D02*
X71669999Y-161924819D01*
X71955714Y-161924819D02*
X72527142Y-161924819D01*
X72241428Y-162924819D02*
X72241428Y-161924819D01*
X72860476Y-162401009D02*
X73193809Y-162401009D01*
X73336666Y-162924819D02*
X72860476Y-162924819D01*
X72860476Y-162924819D02*
X72860476Y-161924819D01*
X72860476Y-161924819D02*
X73336666Y-161924819D01*
X74336666Y-162924819D02*
X74003333Y-162448628D01*
X73765238Y-162924819D02*
X73765238Y-161924819D01*
X73765238Y-161924819D02*
X74146190Y-161924819D01*
X74146190Y-161924819D02*
X74241428Y-161972438D01*
X74241428Y-161972438D02*
X74289047Y-162020057D01*
X74289047Y-162020057D02*
X74336666Y-162115295D01*
X74336666Y-162115295D02*
X74336666Y-162258152D01*
X74336666Y-162258152D02*
X74289047Y-162353390D01*
X74289047Y-162353390D02*
X74241428Y-162401009D01*
X74241428Y-162401009D02*
X74146190Y-162448628D01*
X74146190Y-162448628D02*
X73765238Y-162448628D01*
X51120477Y-161834819D02*
X51358572Y-162834819D01*
X51358572Y-162834819D02*
X51549048Y-162120533D01*
X51549048Y-162120533D02*
X51739524Y-162834819D01*
X51739524Y-162834819D02*
X51977620Y-161834819D01*
X52358572Y-162834819D02*
X52358572Y-161834819D01*
X52834762Y-162834819D02*
X52834762Y-161834819D01*
X52834762Y-161834819D02*
X53406190Y-162834819D01*
X53406190Y-162834819D02*
X53406190Y-161834819D01*
X53882381Y-162834819D02*
X53882381Y-161834819D01*
X53882381Y-161834819D02*
X54120476Y-161834819D01*
X54120476Y-161834819D02*
X54263333Y-161882438D01*
X54263333Y-161882438D02*
X54358571Y-161977676D01*
X54358571Y-161977676D02*
X54406190Y-162072914D01*
X54406190Y-162072914D02*
X54453809Y-162263390D01*
X54453809Y-162263390D02*
X54453809Y-162406247D01*
X54453809Y-162406247D02*
X54406190Y-162596723D01*
X54406190Y-162596723D02*
X54358571Y-162691961D01*
X54358571Y-162691961D02*
X54263333Y-162787200D01*
X54263333Y-162787200D02*
X54120476Y-162834819D01*
X54120476Y-162834819D02*
X53882381Y-162834819D01*
X54644286Y-162930057D02*
X55406190Y-162930057D01*
X55644286Y-162834819D02*
X55644286Y-161834819D01*
X55644286Y-161834819D02*
X55882381Y-161834819D01*
X55882381Y-161834819D02*
X56025238Y-161882438D01*
X56025238Y-161882438D02*
X56120476Y-161977676D01*
X56120476Y-161977676D02*
X56168095Y-162072914D01*
X56168095Y-162072914D02*
X56215714Y-162263390D01*
X56215714Y-162263390D02*
X56215714Y-162406247D01*
X56215714Y-162406247D02*
X56168095Y-162596723D01*
X56168095Y-162596723D02*
X56120476Y-162691961D01*
X56120476Y-162691961D02*
X56025238Y-162787200D01*
X56025238Y-162787200D02*
X55882381Y-162834819D01*
X55882381Y-162834819D02*
X55644286Y-162834819D01*
X56644286Y-162834819D02*
X56644286Y-161834819D01*
X57691904Y-162834819D02*
X57358571Y-162358628D01*
X57120476Y-162834819D02*
X57120476Y-161834819D01*
X57120476Y-161834819D02*
X57501428Y-161834819D01*
X57501428Y-161834819D02*
X57596666Y-161882438D01*
X57596666Y-161882438D02*
X57644285Y-161930057D01*
X57644285Y-161930057D02*
X57691904Y-162025295D01*
X57691904Y-162025295D02*
X57691904Y-162168152D01*
X57691904Y-162168152D02*
X57644285Y-162263390D01*
X57644285Y-162263390D02*
X57596666Y-162311009D01*
X57596666Y-162311009D02*
X57501428Y-162358628D01*
X57501428Y-162358628D02*
X57120476Y-162358628D01*
X83684286Y-162877200D02*
X83827143Y-162924819D01*
X83827143Y-162924819D02*
X84065238Y-162924819D01*
X84065238Y-162924819D02*
X84160476Y-162877200D01*
X84160476Y-162877200D02*
X84208095Y-162829580D01*
X84208095Y-162829580D02*
X84255714Y-162734342D01*
X84255714Y-162734342D02*
X84255714Y-162639104D01*
X84255714Y-162639104D02*
X84208095Y-162543866D01*
X84208095Y-162543866D02*
X84160476Y-162496247D01*
X84160476Y-162496247D02*
X84065238Y-162448628D01*
X84065238Y-162448628D02*
X83874762Y-162401009D01*
X83874762Y-162401009D02*
X83779524Y-162353390D01*
X83779524Y-162353390D02*
X83731905Y-162305771D01*
X83731905Y-162305771D02*
X83684286Y-162210533D01*
X83684286Y-162210533D02*
X83684286Y-162115295D01*
X83684286Y-162115295D02*
X83731905Y-162020057D01*
X83731905Y-162020057D02*
X83779524Y-161972438D01*
X83779524Y-161972438D02*
X83874762Y-161924819D01*
X83874762Y-161924819D02*
X84112857Y-161924819D01*
X84112857Y-161924819D02*
X84255714Y-161972438D01*
X84874762Y-161924819D02*
X85065238Y-161924819D01*
X85065238Y-161924819D02*
X85160476Y-161972438D01*
X85160476Y-161972438D02*
X85255714Y-162067676D01*
X85255714Y-162067676D02*
X85303333Y-162258152D01*
X85303333Y-162258152D02*
X85303333Y-162591485D01*
X85303333Y-162591485D02*
X85255714Y-162781961D01*
X85255714Y-162781961D02*
X85160476Y-162877200D01*
X85160476Y-162877200D02*
X85065238Y-162924819D01*
X85065238Y-162924819D02*
X84874762Y-162924819D01*
X84874762Y-162924819D02*
X84779524Y-162877200D01*
X84779524Y-162877200D02*
X84684286Y-162781961D01*
X84684286Y-162781961D02*
X84636667Y-162591485D01*
X84636667Y-162591485D02*
X84636667Y-162258152D01*
X84636667Y-162258152D02*
X84684286Y-162067676D01*
X84684286Y-162067676D02*
X84779524Y-161972438D01*
X84779524Y-161972438D02*
X84874762Y-161924819D01*
X85684286Y-162020057D02*
X85731905Y-161972438D01*
X85731905Y-161972438D02*
X85827143Y-161924819D01*
X85827143Y-161924819D02*
X86065238Y-161924819D01*
X86065238Y-161924819D02*
X86160476Y-161972438D01*
X86160476Y-161972438D02*
X86208095Y-162020057D01*
X86208095Y-162020057D02*
X86255714Y-162115295D01*
X86255714Y-162115295D02*
X86255714Y-162210533D01*
X86255714Y-162210533D02*
X86208095Y-162353390D01*
X86208095Y-162353390D02*
X85636667Y-162924819D01*
X85636667Y-162924819D02*
X86255714Y-162924819D01*
X65278095Y-98419819D02*
X65278095Y-99229342D01*
X65278095Y-99229342D02*
X65325714Y-99324580D01*
X65325714Y-99324580D02*
X65373333Y-99372200D01*
X65373333Y-99372200D02*
X65468571Y-99419819D01*
X65468571Y-99419819D02*
X65659047Y-99419819D01*
X65659047Y-99419819D02*
X65754285Y-99372200D01*
X65754285Y-99372200D02*
X65801904Y-99324580D01*
X65801904Y-99324580D02*
X65849523Y-99229342D01*
X65849523Y-99229342D02*
X65849523Y-98419819D01*
X66754285Y-98419819D02*
X66563809Y-98419819D01*
X66563809Y-98419819D02*
X66468571Y-98467438D01*
X66468571Y-98467438D02*
X66420952Y-98515057D01*
X66420952Y-98515057D02*
X66325714Y-98657914D01*
X66325714Y-98657914D02*
X66278095Y-98848390D01*
X66278095Y-98848390D02*
X66278095Y-99229342D01*
X66278095Y-99229342D02*
X66325714Y-99324580D01*
X66325714Y-99324580D02*
X66373333Y-99372200D01*
X66373333Y-99372200D02*
X66468571Y-99419819D01*
X66468571Y-99419819D02*
X66659047Y-99419819D01*
X66659047Y-99419819D02*
X66754285Y-99372200D01*
X66754285Y-99372200D02*
X66801904Y-99324580D01*
X66801904Y-99324580D02*
X66849523Y-99229342D01*
X66849523Y-99229342D02*
X66849523Y-98991247D01*
X66849523Y-98991247D02*
X66801904Y-98896009D01*
X66801904Y-98896009D02*
X66754285Y-98848390D01*
X66754285Y-98848390D02*
X66659047Y-98800771D01*
X66659047Y-98800771D02*
X66468571Y-98800771D01*
X66468571Y-98800771D02*
X66373333Y-98848390D01*
X66373333Y-98848390D02*
X66325714Y-98896009D01*
X66325714Y-98896009D02*
X66278095Y-98991247D01*
X68274649Y-105419819D02*
X68465125Y-105419819D01*
X68465125Y-105419819D02*
X68560363Y-105467438D01*
X68560363Y-105467438D02*
X68655601Y-105562676D01*
X68655601Y-105562676D02*
X68703220Y-105753152D01*
X68703220Y-105753152D02*
X68703220Y-106086485D01*
X68703220Y-106086485D02*
X68655601Y-106276961D01*
X68655601Y-106276961D02*
X68560363Y-106372200D01*
X68560363Y-106372200D02*
X68465125Y-106419819D01*
X68465125Y-106419819D02*
X68274649Y-106419819D01*
X68274649Y-106419819D02*
X68179411Y-106372200D01*
X68179411Y-106372200D02*
X68084173Y-106276961D01*
X68084173Y-106276961D02*
X68036554Y-106086485D01*
X68036554Y-106086485D02*
X68036554Y-105753152D01*
X68036554Y-105753152D02*
X68084173Y-105562676D01*
X68084173Y-105562676D02*
X68179411Y-105467438D01*
X68179411Y-105467438D02*
X68274649Y-105419819D01*
X69131792Y-105419819D02*
X69131792Y-106229342D01*
X69131792Y-106229342D02*
X69179411Y-106324580D01*
X69179411Y-106324580D02*
X69227030Y-106372200D01*
X69227030Y-106372200D02*
X69322268Y-106419819D01*
X69322268Y-106419819D02*
X69512744Y-106419819D01*
X69512744Y-106419819D02*
X69607982Y-106372200D01*
X69607982Y-106372200D02*
X69655601Y-106324580D01*
X69655601Y-106324580D02*
X69703220Y-106229342D01*
X69703220Y-106229342D02*
X69703220Y-105419819D01*
X70036554Y-105419819D02*
X70607982Y-105419819D01*
X70322268Y-106419819D02*
X70322268Y-105419819D01*
X70941316Y-106038866D02*
X71703221Y-106038866D01*
X71322268Y-106419819D02*
X71322268Y-105657914D01*
X64801905Y-102419819D02*
X65420952Y-102419819D01*
X65420952Y-102419819D02*
X65087619Y-102800771D01*
X65087619Y-102800771D02*
X65230476Y-102800771D01*
X65230476Y-102800771D02*
X65325714Y-102848390D01*
X65325714Y-102848390D02*
X65373333Y-102896009D01*
X65373333Y-102896009D02*
X65420952Y-102991247D01*
X65420952Y-102991247D02*
X65420952Y-103229342D01*
X65420952Y-103229342D02*
X65373333Y-103324580D01*
X65373333Y-103324580D02*
X65325714Y-103372200D01*
X65325714Y-103372200D02*
X65230476Y-103419819D01*
X65230476Y-103419819D02*
X64944762Y-103419819D01*
X64944762Y-103419819D02*
X64849524Y-103372200D01*
X64849524Y-103372200D02*
X64801905Y-103324580D01*
X65706667Y-102419819D02*
X66040000Y-103419819D01*
X66040000Y-103419819D02*
X66373333Y-102419819D01*
X66611429Y-102419819D02*
X67230476Y-102419819D01*
X67230476Y-102419819D02*
X66897143Y-102800771D01*
X66897143Y-102800771D02*
X67040000Y-102800771D01*
X67040000Y-102800771D02*
X67135238Y-102848390D01*
X67135238Y-102848390D02*
X67182857Y-102896009D01*
X67182857Y-102896009D02*
X67230476Y-102991247D01*
X67230476Y-102991247D02*
X67230476Y-103229342D01*
X67230476Y-103229342D02*
X67182857Y-103324580D01*
X67182857Y-103324580D02*
X67135238Y-103372200D01*
X67135238Y-103372200D02*
X67040000Y-103419819D01*
X67040000Y-103419819D02*
X66754286Y-103419819D01*
X66754286Y-103419819D02*
X66659048Y-103372200D01*
X66659048Y-103372200D02*
X66611429Y-103324580D01*
X60376779Y-106419819D02*
X60376779Y-105419819D01*
X60852969Y-106419819D02*
X60852969Y-105419819D01*
X60852969Y-105419819D02*
X61424397Y-106419819D01*
X61424397Y-106419819D02*
X61424397Y-105419819D01*
X61900588Y-106038866D02*
X62662493Y-106038866D01*
X62281540Y-106419819D02*
X62281540Y-105657914D01*
X60376779Y-96419819D02*
X60376779Y-95419819D01*
X60852969Y-96419819D02*
X60852969Y-95419819D01*
X60852969Y-95419819D02*
X61424397Y-96419819D01*
X61424397Y-96419819D02*
X61424397Y-95419819D01*
X61900588Y-96038866D02*
X62662493Y-96038866D01*
X61230476Y-100896009D02*
X61373333Y-100943628D01*
X61373333Y-100943628D02*
X61420952Y-100991247D01*
X61420952Y-100991247D02*
X61468571Y-101086485D01*
X61468571Y-101086485D02*
X61468571Y-101229342D01*
X61468571Y-101229342D02*
X61420952Y-101324580D01*
X61420952Y-101324580D02*
X61373333Y-101372200D01*
X61373333Y-101372200D02*
X61278095Y-101419819D01*
X61278095Y-101419819D02*
X60897143Y-101419819D01*
X60897143Y-101419819D02*
X60897143Y-100419819D01*
X60897143Y-100419819D02*
X61230476Y-100419819D01*
X61230476Y-100419819D02*
X61325714Y-100467438D01*
X61325714Y-100467438D02*
X61373333Y-100515057D01*
X61373333Y-100515057D02*
X61420952Y-100610295D01*
X61420952Y-100610295D02*
X61420952Y-100705533D01*
X61420952Y-100705533D02*
X61373333Y-100800771D01*
X61373333Y-100800771D02*
X61325714Y-100848390D01*
X61325714Y-100848390D02*
X61230476Y-100896009D01*
X61230476Y-100896009D02*
X60897143Y-100896009D01*
X61897143Y-100419819D02*
X61897143Y-101229342D01*
X61897143Y-101229342D02*
X61944762Y-101324580D01*
X61944762Y-101324580D02*
X61992381Y-101372200D01*
X61992381Y-101372200D02*
X62087619Y-101419819D01*
X62087619Y-101419819D02*
X62278095Y-101419819D01*
X62278095Y-101419819D02*
X62373333Y-101372200D01*
X62373333Y-101372200D02*
X62420952Y-101324580D01*
X62420952Y-101324580D02*
X62468571Y-101229342D01*
X62468571Y-101229342D02*
X62468571Y-100419819D01*
X63516190Y-101324580D02*
X63468571Y-101372200D01*
X63468571Y-101372200D02*
X63325714Y-101419819D01*
X63325714Y-101419819D02*
X63230476Y-101419819D01*
X63230476Y-101419819D02*
X63087619Y-101372200D01*
X63087619Y-101372200D02*
X62992381Y-101276961D01*
X62992381Y-101276961D02*
X62944762Y-101181723D01*
X62944762Y-101181723D02*
X62897143Y-100991247D01*
X62897143Y-100991247D02*
X62897143Y-100848390D01*
X62897143Y-100848390D02*
X62944762Y-100657914D01*
X62944762Y-100657914D02*
X62992381Y-100562676D01*
X62992381Y-100562676D02*
X63087619Y-100467438D01*
X63087619Y-100467438D02*
X63230476Y-100419819D01*
X63230476Y-100419819D02*
X63325714Y-100419819D01*
X63325714Y-100419819D02*
X63468571Y-100467438D01*
X63468571Y-100467438D02*
X63516190Y-100515057D01*
X63944762Y-101419819D02*
X63944762Y-100419819D01*
X64516190Y-101419819D02*
X64087619Y-100848390D01*
X64516190Y-100419819D02*
X63944762Y-100991247D01*
X64706667Y-101515057D02*
X65468571Y-101515057D01*
X65706667Y-101419819D02*
X65706667Y-100419819D01*
X65706667Y-100419819D02*
X66040000Y-101134104D01*
X66040000Y-101134104D02*
X66373333Y-100419819D01*
X66373333Y-100419819D02*
X66373333Y-101419819D01*
X66849524Y-101419819D02*
X66849524Y-100419819D01*
X66849524Y-100419819D02*
X67230476Y-100419819D01*
X67230476Y-100419819D02*
X67325714Y-100467438D01*
X67325714Y-100467438D02*
X67373333Y-100515057D01*
X67373333Y-100515057D02*
X67420952Y-100610295D01*
X67420952Y-100610295D02*
X67420952Y-100753152D01*
X67420952Y-100753152D02*
X67373333Y-100848390D01*
X67373333Y-100848390D02*
X67325714Y-100896009D01*
X67325714Y-100896009D02*
X67230476Y-100943628D01*
X67230476Y-100943628D02*
X66849524Y-100943628D01*
X68373333Y-101419819D02*
X67801905Y-101419819D01*
X68087619Y-101419819D02*
X68087619Y-100419819D01*
X68087619Y-100419819D02*
X67992381Y-100562676D01*
X67992381Y-100562676D02*
X67897143Y-100657914D01*
X67897143Y-100657914D02*
X67801905Y-100705533D01*
X69278095Y-100419819D02*
X68801905Y-100419819D01*
X68801905Y-100419819D02*
X68754286Y-100896009D01*
X68754286Y-100896009D02*
X68801905Y-100848390D01*
X68801905Y-100848390D02*
X68897143Y-100800771D01*
X68897143Y-100800771D02*
X69135238Y-100800771D01*
X69135238Y-100800771D02*
X69230476Y-100848390D01*
X69230476Y-100848390D02*
X69278095Y-100896009D01*
X69278095Y-100896009D02*
X69325714Y-100991247D01*
X69325714Y-100991247D02*
X69325714Y-101229342D01*
X69325714Y-101229342D02*
X69278095Y-101324580D01*
X69278095Y-101324580D02*
X69230476Y-101372200D01*
X69230476Y-101372200D02*
X69135238Y-101419819D01*
X69135238Y-101419819D02*
X68897143Y-101419819D01*
X68897143Y-101419819D02*
X68801905Y-101372200D01*
X68801905Y-101372200D02*
X68754286Y-101324580D01*
X69897143Y-100848390D02*
X69801905Y-100800771D01*
X69801905Y-100800771D02*
X69754286Y-100753152D01*
X69754286Y-100753152D02*
X69706667Y-100657914D01*
X69706667Y-100657914D02*
X69706667Y-100610295D01*
X69706667Y-100610295D02*
X69754286Y-100515057D01*
X69754286Y-100515057D02*
X69801905Y-100467438D01*
X69801905Y-100467438D02*
X69897143Y-100419819D01*
X69897143Y-100419819D02*
X70087619Y-100419819D01*
X70087619Y-100419819D02*
X70182857Y-100467438D01*
X70182857Y-100467438D02*
X70230476Y-100515057D01*
X70230476Y-100515057D02*
X70278095Y-100610295D01*
X70278095Y-100610295D02*
X70278095Y-100657914D01*
X70278095Y-100657914D02*
X70230476Y-100753152D01*
X70230476Y-100753152D02*
X70182857Y-100800771D01*
X70182857Y-100800771D02*
X70087619Y-100848390D01*
X70087619Y-100848390D02*
X69897143Y-100848390D01*
X69897143Y-100848390D02*
X69801905Y-100896009D01*
X69801905Y-100896009D02*
X69754286Y-100943628D01*
X69754286Y-100943628D02*
X69706667Y-101038866D01*
X69706667Y-101038866D02*
X69706667Y-101229342D01*
X69706667Y-101229342D02*
X69754286Y-101324580D01*
X69754286Y-101324580D02*
X69801905Y-101372200D01*
X69801905Y-101372200D02*
X69897143Y-101419819D01*
X69897143Y-101419819D02*
X70087619Y-101419819D01*
X70087619Y-101419819D02*
X70182857Y-101372200D01*
X70182857Y-101372200D02*
X70230476Y-101324580D01*
X70230476Y-101324580D02*
X70278095Y-101229342D01*
X70278095Y-101229342D02*
X70278095Y-101038866D01*
X70278095Y-101038866D02*
X70230476Y-100943628D01*
X70230476Y-100943628D02*
X70182857Y-100896009D01*
X70182857Y-100896009D02*
X70087619Y-100848390D01*
X71135238Y-100753152D02*
X71135238Y-101419819D01*
X70897143Y-100372200D02*
X70659048Y-101086485D01*
X70659048Y-101086485D02*
X71278095Y-101086485D01*
X68274649Y-95419819D02*
X68465125Y-95419819D01*
X68465125Y-95419819D02*
X68560363Y-95467438D01*
X68560363Y-95467438D02*
X68655601Y-95562676D01*
X68655601Y-95562676D02*
X68703220Y-95753152D01*
X68703220Y-95753152D02*
X68703220Y-96086485D01*
X68703220Y-96086485D02*
X68655601Y-96276961D01*
X68655601Y-96276961D02*
X68560363Y-96372200D01*
X68560363Y-96372200D02*
X68465125Y-96419819D01*
X68465125Y-96419819D02*
X68274649Y-96419819D01*
X68274649Y-96419819D02*
X68179411Y-96372200D01*
X68179411Y-96372200D02*
X68084173Y-96276961D01*
X68084173Y-96276961D02*
X68036554Y-96086485D01*
X68036554Y-96086485D02*
X68036554Y-95753152D01*
X68036554Y-95753152D02*
X68084173Y-95562676D01*
X68084173Y-95562676D02*
X68179411Y-95467438D01*
X68179411Y-95467438D02*
X68274649Y-95419819D01*
X69131792Y-95419819D02*
X69131792Y-96229342D01*
X69131792Y-96229342D02*
X69179411Y-96324580D01*
X69179411Y-96324580D02*
X69227030Y-96372200D01*
X69227030Y-96372200D02*
X69322268Y-96419819D01*
X69322268Y-96419819D02*
X69512744Y-96419819D01*
X69512744Y-96419819D02*
X69607982Y-96372200D01*
X69607982Y-96372200D02*
X69655601Y-96324580D01*
X69655601Y-96324580D02*
X69703220Y-96229342D01*
X69703220Y-96229342D02*
X69703220Y-95419819D01*
X70036554Y-95419819D02*
X70607982Y-95419819D01*
X70322268Y-96419819D02*
X70322268Y-95419819D01*
X70941316Y-96038866D02*
X71703221Y-96038866D01*
X56334819Y-129203220D02*
X55334819Y-129203220D01*
X55334819Y-128250840D02*
X55334819Y-128727030D01*
X55334819Y-128727030D02*
X55811009Y-128774649D01*
X55811009Y-128774649D02*
X55763390Y-128727030D01*
X55763390Y-128727030D02*
X55715771Y-128631792D01*
X55715771Y-128631792D02*
X55715771Y-128393697D01*
X55715771Y-128393697D02*
X55763390Y-128298459D01*
X55763390Y-128298459D02*
X55811009Y-128250840D01*
X55811009Y-128250840D02*
X55906247Y-128203221D01*
X55906247Y-128203221D02*
X56144342Y-128203221D01*
X56144342Y-128203221D02*
X56239580Y-128250840D01*
X56239580Y-128250840D02*
X56287200Y-128298459D01*
X56287200Y-128298459D02*
X56334819Y-128393697D01*
X56334819Y-128393697D02*
X56334819Y-128631792D01*
X56334819Y-128631792D02*
X56287200Y-128727030D01*
X56287200Y-128727030D02*
X56239580Y-128774649D01*
X52794819Y-119192492D02*
X53794819Y-118859159D01*
X53794819Y-118859159D02*
X52794819Y-118525826D01*
X53794819Y-118192492D02*
X52794819Y-118192492D01*
X53794819Y-117716302D02*
X52794819Y-117716302D01*
X52794819Y-117716302D02*
X53794819Y-117144874D01*
X53794819Y-117144874D02*
X52794819Y-117144874D01*
X53413866Y-116668683D02*
X53413866Y-115906779D01*
X62954819Y-118430588D02*
X63954819Y-118097255D01*
X63954819Y-118097255D02*
X62954819Y-117763922D01*
X63859580Y-116859160D02*
X63907200Y-116906779D01*
X63907200Y-116906779D02*
X63954819Y-117049636D01*
X63954819Y-117049636D02*
X63954819Y-117144874D01*
X63954819Y-117144874D02*
X63907200Y-117287731D01*
X63907200Y-117287731D02*
X63811961Y-117382969D01*
X63811961Y-117382969D02*
X63716723Y-117430588D01*
X63716723Y-117430588D02*
X63526247Y-117478207D01*
X63526247Y-117478207D02*
X63383390Y-117478207D01*
X63383390Y-117478207D02*
X63192914Y-117430588D01*
X63192914Y-117430588D02*
X63097676Y-117382969D01*
X63097676Y-117382969D02*
X63002438Y-117287731D01*
X63002438Y-117287731D02*
X62954819Y-117144874D01*
X62954819Y-117144874D02*
X62954819Y-117049636D01*
X62954819Y-117049636D02*
X63002438Y-116906779D01*
X63002438Y-116906779D02*
X63050057Y-116859160D01*
X63859580Y-115859160D02*
X63907200Y-115906779D01*
X63907200Y-115906779D02*
X63954819Y-116049636D01*
X63954819Y-116049636D02*
X63954819Y-116144874D01*
X63954819Y-116144874D02*
X63907200Y-116287731D01*
X63907200Y-116287731D02*
X63811961Y-116382969D01*
X63811961Y-116382969D02*
X63716723Y-116430588D01*
X63716723Y-116430588D02*
X63526247Y-116478207D01*
X63526247Y-116478207D02*
X63383390Y-116478207D01*
X63383390Y-116478207D02*
X63192914Y-116430588D01*
X63192914Y-116430588D02*
X63097676Y-116382969D01*
X63097676Y-116382969D02*
X63002438Y-116287731D01*
X63002438Y-116287731D02*
X62954819Y-116144874D01*
X62954819Y-116144874D02*
X62954819Y-116049636D01*
X62954819Y-116049636D02*
X63002438Y-115906779D01*
X63002438Y-115906779D02*
X63050057Y-115859160D01*
X58874819Y-129203220D02*
X57874819Y-129203220D01*
X58874819Y-128727030D02*
X57874819Y-128727030D01*
X57874819Y-128727030D02*
X58874819Y-128155602D01*
X58874819Y-128155602D02*
X57874819Y-128155602D01*
X58589104Y-127727030D02*
X58589104Y-127250840D01*
X58874819Y-127822268D02*
X57874819Y-127488935D01*
X57874819Y-127488935D02*
X58874819Y-127155602D01*
X57970057Y-126869887D02*
X57922438Y-126822268D01*
X57922438Y-126822268D02*
X57874819Y-126727030D01*
X57874819Y-126727030D02*
X57874819Y-126488935D01*
X57874819Y-126488935D02*
X57922438Y-126393697D01*
X57922438Y-126393697D02*
X57970057Y-126346078D01*
X57970057Y-126346078D02*
X58065295Y-126298459D01*
X58065295Y-126298459D02*
X58160533Y-126298459D01*
X58160533Y-126298459D02*
X58303390Y-126346078D01*
X58303390Y-126346078D02*
X58874819Y-126917506D01*
X58874819Y-126917506D02*
X58874819Y-126298459D01*
X58874819Y-125346078D02*
X58874819Y-125917506D01*
X58874819Y-125631792D02*
X57874819Y-125631792D01*
X57874819Y-125631792D02*
X58017676Y-125727030D01*
X58017676Y-125727030D02*
X58112914Y-125822268D01*
X58112914Y-125822268D02*
X58160533Y-125917506D01*
X58874819Y-124869887D02*
X58874819Y-124679411D01*
X58874819Y-124679411D02*
X58827200Y-124584173D01*
X58827200Y-124584173D02*
X58779580Y-124536554D01*
X58779580Y-124536554D02*
X58636723Y-124441316D01*
X58636723Y-124441316D02*
X58446247Y-124393697D01*
X58446247Y-124393697D02*
X58065295Y-124393697D01*
X58065295Y-124393697D02*
X57970057Y-124441316D01*
X57970057Y-124441316D02*
X57922438Y-124488935D01*
X57922438Y-124488935D02*
X57874819Y-124584173D01*
X57874819Y-124584173D02*
X57874819Y-124774649D01*
X57874819Y-124774649D02*
X57922438Y-124869887D01*
X57922438Y-124869887D02*
X57970057Y-124917506D01*
X57970057Y-124917506D02*
X58065295Y-124965125D01*
X58065295Y-124965125D02*
X58303390Y-124965125D01*
X58303390Y-124965125D02*
X58398628Y-124917506D01*
X58398628Y-124917506D02*
X58446247Y-124869887D01*
X58446247Y-124869887D02*
X58493866Y-124774649D01*
X58493866Y-124774649D02*
X58493866Y-124584173D01*
X58493866Y-124584173D02*
X58446247Y-124488935D01*
X58446247Y-124488935D02*
X58398628Y-124441316D01*
X58398628Y-124441316D02*
X58303390Y-124393697D01*
X56287200Y-118287731D02*
X56334819Y-118144874D01*
X56334819Y-118144874D02*
X56334819Y-117906779D01*
X56334819Y-117906779D02*
X56287200Y-117811541D01*
X56287200Y-117811541D02*
X56239580Y-117763922D01*
X56239580Y-117763922D02*
X56144342Y-117716303D01*
X56144342Y-117716303D02*
X56049104Y-117716303D01*
X56049104Y-117716303D02*
X55953866Y-117763922D01*
X55953866Y-117763922D02*
X55906247Y-117811541D01*
X55906247Y-117811541D02*
X55858628Y-117906779D01*
X55858628Y-117906779D02*
X55811009Y-118097255D01*
X55811009Y-118097255D02*
X55763390Y-118192493D01*
X55763390Y-118192493D02*
X55715771Y-118240112D01*
X55715771Y-118240112D02*
X55620533Y-118287731D01*
X55620533Y-118287731D02*
X55525295Y-118287731D01*
X55525295Y-118287731D02*
X55430057Y-118240112D01*
X55430057Y-118240112D02*
X55382438Y-118192493D01*
X55382438Y-118192493D02*
X55334819Y-118097255D01*
X55334819Y-118097255D02*
X55334819Y-117859160D01*
X55334819Y-117859160D02*
X55382438Y-117716303D01*
X56334819Y-117287731D02*
X55334819Y-117287731D01*
X55334819Y-117287731D02*
X55334819Y-117049636D01*
X55334819Y-117049636D02*
X55382438Y-116906779D01*
X55382438Y-116906779D02*
X55477676Y-116811541D01*
X55477676Y-116811541D02*
X55572914Y-116763922D01*
X55572914Y-116763922D02*
X55763390Y-116716303D01*
X55763390Y-116716303D02*
X55906247Y-116716303D01*
X55906247Y-116716303D02*
X56096723Y-116763922D01*
X56096723Y-116763922D02*
X56191961Y-116811541D01*
X56191961Y-116811541D02*
X56287200Y-116906779D01*
X56287200Y-116906779D02*
X56334819Y-117049636D01*
X56334819Y-117049636D02*
X56334819Y-117287731D01*
X56049104Y-116335350D02*
X56049104Y-115859160D01*
X56334819Y-116430588D02*
X55334819Y-116097255D01*
X55334819Y-116097255D02*
X56334819Y-115763922D01*
X50254819Y-119192492D02*
X51254819Y-118859159D01*
X51254819Y-118859159D02*
X50254819Y-118525826D01*
X51254819Y-118192492D02*
X50254819Y-118192492D01*
X51254819Y-117716302D02*
X50254819Y-117716302D01*
X50254819Y-117716302D02*
X51254819Y-117144874D01*
X51254819Y-117144874D02*
X50254819Y-117144874D01*
X50873866Y-116668683D02*
X50873866Y-115906779D01*
X51254819Y-116287731D02*
X50492914Y-116287731D01*
X60462438Y-117954398D02*
X60414819Y-118049636D01*
X60414819Y-118049636D02*
X60414819Y-118192493D01*
X60414819Y-118192493D02*
X60462438Y-118335350D01*
X60462438Y-118335350D02*
X60557676Y-118430588D01*
X60557676Y-118430588D02*
X60652914Y-118478207D01*
X60652914Y-118478207D02*
X60843390Y-118525826D01*
X60843390Y-118525826D02*
X60986247Y-118525826D01*
X60986247Y-118525826D02*
X61176723Y-118478207D01*
X61176723Y-118478207D02*
X61271961Y-118430588D01*
X61271961Y-118430588D02*
X61367200Y-118335350D01*
X61367200Y-118335350D02*
X61414819Y-118192493D01*
X61414819Y-118192493D02*
X61414819Y-118097255D01*
X61414819Y-118097255D02*
X61367200Y-117954398D01*
X61367200Y-117954398D02*
X61319580Y-117906779D01*
X61319580Y-117906779D02*
X60986247Y-117906779D01*
X60986247Y-117906779D02*
X60986247Y-118097255D01*
X61414819Y-117478207D02*
X60414819Y-117478207D01*
X60414819Y-117478207D02*
X61414819Y-116906779D01*
X61414819Y-116906779D02*
X60414819Y-116906779D01*
X61414819Y-116430588D02*
X60414819Y-116430588D01*
X60414819Y-116430588D02*
X60414819Y-116192493D01*
X60414819Y-116192493D02*
X60462438Y-116049636D01*
X60462438Y-116049636D02*
X60557676Y-115954398D01*
X60557676Y-115954398D02*
X60652914Y-115906779D01*
X60652914Y-115906779D02*
X60843390Y-115859160D01*
X60843390Y-115859160D02*
X60986247Y-115859160D01*
X60986247Y-115859160D02*
X61176723Y-115906779D01*
X61176723Y-115906779D02*
X61271961Y-115954398D01*
X61271961Y-115954398D02*
X61367200Y-116049636D01*
X61367200Y-116049636D02*
X61414819Y-116192493D01*
X61414819Y-116192493D02*
X61414819Y-116430588D01*
X58827200Y-118240112D02*
X58874819Y-118097255D01*
X58874819Y-118097255D02*
X58874819Y-117859160D01*
X58874819Y-117859160D02*
X58827200Y-117763922D01*
X58827200Y-117763922D02*
X58779580Y-117716303D01*
X58779580Y-117716303D02*
X58684342Y-117668684D01*
X58684342Y-117668684D02*
X58589104Y-117668684D01*
X58589104Y-117668684D02*
X58493866Y-117716303D01*
X58493866Y-117716303D02*
X58446247Y-117763922D01*
X58446247Y-117763922D02*
X58398628Y-117859160D01*
X58398628Y-117859160D02*
X58351009Y-118049636D01*
X58351009Y-118049636D02*
X58303390Y-118144874D01*
X58303390Y-118144874D02*
X58255771Y-118192493D01*
X58255771Y-118192493D02*
X58160533Y-118240112D01*
X58160533Y-118240112D02*
X58065295Y-118240112D01*
X58065295Y-118240112D02*
X57970057Y-118192493D01*
X57970057Y-118192493D02*
X57922438Y-118144874D01*
X57922438Y-118144874D02*
X57874819Y-118049636D01*
X57874819Y-118049636D02*
X57874819Y-117811541D01*
X57874819Y-117811541D02*
X57922438Y-117668684D01*
X58779580Y-116668684D02*
X58827200Y-116716303D01*
X58827200Y-116716303D02*
X58874819Y-116859160D01*
X58874819Y-116859160D02*
X58874819Y-116954398D01*
X58874819Y-116954398D02*
X58827200Y-117097255D01*
X58827200Y-117097255D02*
X58731961Y-117192493D01*
X58731961Y-117192493D02*
X58636723Y-117240112D01*
X58636723Y-117240112D02*
X58446247Y-117287731D01*
X58446247Y-117287731D02*
X58303390Y-117287731D01*
X58303390Y-117287731D02*
X58112914Y-117240112D01*
X58112914Y-117240112D02*
X58017676Y-117192493D01*
X58017676Y-117192493D02*
X57922438Y-117097255D01*
X57922438Y-117097255D02*
X57874819Y-116954398D01*
X57874819Y-116954398D02*
X57874819Y-116859160D01*
X57874819Y-116859160D02*
X57922438Y-116716303D01*
X57922438Y-116716303D02*
X57970057Y-116668684D01*
X58874819Y-115763922D02*
X58874819Y-116240112D01*
X58874819Y-116240112D02*
X57874819Y-116240112D01*
X67601905Y-81734819D02*
X67601905Y-82544342D01*
X67601905Y-82544342D02*
X67649524Y-82639580D01*
X67649524Y-82639580D02*
X67697143Y-82687200D01*
X67697143Y-82687200D02*
X67792381Y-82734819D01*
X67792381Y-82734819D02*
X67982857Y-82734819D01*
X67982857Y-82734819D02*
X68078095Y-82687200D01*
X68078095Y-82687200D02*
X68125714Y-82639580D01*
X68125714Y-82639580D02*
X68173333Y-82544342D01*
X68173333Y-82544342D02*
X68173333Y-81734819D01*
X69173333Y-82734819D02*
X68601905Y-82734819D01*
X68887619Y-82734819D02*
X68887619Y-81734819D01*
X68887619Y-81734819D02*
X68792381Y-81877676D01*
X68792381Y-81877676D02*
X68697143Y-81972914D01*
X68697143Y-81972914D02*
X68601905Y-82020533D01*
X69792381Y-81734819D02*
X69887619Y-81734819D01*
X69887619Y-81734819D02*
X69982857Y-81782438D01*
X69982857Y-81782438D02*
X70030476Y-81830057D01*
X70030476Y-81830057D02*
X70078095Y-81925295D01*
X70078095Y-81925295D02*
X70125714Y-82115771D01*
X70125714Y-82115771D02*
X70125714Y-82353866D01*
X70125714Y-82353866D02*
X70078095Y-82544342D01*
X70078095Y-82544342D02*
X70030476Y-82639580D01*
X70030476Y-82639580D02*
X69982857Y-82687200D01*
X69982857Y-82687200D02*
X69887619Y-82734819D01*
X69887619Y-82734819D02*
X69792381Y-82734819D01*
X69792381Y-82734819D02*
X69697143Y-82687200D01*
X69697143Y-82687200D02*
X69649524Y-82639580D01*
X69649524Y-82639580D02*
X69601905Y-82544342D01*
X69601905Y-82544342D02*
X69554286Y-82353866D01*
X69554286Y-82353866D02*
X69554286Y-82115771D01*
X69554286Y-82115771D02*
X69601905Y-81925295D01*
X69601905Y-81925295D02*
X69649524Y-81830057D01*
X69649524Y-81830057D02*
X69697143Y-81782438D01*
X69697143Y-81782438D02*
X69792381Y-81734819D01*
X79574649Y-81211009D02*
X79717506Y-81258628D01*
X79717506Y-81258628D02*
X79765125Y-81306247D01*
X79765125Y-81306247D02*
X79812744Y-81401485D01*
X79812744Y-81401485D02*
X79812744Y-81544342D01*
X79812744Y-81544342D02*
X79765125Y-81639580D01*
X79765125Y-81639580D02*
X79717506Y-81687200D01*
X79717506Y-81687200D02*
X79622268Y-81734819D01*
X79622268Y-81734819D02*
X79241316Y-81734819D01*
X79241316Y-81734819D02*
X79241316Y-80734819D01*
X79241316Y-80734819D02*
X79574649Y-80734819D01*
X79574649Y-80734819D02*
X79669887Y-80782438D01*
X79669887Y-80782438D02*
X79717506Y-80830057D01*
X79717506Y-80830057D02*
X79765125Y-80925295D01*
X79765125Y-80925295D02*
X79765125Y-81020533D01*
X79765125Y-81020533D02*
X79717506Y-81115771D01*
X79717506Y-81115771D02*
X79669887Y-81163390D01*
X79669887Y-81163390D02*
X79574649Y-81211009D01*
X79574649Y-81211009D02*
X79241316Y-81211009D01*
X80241316Y-81353866D02*
X81003221Y-81353866D01*
X80622268Y-81734819D02*
X80622268Y-80972914D01*
X79574649Y-85211009D02*
X79717506Y-85258628D01*
X79717506Y-85258628D02*
X79765125Y-85306247D01*
X79765125Y-85306247D02*
X79812744Y-85401485D01*
X79812744Y-85401485D02*
X79812744Y-85544342D01*
X79812744Y-85544342D02*
X79765125Y-85639580D01*
X79765125Y-85639580D02*
X79717506Y-85687200D01*
X79717506Y-85687200D02*
X79622268Y-85734819D01*
X79622268Y-85734819D02*
X79241316Y-85734819D01*
X79241316Y-85734819D02*
X79241316Y-84734819D01*
X79241316Y-84734819D02*
X79574649Y-84734819D01*
X79574649Y-84734819D02*
X79669887Y-84782438D01*
X79669887Y-84782438D02*
X79717506Y-84830057D01*
X79717506Y-84830057D02*
X79765125Y-84925295D01*
X79765125Y-84925295D02*
X79765125Y-85020533D01*
X79765125Y-85020533D02*
X79717506Y-85115771D01*
X79717506Y-85115771D02*
X79669887Y-85163390D01*
X79669887Y-85163390D02*
X79574649Y-85211009D01*
X79574649Y-85211009D02*
X79241316Y-85211009D01*
X80241316Y-85353866D02*
X81003221Y-85353866D01*
X61360361Y-84211009D02*
X61503218Y-84258628D01*
X61503218Y-84258628D02*
X61550837Y-84306247D01*
X61550837Y-84306247D02*
X61598456Y-84401485D01*
X61598456Y-84401485D02*
X61598456Y-84544342D01*
X61598456Y-84544342D02*
X61550837Y-84639580D01*
X61550837Y-84639580D02*
X61503218Y-84687200D01*
X61503218Y-84687200D02*
X61407980Y-84734819D01*
X61407980Y-84734819D02*
X61027028Y-84734819D01*
X61027028Y-84734819D02*
X61027028Y-83734819D01*
X61027028Y-83734819D02*
X61360361Y-83734819D01*
X61360361Y-83734819D02*
X61455599Y-83782438D01*
X61455599Y-83782438D02*
X61503218Y-83830057D01*
X61503218Y-83830057D02*
X61550837Y-83925295D01*
X61550837Y-83925295D02*
X61550837Y-84020533D01*
X61550837Y-84020533D02*
X61503218Y-84115771D01*
X61503218Y-84115771D02*
X61455599Y-84163390D01*
X61455599Y-84163390D02*
X61360361Y-84211009D01*
X61360361Y-84211009D02*
X61027028Y-84211009D01*
X62027028Y-84734819D02*
X62027028Y-83734819D01*
X62027028Y-83734819D02*
X62360361Y-84449104D01*
X62360361Y-84449104D02*
X62693694Y-83734819D01*
X62693694Y-83734819D02*
X62693694Y-84734819D01*
X63122266Y-84687200D02*
X63265123Y-84734819D01*
X63265123Y-84734819D02*
X63503218Y-84734819D01*
X63503218Y-84734819D02*
X63598456Y-84687200D01*
X63598456Y-84687200D02*
X63646075Y-84639580D01*
X63646075Y-84639580D02*
X63693694Y-84544342D01*
X63693694Y-84544342D02*
X63693694Y-84449104D01*
X63693694Y-84449104D02*
X63646075Y-84353866D01*
X63646075Y-84353866D02*
X63598456Y-84306247D01*
X63598456Y-84306247D02*
X63503218Y-84258628D01*
X63503218Y-84258628D02*
X63312742Y-84211009D01*
X63312742Y-84211009D02*
X63217504Y-84163390D01*
X63217504Y-84163390D02*
X63169885Y-84115771D01*
X63169885Y-84115771D02*
X63122266Y-84020533D01*
X63122266Y-84020533D02*
X63122266Y-83925295D01*
X63122266Y-83925295D02*
X63169885Y-83830057D01*
X63169885Y-83830057D02*
X63217504Y-83782438D01*
X63217504Y-83782438D02*
X63312742Y-83734819D01*
X63312742Y-83734819D02*
X63550837Y-83734819D01*
X63550837Y-83734819D02*
X63693694Y-83782438D01*
X63884171Y-84830057D02*
X64646075Y-84830057D01*
X64836552Y-83830057D02*
X64884171Y-83782438D01*
X64884171Y-83782438D02*
X64979409Y-83734819D01*
X64979409Y-83734819D02*
X65217504Y-83734819D01*
X65217504Y-83734819D02*
X65312742Y-83782438D01*
X65312742Y-83782438D02*
X65360361Y-83830057D01*
X65360361Y-83830057D02*
X65407980Y-83925295D01*
X65407980Y-83925295D02*
X65407980Y-84020533D01*
X65407980Y-84020533D02*
X65360361Y-84163390D01*
X65360361Y-84163390D02*
X64788933Y-84734819D01*
X64788933Y-84734819D02*
X65407980Y-84734819D01*
X65788933Y-84687200D02*
X65931790Y-84734819D01*
X65931790Y-84734819D02*
X66169885Y-84734819D01*
X66169885Y-84734819D02*
X66265123Y-84687200D01*
X66265123Y-84687200D02*
X66312742Y-84639580D01*
X66312742Y-84639580D02*
X66360361Y-84544342D01*
X66360361Y-84544342D02*
X66360361Y-84449104D01*
X66360361Y-84449104D02*
X66312742Y-84353866D01*
X66312742Y-84353866D02*
X66265123Y-84306247D01*
X66265123Y-84306247D02*
X66169885Y-84258628D01*
X66169885Y-84258628D02*
X65979409Y-84211009D01*
X65979409Y-84211009D02*
X65884171Y-84163390D01*
X65884171Y-84163390D02*
X65836552Y-84115771D01*
X65836552Y-84115771D02*
X65788933Y-84020533D01*
X65788933Y-84020533D02*
X65788933Y-83925295D01*
X65788933Y-83925295D02*
X65836552Y-83830057D01*
X65836552Y-83830057D02*
X65884171Y-83782438D01*
X65884171Y-83782438D02*
X65979409Y-83734819D01*
X65979409Y-83734819D02*
X66217504Y-83734819D01*
X66217504Y-83734819D02*
X66360361Y-83782438D01*
X66550838Y-84830057D02*
X67312742Y-84830057D01*
X67550838Y-84734819D02*
X67550838Y-83734819D01*
X67550838Y-83734819D02*
X67884171Y-84449104D01*
X67884171Y-84449104D02*
X68217504Y-83734819D01*
X68217504Y-83734819D02*
X68217504Y-84734819D01*
X68836552Y-84734819D02*
X68741314Y-84687200D01*
X68741314Y-84687200D02*
X68693695Y-84639580D01*
X68693695Y-84639580D02*
X68646076Y-84544342D01*
X68646076Y-84544342D02*
X68646076Y-84258628D01*
X68646076Y-84258628D02*
X68693695Y-84163390D01*
X68693695Y-84163390D02*
X68741314Y-84115771D01*
X68741314Y-84115771D02*
X68836552Y-84068152D01*
X68836552Y-84068152D02*
X68979409Y-84068152D01*
X68979409Y-84068152D02*
X69074647Y-84115771D01*
X69074647Y-84115771D02*
X69122266Y-84163390D01*
X69122266Y-84163390D02*
X69169885Y-84258628D01*
X69169885Y-84258628D02*
X69169885Y-84544342D01*
X69169885Y-84544342D02*
X69122266Y-84639580D01*
X69122266Y-84639580D02*
X69074647Y-84687200D01*
X69074647Y-84687200D02*
X68979409Y-84734819D01*
X68979409Y-84734819D02*
X68836552Y-84734819D01*
X70027028Y-84734819D02*
X70027028Y-83734819D01*
X70027028Y-84687200D02*
X69931790Y-84734819D01*
X69931790Y-84734819D02*
X69741314Y-84734819D01*
X69741314Y-84734819D02*
X69646076Y-84687200D01*
X69646076Y-84687200D02*
X69598457Y-84639580D01*
X69598457Y-84639580D02*
X69550838Y-84544342D01*
X69550838Y-84544342D02*
X69550838Y-84258628D01*
X69550838Y-84258628D02*
X69598457Y-84163390D01*
X69598457Y-84163390D02*
X69646076Y-84115771D01*
X69646076Y-84115771D02*
X69741314Y-84068152D01*
X69741314Y-84068152D02*
X69931790Y-84068152D01*
X69931790Y-84068152D02*
X70027028Y-84115771D01*
X70931790Y-84068152D02*
X70931790Y-84734819D01*
X70503219Y-84068152D02*
X70503219Y-84591961D01*
X70503219Y-84591961D02*
X70550838Y-84687200D01*
X70550838Y-84687200D02*
X70646076Y-84734819D01*
X70646076Y-84734819D02*
X70788933Y-84734819D01*
X70788933Y-84734819D02*
X70884171Y-84687200D01*
X70884171Y-84687200D02*
X70931790Y-84639580D01*
X71550838Y-84734819D02*
X71455600Y-84687200D01*
X71455600Y-84687200D02*
X71407981Y-84591961D01*
X71407981Y-84591961D02*
X71407981Y-83734819D01*
X72312743Y-84687200D02*
X72217505Y-84734819D01*
X72217505Y-84734819D02*
X72027029Y-84734819D01*
X72027029Y-84734819D02*
X71931791Y-84687200D01*
X71931791Y-84687200D02*
X71884172Y-84591961D01*
X71884172Y-84591961D02*
X71884172Y-84211009D01*
X71884172Y-84211009D02*
X71931791Y-84115771D01*
X71931791Y-84115771D02*
X72027029Y-84068152D01*
X72027029Y-84068152D02*
X72217505Y-84068152D01*
X72217505Y-84068152D02*
X72312743Y-84115771D01*
X72312743Y-84115771D02*
X72360362Y-84211009D01*
X72360362Y-84211009D02*
X72360362Y-84306247D01*
X72360362Y-84306247D02*
X71884172Y-84401485D01*
X72550839Y-84830057D02*
X73312743Y-84830057D01*
X74074648Y-84734819D02*
X73503220Y-84734819D01*
X73788934Y-84734819D02*
X73788934Y-83734819D01*
X73788934Y-83734819D02*
X73693696Y-83877676D01*
X73693696Y-83877676D02*
X73598458Y-83972914D01*
X73598458Y-83972914D02*
X73503220Y-84020533D01*
X74265125Y-84830057D02*
X75027029Y-84830057D01*
X75169887Y-84068152D02*
X75407982Y-84734819D01*
X75407982Y-84734819D02*
X75646077Y-84068152D01*
X76550839Y-84734819D02*
X75979411Y-84734819D01*
X76265125Y-84734819D02*
X76265125Y-83734819D01*
X76265125Y-83734819D02*
X76169887Y-83877676D01*
X76169887Y-83877676D02*
X76074649Y-83972914D01*
X76074649Y-83972914D02*
X75979411Y-84020533D01*
X56741316Y-81734819D02*
X56741316Y-80734819D01*
X56741316Y-80734819D02*
X57122268Y-80734819D01*
X57122268Y-80734819D02*
X57217506Y-80782438D01*
X57217506Y-80782438D02*
X57265125Y-80830057D01*
X57265125Y-80830057D02*
X57312744Y-80925295D01*
X57312744Y-80925295D02*
X57312744Y-81068152D01*
X57312744Y-81068152D02*
X57265125Y-81163390D01*
X57265125Y-81163390D02*
X57217506Y-81211009D01*
X57217506Y-81211009D02*
X57122268Y-81258628D01*
X57122268Y-81258628D02*
X56741316Y-81258628D01*
X57741316Y-81353866D02*
X58503221Y-81353866D01*
X58122268Y-81734819D02*
X58122268Y-80972914D01*
X56741316Y-85734819D02*
X56741316Y-84734819D01*
X56741316Y-84734819D02*
X57122268Y-84734819D01*
X57122268Y-84734819D02*
X57217506Y-84782438D01*
X57217506Y-84782438D02*
X57265125Y-84830057D01*
X57265125Y-84830057D02*
X57312744Y-84925295D01*
X57312744Y-84925295D02*
X57312744Y-85068152D01*
X57312744Y-85068152D02*
X57265125Y-85163390D01*
X57265125Y-85163390D02*
X57217506Y-85211009D01*
X57217506Y-85211009D02*
X57122268Y-85258628D01*
X57122268Y-85258628D02*
X56741316Y-85258628D01*
X57741316Y-85353866D02*
X58503221Y-85353866D01*
X107404819Y-116271904D02*
X108214342Y-116271904D01*
X108214342Y-116271904D02*
X108309580Y-116224285D01*
X108309580Y-116224285D02*
X108357200Y-116176666D01*
X108357200Y-116176666D02*
X108404819Y-116081428D01*
X108404819Y-116081428D02*
X108404819Y-115890952D01*
X108404819Y-115890952D02*
X108357200Y-115795714D01*
X108357200Y-115795714D02*
X108309580Y-115748095D01*
X108309580Y-115748095D02*
X108214342Y-115700476D01*
X108214342Y-115700476D02*
X107404819Y-115700476D01*
X107404819Y-114748095D02*
X107404819Y-115224285D01*
X107404819Y-115224285D02*
X107881009Y-115271904D01*
X107881009Y-115271904D02*
X107833390Y-115224285D01*
X107833390Y-115224285D02*
X107785771Y-115129047D01*
X107785771Y-115129047D02*
X107785771Y-114890952D01*
X107785771Y-114890952D02*
X107833390Y-114795714D01*
X107833390Y-114795714D02*
X107881009Y-114748095D01*
X107881009Y-114748095D02*
X107976247Y-114700476D01*
X107976247Y-114700476D02*
X108214342Y-114700476D01*
X108214342Y-114700476D02*
X108309580Y-114748095D01*
X108309580Y-114748095D02*
X108357200Y-114795714D01*
X108357200Y-114795714D02*
X108404819Y-114890952D01*
X108404819Y-114890952D02*
X108404819Y-115129047D01*
X108404819Y-115129047D02*
X108357200Y-115224285D01*
X108357200Y-115224285D02*
X108309580Y-115271904D01*
D13*
%TO.C,I3*%
X93960000Y-164130000D02*
X93960000Y-170100000D01*
X93960000Y-170100000D02*
X106580000Y-170100000D01*
X93970000Y-167840000D02*
X94720000Y-167840000D01*
X93970000Y-169340000D02*
X93970000Y-170090000D01*
X93970000Y-170090000D02*
X95770000Y-170090000D01*
X94720000Y-164890000D02*
X100270000Y-164890000D01*
X94720000Y-167840000D02*
X94720000Y-164890000D01*
X95770000Y-169340000D02*
X93970000Y-169340000D01*
X95770000Y-170090000D02*
X95770000Y-169340000D01*
X97270000Y-169340000D02*
X97270000Y-170090000D01*
X97270000Y-170090000D02*
X103270000Y-170090000D01*
X103270000Y-169340000D02*
X97270000Y-169340000D01*
X103270000Y-170090000D02*
X103270000Y-169340000D01*
X104770000Y-169340000D02*
X104770000Y-170090000D01*
X104770000Y-170090000D02*
X106570000Y-170090000D01*
X105620000Y-170390000D02*
X106870000Y-170390000D01*
X105820000Y-164890000D02*
X100270000Y-164890000D01*
X105820000Y-167840000D02*
X105820000Y-164890000D01*
X106570000Y-167840000D02*
X105820000Y-167840000D01*
X106570000Y-169340000D02*
X104770000Y-169340000D01*
X106570000Y-170090000D02*
X106570000Y-169340000D01*
X106580000Y-164130000D02*
X93960000Y-164130000D01*
X106580000Y-170100000D02*
X106580000Y-164130000D01*
X106870000Y-170390000D02*
X106870000Y-169140000D01*
%TO.C,U9*%
X119680000Y-109200000D02*
X119680000Y-121820000D01*
X119680000Y-121820000D02*
X125650000Y-121820000D01*
X120440000Y-109960000D02*
X120440000Y-115510000D01*
X120440000Y-121060000D02*
X120440000Y-115510000D01*
X123390000Y-109210000D02*
X123390000Y-109960000D01*
X123390000Y-109960000D02*
X120440000Y-109960000D01*
X123390000Y-121060000D02*
X120440000Y-121060000D01*
X123390000Y-121810000D02*
X123390000Y-121060000D01*
X124890000Y-109210000D02*
X124890000Y-111010000D01*
X124890000Y-111010000D02*
X125640000Y-111010000D01*
X124890000Y-112510000D02*
X124890000Y-118510000D01*
X124890000Y-118510000D02*
X125640000Y-118510000D01*
X124890000Y-120010000D02*
X124890000Y-121810000D01*
X124890000Y-121810000D02*
X125640000Y-121810000D01*
X125640000Y-109210000D02*
X124890000Y-109210000D01*
X125640000Y-111010000D02*
X125640000Y-109210000D01*
X125640000Y-112510000D02*
X124890000Y-112510000D01*
X125640000Y-118510000D02*
X125640000Y-112510000D01*
X125640000Y-120010000D02*
X124890000Y-120010000D01*
X125640000Y-121810000D02*
X125640000Y-120010000D01*
X125650000Y-109200000D02*
X119680000Y-109200000D01*
X125650000Y-121820000D02*
X125650000Y-109200000D01*
X125940000Y-108910000D02*
X124690000Y-108910000D01*
X125940000Y-110160000D02*
X125940000Y-108910000D01*
%TO.C,I2*%
X109160000Y-164040000D02*
X109160000Y-170010000D01*
X109160000Y-170010000D02*
X121780000Y-170010000D01*
X109170000Y-167750000D02*
X109920000Y-167750000D01*
X109170000Y-169250000D02*
X109170000Y-170000000D01*
X109170000Y-170000000D02*
X110970000Y-170000000D01*
X109920000Y-164800000D02*
X115470000Y-164800000D01*
X109920000Y-167750000D02*
X109920000Y-164800000D01*
X110970000Y-169250000D02*
X109170000Y-169250000D01*
X110970000Y-170000000D02*
X110970000Y-169250000D01*
X112470000Y-169250000D02*
X112470000Y-170000000D01*
X112470000Y-170000000D02*
X118470000Y-170000000D01*
X118470000Y-169250000D02*
X112470000Y-169250000D01*
X118470000Y-170000000D02*
X118470000Y-169250000D01*
X119970000Y-169250000D02*
X119970000Y-170000000D01*
X119970000Y-170000000D02*
X121770000Y-170000000D01*
X120820000Y-170300000D02*
X122070000Y-170300000D01*
X121020000Y-164800000D02*
X115470000Y-164800000D01*
X121020000Y-167750000D02*
X121020000Y-164800000D01*
X121770000Y-167750000D02*
X121020000Y-167750000D01*
X121770000Y-169250000D02*
X119970000Y-169250000D01*
X121770000Y-170000000D02*
X121770000Y-169250000D01*
X121780000Y-164040000D02*
X109160000Y-164040000D01*
X121780000Y-170010000D02*
X121780000Y-164040000D01*
X122070000Y-170300000D02*
X122070000Y-169050000D01*
%TO.C,I6*%
D14*
X101790494Y-93345000D02*
X79790494Y-93345000D01*
X79790494Y-131445000D01*
X101790494Y-131445000D01*
X101790494Y-93345000D01*
D13*
%TO.C,BAT*%
X44750000Y-97770000D02*
X44750000Y-105390000D01*
X44750000Y-105390000D02*
X50720000Y-105390000D01*
X45510000Y-98530000D02*
X45510000Y-101580000D01*
X45510000Y-104630000D02*
X45510000Y-101580000D01*
X48460000Y-97780000D02*
X48460000Y-98530000D01*
X48460000Y-98530000D02*
X45510000Y-98530000D01*
X48460000Y-104630000D02*
X45510000Y-104630000D01*
X48460000Y-105380000D02*
X48460000Y-104630000D01*
X49960000Y-97780000D02*
X49960000Y-99580000D01*
X49960000Y-99580000D02*
X50710000Y-99580000D01*
X49960000Y-101080000D02*
X49960000Y-102080000D01*
X49960000Y-102080000D02*
X50710000Y-102080000D01*
X49960000Y-103580000D02*
X49960000Y-105380000D01*
X49960000Y-105380000D02*
X50710000Y-105380000D01*
X50710000Y-97780000D02*
X49960000Y-97780000D01*
X50710000Y-99580000D02*
X50710000Y-97780000D01*
X50710000Y-101080000D02*
X49960000Y-101080000D01*
X50710000Y-102080000D02*
X50710000Y-101080000D01*
X50710000Y-103580000D02*
X49960000Y-103580000D01*
X50710000Y-105380000D02*
X50710000Y-103580000D01*
X50720000Y-97770000D02*
X44750000Y-97770000D01*
X50720000Y-105390000D02*
X50720000Y-97770000D01*
X51010000Y-97480000D02*
X49760000Y-97480000D01*
X51010000Y-98730000D02*
X51010000Y-97480000D01*
%TO.C,U1*%
D14*
X48260000Y-143510000D02*
X43180000Y-143510000D01*
X43180000Y-148590000D01*
X48260000Y-148590000D01*
X48260000Y-143510000D01*
X101600000Y-134750000D02*
X43570000Y-134750000D01*
X43570000Y-157350000D01*
X101600000Y-157350000D01*
X101600000Y-134750000D01*
%TO.C,U3*%
X106680000Y-161290000D02*
X124680000Y-161290000D01*
X124680000Y-133290000D01*
X106680000Y-133290000D01*
X106680000Y-161290000D01*
D13*
%TO.C,U7*%
X109520000Y-93960000D02*
X109520000Y-106580000D01*
X109520000Y-106580000D02*
X115490000Y-106580000D01*
X110280000Y-94720000D02*
X110280000Y-100270000D01*
X110280000Y-105820000D02*
X110280000Y-100270000D01*
X113230000Y-93970000D02*
X113230000Y-94720000D01*
X113230000Y-94720000D02*
X110280000Y-94720000D01*
X113230000Y-105820000D02*
X110280000Y-105820000D01*
X113230000Y-106570000D02*
X113230000Y-105820000D01*
X114730000Y-93970000D02*
X114730000Y-95770000D01*
X114730000Y-95770000D02*
X115480000Y-95770000D01*
X114730000Y-97270000D02*
X114730000Y-103270000D01*
X114730000Y-103270000D02*
X115480000Y-103270000D01*
X114730000Y-104770000D02*
X114730000Y-106570000D01*
X114730000Y-106570000D02*
X115480000Y-106570000D01*
X115480000Y-93970000D02*
X114730000Y-93970000D01*
X115480000Y-95770000D02*
X115480000Y-93970000D01*
X115480000Y-97270000D02*
X114730000Y-97270000D01*
X115480000Y-103270000D02*
X115480000Y-97270000D01*
X115480000Y-104770000D02*
X114730000Y-104770000D01*
X115480000Y-106570000D02*
X115480000Y-104770000D01*
X115490000Y-93960000D02*
X109520000Y-93960000D01*
X115490000Y-106580000D02*
X115490000Y-93960000D01*
X115780000Y-93670000D02*
X114530000Y-93670000D01*
X115780000Y-94920000D02*
X115780000Y-93670000D01*
%TO.C,U8*%
X119680000Y-93960000D02*
X119680000Y-106580000D01*
X119680000Y-106580000D02*
X125650000Y-106580000D01*
X120440000Y-94720000D02*
X120440000Y-100270000D01*
X120440000Y-105820000D02*
X120440000Y-100270000D01*
X123390000Y-93970000D02*
X123390000Y-94720000D01*
X123390000Y-94720000D02*
X120440000Y-94720000D01*
X123390000Y-105820000D02*
X120440000Y-105820000D01*
X123390000Y-106570000D02*
X123390000Y-105820000D01*
X124890000Y-93970000D02*
X124890000Y-95770000D01*
X124890000Y-95770000D02*
X125640000Y-95770000D01*
X124890000Y-97270000D02*
X124890000Y-103270000D01*
X124890000Y-103270000D02*
X125640000Y-103270000D01*
X124890000Y-104770000D02*
X124890000Y-106570000D01*
X124890000Y-106570000D02*
X125640000Y-106570000D01*
X125640000Y-93970000D02*
X124890000Y-93970000D01*
X125640000Y-95770000D02*
X125640000Y-93970000D01*
X125640000Y-97270000D02*
X124890000Y-97270000D01*
X125640000Y-103270000D02*
X125640000Y-97270000D01*
X125640000Y-104770000D02*
X124890000Y-104770000D01*
X125640000Y-106570000D02*
X125640000Y-104770000D01*
X125650000Y-93960000D02*
X119680000Y-93960000D01*
X125650000Y-106580000D02*
X125650000Y-93960000D01*
X125940000Y-93670000D02*
X124690000Y-93670000D01*
X125940000Y-94920000D02*
X125940000Y-93670000D01*
D15*
%TO.C,BT1*%
X45316000Y-38735000D02*
X46316000Y-38735000D01*
X45316000Y-66735000D02*
X46316000Y-66735000D01*
X45816000Y-38235000D02*
X45816000Y-39235000D01*
X47536000Y-32845000D02*
X124596000Y-32845000D01*
X47536000Y-39685000D02*
X47536000Y-32845000D01*
X47536000Y-46785000D02*
X47536000Y-58685000D01*
X47536000Y-65785000D02*
X47536000Y-72625000D01*
X47536000Y-72625000D02*
X124596000Y-72625000D01*
X124596000Y-32845000D02*
X124596000Y-39685000D01*
X124596000Y-46785000D02*
X124596000Y-58685000D01*
X124596000Y-72625000D02*
X124596000Y-65785000D01*
X126316000Y-67235000D02*
X126316000Y-66235000D01*
X126816000Y-38735000D02*
X125816000Y-38735000D01*
X126816000Y-66735000D02*
X125816000Y-66735000D01*
D13*
%TO.C,U2*%
X63360000Y-164040000D02*
X63360000Y-170010000D01*
X63360000Y-170010000D02*
X75980000Y-170010000D01*
X63370000Y-167750000D02*
X64120000Y-167750000D01*
X63370000Y-169250000D02*
X63370000Y-170000000D01*
X63370000Y-170000000D02*
X65170000Y-170000000D01*
X64120000Y-164800000D02*
X69670000Y-164800000D01*
X64120000Y-167750000D02*
X64120000Y-164800000D01*
X65170000Y-169250000D02*
X63370000Y-169250000D01*
X65170000Y-170000000D02*
X65170000Y-169250000D01*
X66670000Y-169250000D02*
X66670000Y-170000000D01*
X66670000Y-170000000D02*
X72670000Y-170000000D01*
X72670000Y-169250000D02*
X66670000Y-169250000D01*
X72670000Y-170000000D02*
X72670000Y-169250000D01*
X74170000Y-169250000D02*
X74170000Y-170000000D01*
X74170000Y-170000000D02*
X75970000Y-170000000D01*
X75020000Y-170300000D02*
X76270000Y-170300000D01*
X75220000Y-164800000D02*
X69670000Y-164800000D01*
X75220000Y-167750000D02*
X75220000Y-164800000D01*
X75970000Y-167750000D02*
X75220000Y-167750000D01*
X75970000Y-169250000D02*
X74170000Y-169250000D01*
X75970000Y-170000000D02*
X75970000Y-169250000D01*
X75980000Y-164040000D02*
X63360000Y-164040000D01*
X75980000Y-170010000D02*
X75980000Y-164040000D01*
X76270000Y-170300000D02*
X76270000Y-169050000D01*
%TO.C,U4*%
X48120000Y-163950000D02*
X48120000Y-169920000D01*
X48120000Y-169920000D02*
X60740000Y-169920000D01*
X48130000Y-167660000D02*
X48880000Y-167660000D01*
X48130000Y-169160000D02*
X48130000Y-169910000D01*
X48130000Y-169910000D02*
X49930000Y-169910000D01*
X48880000Y-164710000D02*
X54430000Y-164710000D01*
X48880000Y-167660000D02*
X48880000Y-164710000D01*
X49930000Y-169160000D02*
X48130000Y-169160000D01*
X49930000Y-169910000D02*
X49930000Y-169160000D01*
X51430000Y-169160000D02*
X51430000Y-169910000D01*
X51430000Y-169910000D02*
X57430000Y-169910000D01*
X57430000Y-169160000D02*
X51430000Y-169160000D01*
X57430000Y-169910000D02*
X57430000Y-169160000D01*
X58930000Y-169160000D02*
X58930000Y-169910000D01*
X58930000Y-169910000D02*
X60730000Y-169910000D01*
X59780000Y-170210000D02*
X61030000Y-170210000D01*
X59980000Y-164710000D02*
X54430000Y-164710000D01*
X59980000Y-167660000D02*
X59980000Y-164710000D01*
X60730000Y-167660000D02*
X59980000Y-167660000D01*
X60730000Y-169160000D02*
X58930000Y-169160000D01*
X60730000Y-169910000D02*
X60730000Y-169160000D01*
X60740000Y-163950000D02*
X48120000Y-163950000D01*
X60740000Y-169920000D02*
X60740000Y-163950000D01*
X61030000Y-170210000D02*
X61030000Y-168960000D01*
%TO.C,I1*%
X78600000Y-164040000D02*
X78600000Y-170010000D01*
X78600000Y-170010000D02*
X91220000Y-170010000D01*
X78610000Y-167750000D02*
X79360000Y-167750000D01*
X78610000Y-169250000D02*
X78610000Y-170000000D01*
X78610000Y-170000000D02*
X80410000Y-170000000D01*
X79360000Y-164800000D02*
X84910000Y-164800000D01*
X79360000Y-167750000D02*
X79360000Y-164800000D01*
X80410000Y-169250000D02*
X78610000Y-169250000D01*
X80410000Y-170000000D02*
X80410000Y-169250000D01*
X81910000Y-169250000D02*
X81910000Y-170000000D01*
X81910000Y-170000000D02*
X87910000Y-170000000D01*
X87910000Y-169250000D02*
X81910000Y-169250000D01*
X87910000Y-170000000D02*
X87910000Y-169250000D01*
X89410000Y-169250000D02*
X89410000Y-170000000D01*
X89410000Y-170000000D02*
X91210000Y-170000000D01*
X90260000Y-170300000D02*
X91510000Y-170300000D01*
X90460000Y-164800000D02*
X84910000Y-164800000D01*
X90460000Y-167750000D02*
X90460000Y-164800000D01*
X91210000Y-167750000D02*
X90460000Y-167750000D01*
X91210000Y-169250000D02*
X89410000Y-169250000D01*
X91210000Y-170000000D02*
X91210000Y-169250000D01*
X91220000Y-164040000D02*
X78600000Y-164040000D01*
X91220000Y-170010000D02*
X91220000Y-164040000D01*
X91510000Y-170300000D02*
X91510000Y-169050000D01*
%TO.C,U6*%
D14*
X55880000Y-93345000D02*
X76200000Y-93345000D01*
X76200000Y-108585000D01*
X55880000Y-108585000D01*
X55880000Y-93345000D01*
%TO.C,I5*%
X44650000Y-132920000D02*
X69650000Y-132920000D01*
X69650000Y-110920000D01*
X44650000Y-110920000D01*
X44650000Y-132920000D01*
%TO.C,U10*%
X46340000Y-79280000D02*
X87340000Y-79280000D01*
X87340000Y-87280000D01*
X46340000Y-87280000D01*
X46340000Y-79280000D01*
D13*
%TO.C,U5*%
X109520000Y-109200000D02*
X109520000Y-121820000D01*
X109520000Y-121820000D02*
X115490000Y-121820000D01*
X110280000Y-109960000D02*
X110280000Y-115510000D01*
X110280000Y-121060000D02*
X110280000Y-115510000D01*
X113230000Y-109210000D02*
X113230000Y-109960000D01*
X113230000Y-109960000D02*
X110280000Y-109960000D01*
X113230000Y-121060000D02*
X110280000Y-121060000D01*
X113230000Y-121810000D02*
X113230000Y-121060000D01*
X114730000Y-109210000D02*
X114730000Y-111010000D01*
X114730000Y-111010000D02*
X115480000Y-111010000D01*
X114730000Y-112510000D02*
X114730000Y-118510000D01*
X114730000Y-118510000D02*
X115480000Y-118510000D01*
X114730000Y-120010000D02*
X114730000Y-121810000D01*
X114730000Y-121810000D02*
X115480000Y-121810000D01*
X115480000Y-109210000D02*
X114730000Y-109210000D01*
X115480000Y-111010000D02*
X115480000Y-109210000D01*
X115480000Y-112510000D02*
X114730000Y-112510000D01*
X115480000Y-118510000D02*
X115480000Y-112510000D01*
X115480000Y-120010000D02*
X114730000Y-120010000D01*
X115480000Y-121810000D02*
X115480000Y-120010000D01*
X115490000Y-109200000D02*
X109520000Y-109200000D01*
X115490000Y-121820000D02*
X115490000Y-109200000D01*
X115780000Y-108910000D02*
X114530000Y-108910000D01*
X115780000Y-110160000D02*
X115780000Y-108910000D01*
%TD*%
M02*
