%TF.GenerationSoftware,KiCad,Pcbnew,9.0.4*%
%TF.CreationDate,2025-12-08T11:00:42+07:00*%
%TF.ProjectId,05_sulfurmonitoring_design_v4_no_display,30355f73-756c-4667-9572-6d6f6e69746f,rev?*%
%TF.SameCoordinates,Original*%
%TF.FileFunction,Drillmap*%
%TF.FilePolarity,Positive*%
%FSLAX45Y45*%
G04 Gerber Fmt 4.5, Leading zero omitted, Abs format (unit mm)*
G04 Created by KiCad (PCBNEW 9.0.4) date 2025-12-08 11:00:42*
%MOMM*%
%LPD*%
G01*
G04 APERTURE LIST*
%ADD10C,0.200000*%
G04 APERTURE END LIST*
D10*
X4550000Y-2800000D02*
G75*
G02*
X4250000Y-2800000I-150000J0D01*
G01*
X4250000Y-2800000D02*
G75*
G02*
X4550000Y-2800000I150000J0D01*
G01*
X4550000Y-17200000D02*
G75*
G02*
X4250000Y-17200000I-150000J0D01*
G01*
X4250000Y-17200000D02*
G75*
G02*
X4550000Y-17200000I150000J0D01*
G01*
X4100000Y-2500000D02*
X13100000Y-2500000D01*
X13100000Y-17500000D01*
X4100000Y-17500000D01*
X4100000Y-2500000D01*
X12950000Y-17205000D02*
G75*
G02*
X12650000Y-17205000I-150000J0D01*
G01*
X12650000Y-17205000D02*
G75*
G02*
X12950000Y-17205000I150000J0D01*
G01*
X12950000Y-2800000D02*
G75*
G02*
X12650000Y-2800000I-150000J0D01*
G01*
X12650000Y-2800000D02*
G75*
G02*
X12950000Y-2800000I150000J0D01*
G01*
X4350777Y-17821484D02*
X4350777Y-17621484D01*
X4350777Y-17621484D02*
X4398396Y-17621484D01*
X4398396Y-17621484D02*
X4426967Y-17631008D01*
X4426967Y-17631008D02*
X4446015Y-17650055D01*
X4446015Y-17650055D02*
X4455539Y-17669103D01*
X4455539Y-17669103D02*
X4465063Y-17707198D01*
X4465063Y-17707198D02*
X4465063Y-17735770D01*
X4465063Y-17735770D02*
X4455539Y-17773865D01*
X4455539Y-17773865D02*
X4446015Y-17792912D01*
X4446015Y-17792912D02*
X4426967Y-17811960D01*
X4426967Y-17811960D02*
X4398396Y-17821484D01*
X4398396Y-17821484D02*
X4350777Y-17821484D01*
X4550777Y-17821484D02*
X4550777Y-17688150D01*
X4550777Y-17726246D02*
X4560301Y-17707198D01*
X4560301Y-17707198D02*
X4569824Y-17697674D01*
X4569824Y-17697674D02*
X4588872Y-17688150D01*
X4588872Y-17688150D02*
X4607920Y-17688150D01*
X4674586Y-17821484D02*
X4674586Y-17688150D01*
X4674586Y-17621484D02*
X4665063Y-17631008D01*
X4665063Y-17631008D02*
X4674586Y-17640531D01*
X4674586Y-17640531D02*
X4684110Y-17631008D01*
X4684110Y-17631008D02*
X4674586Y-17621484D01*
X4674586Y-17621484D02*
X4674586Y-17640531D01*
X4798396Y-17821484D02*
X4779348Y-17811960D01*
X4779348Y-17811960D02*
X4769824Y-17792912D01*
X4769824Y-17792912D02*
X4769824Y-17621484D01*
X4903158Y-17821484D02*
X4884110Y-17811960D01*
X4884110Y-17811960D02*
X4874586Y-17792912D01*
X4874586Y-17792912D02*
X4874586Y-17621484D01*
X5131729Y-17821484D02*
X5131729Y-17621484D01*
X5131729Y-17621484D02*
X5198396Y-17764341D01*
X5198396Y-17764341D02*
X5265063Y-17621484D01*
X5265063Y-17621484D02*
X5265063Y-17821484D01*
X5446015Y-17821484D02*
X5446015Y-17716722D01*
X5446015Y-17716722D02*
X5436491Y-17697674D01*
X5436491Y-17697674D02*
X5417444Y-17688150D01*
X5417444Y-17688150D02*
X5379348Y-17688150D01*
X5379348Y-17688150D02*
X5360301Y-17697674D01*
X5446015Y-17811960D02*
X5426967Y-17821484D01*
X5426967Y-17821484D02*
X5379348Y-17821484D01*
X5379348Y-17821484D02*
X5360301Y-17811960D01*
X5360301Y-17811960D02*
X5350777Y-17792912D01*
X5350777Y-17792912D02*
X5350777Y-17773865D01*
X5350777Y-17773865D02*
X5360301Y-17754817D01*
X5360301Y-17754817D02*
X5379348Y-17745293D01*
X5379348Y-17745293D02*
X5426967Y-17745293D01*
X5426967Y-17745293D02*
X5446015Y-17735770D01*
X5541253Y-17688150D02*
X5541253Y-17888150D01*
X5541253Y-17697674D02*
X5560301Y-17688150D01*
X5560301Y-17688150D02*
X5598396Y-17688150D01*
X5598396Y-17688150D02*
X5617443Y-17697674D01*
X5617443Y-17697674D02*
X5626967Y-17707198D01*
X5626967Y-17707198D02*
X5636491Y-17726246D01*
X5636491Y-17726246D02*
X5636491Y-17783389D01*
X5636491Y-17783389D02*
X5626967Y-17802436D01*
X5626967Y-17802436D02*
X5617443Y-17811960D01*
X5617443Y-17811960D02*
X5598396Y-17821484D01*
X5598396Y-17821484D02*
X5560301Y-17821484D01*
X5560301Y-17821484D02*
X5541253Y-17811960D01*
X5722205Y-17802436D02*
X5731729Y-17811960D01*
X5731729Y-17811960D02*
X5722205Y-17821484D01*
X5722205Y-17821484D02*
X5712682Y-17811960D01*
X5712682Y-17811960D02*
X5722205Y-17802436D01*
X5722205Y-17802436D02*
X5722205Y-17821484D01*
X5722205Y-17697674D02*
X5731729Y-17707198D01*
X5731729Y-17707198D02*
X5722205Y-17716722D01*
X5722205Y-17716722D02*
X5712682Y-17707198D01*
X5712682Y-17707198D02*
X5722205Y-17697674D01*
X5722205Y-17697674D02*
X5722205Y-17716722D01*
M02*
